<?xml version="1.0" standalone="no"?>
<!DOCTYPE svg PUBLIC "-//W3C//DTD SVG 1.1//EN" "http://www.w3.org/Graphics/SVG/1.1/DTD/svg11.dtd" >
<svg>
<metadata>
Created by FontForge 20090914 at Fri Apr 14 13:47:34 2017
 By www-data
Copyright (c) 2009 by Alexander Kalachev, Alexey Maslov, Jovanny Lemonad. All rights reserved.
</metadata>
<defs>
<font id="Days" horiz-adv-x="1396" >
  <font-face 
    font-family="Days"
    font-weight="400"
    font-stretch="normal"
    units-per-em="2048"
    panose-1="2 0 5 5 5 0 0 2 0 4"
    ascent="1638"
    descent="-410"
    x-height="1096"
    cap-height="1434"
    bbox="-204.333 -567.013 2515 2040"
    underline-thickness="102"
    underline-position="-102"
    unicode-range="U+0020-U+E000"
  />
<missing-glyph horiz-adv-x="716" 
 />
    <glyph glyph-name=".notdef" horiz-adv-x="716" 
 />
    <glyph glyph-name="space" unicode=" " horiz-adv-x="716" 
 />
    <glyph glyph-name="exclam" unicode="!" horiz-adv-x="653" 
d="M125 1339c-1.33301 26 7.5 48.333 26.5 67s41.5 28 67.5 28h215c26 0 48.5 -9.33301 67.5 -28s27.833 -41 26.5 -67l-28 -821c-1.33301 -26 -11 -47.833 -29 -65.5s-39.667 -26.5 -65 -26.5h-158c-26 0 -47.833 8.83301 -65.5 26.5s-27.167 39.5 -28.5 65.5zM131 125
l0.000976562 63c0 44 11.667 77.667 35 101s56.666 35 99.999 35h123c44 0 77.5 -11.667 100.5 -35s34.5 -57 34.5 -101v-63c0 -42 -11.5 -75 -34.5 -99s-56.5 -36 -100.5 -36h-123c-44 0 -77.5 12 -100.5 36s-34.5 57 -34.5 99z" />
    <glyph glyph-name="quotedbl" unicode="&#x22;" horiz-adv-x="806" 
d="M63 1352c-1.33301 23.333 5.5 42.833 20.5 58.5s34.833 23.5 59.5 23.5h131c24.667 0 44.5 -8 59.5 -24s21.833 -35.333 20.5 -58l-30 -426c-2.66699 -24.667 -11.667 -44.5 -27 -59.5s-34.333 -22.5 -57 -22.5h-62c-23.333 0 -42.5 7.5 -57.5 22.5
s-23.833 34.833 -26.5 59.5zM453 1352c-1.33301 23.333 5.49805 42.833 20.498 58.5s34.5 23.5 58.5 23.5h132c24.667 0 44.334 -8 59.001 -24s21.334 -35.333 20.001 -58l-30 -426c-2.66699 -24.667 -11.5 -44.5 -26.5 -59.5s-34.167 -22.5 -57.5 -22.5h-62
c-23.333 0 -42.5 7.5 -57.5 22.5s-23.833 34.833 -26.5 59.5z" />
    <glyph glyph-name="numbersign" unicode="#" horiz-adv-x="1714" 
d="M41 389v118.998c1.33301 18 7.5 32.667 18.5 44s25.167 17 42.5 17h217l84 295h-210c-18 0 -32.833 5.83301 -44.5 17.5s-17.5 26.5 -17.5 44.5v118c0 18 5.83301 32.833 17.5 44.5s26.5 17.5 44.5 17.5h278l68 233c18 62.667 72.333 94.334 163 95.001h115
c24.667 0 41.667 -9 51 -27c5.33301 -10.667 8.33301 -22.667 9 -36c0 -10 -1.66699 -20.667 -5 -32l-67 -233h297l67 233c18 62.667 72.667 94.334 164 95.001h115c24.667 0 41.667 -9 51 -27c5.33301 -10.667 8.33301 -22.667 9 -36c0 -10 -1.66699 -20.667 -5 -32
l-67 -233h176c18 0 32.333 -5.83301 43 -17.5s16.667 -26.5 18 -44.5v-118c-1.33301 -18 -7.5 -32.833 -18.5 -44.5s-25.167 -17.5 -42.5 -17.5h-244l-84 -295h211c18 0 32.667 -5.66699 44 -17s17 -26 17 -44v-119c0 -18 -5.33301 -32.667 -16 -44s-25 -17 -43 -17h-280
l-66 -234c-18 -62.667 -72.667 -94 -164 -94h-115c-24.667 0 -41.667 9 -51 27c-5.33301 10.667 -8 22.667 -8 36c0 10 1.33301 20.333 4 31l66 234h-297l-66 -234c-18 -62.667 -72.667 -94 -164 -94h-114c-24.667 0 -42 9 -52 27c-5.33301 10.667 -8 22.667 -8 36
c0 10 1.33301 20.333 4 31l66 234h-150c-18 0 -32.667 5.66699 -44 17s-17 26 -17 44zM645 562.998h309l86 307h-309z" />
    <glyph glyph-name="dollar" unicode="$" horiz-adv-x="1595" 
d="M61 360c0 39.333 11.668 67.666 35.001 84.999s46 26 68 26h119c60 0 105 -31.333 135 -94c32.667 -68 103.667 -102.333 213 -103h8v318c-62.667 13.333 -118.334 27.166 -167.001 41.499s-99.167 33.5 -151.5 57.5s-95.333 50.667 -129 80s-61.667 65.5 -84 108.5
s-33.5 91.167 -33.5 144.5c0 126.667 42.667 225.5 128 296.5s231 110.833 437 119.5v94c0 18 5.83301 32.667 17.5 44s26.167 17 43.5 17h74v-153h55v153h74c18 0 32.833 -5.66699 44.5 -17s17.5 -26 17.5 -44v-92c135.333 -1.33301 257.833 -37.166 367.5 -107.499
s164.5 -157.5 164.5 -261.5c0 -39.333 -11.667 -67.5 -35 -84.5s-45.666 -25.5 -66.999 -25.5h-119c-60 0 -105 31.333 -135 94c-28.667 60 -87.334 93.333 -176.001 100v-313c80.667 -18 150.334 -36.833 209.001 -56.5s117.667 -46 177 -79s104.666 -74.667 135.999 -125
s47 -108.166 47 -173.499c0 -126.667 -43 -226 -129 -298s-232.667 -111.333 -440 -118v-94c0 -18 -5.83301 -32.833 -17.5 -44.5s-26.5 -17.5 -44.5 -17.5h-74v154h-55v-154h-74c-18 0 -32.667 5.83301 -44 17.5s-17 26.5 -17 44.5v92h-43c-136.667 0 -260 35 -370 105
s-165 157.667 -165 263zM451.001 1044c0 -53.333 62.667 -97 188 -131v246h-12c-117.333 0 -176 -38.333 -176 -115zM774.001 274h55v277l-55 10v-287zM774.001 883l55 -11v287h-55v-276zM965.001 274h16c117.333 0 176 38.333 176 115c0 53.333 -64 97 -192 131v-246z" />
    <glyph glyph-name="percent" unicode="%" horiz-adv-x="1673" 
d="M61 1122.5c0 102.333 33.167 183.166 99.5 242.499s149.333 89 249 89s182.667 -29.667 249 -89s99.5 -140.166 99.5 -242.499s-33.167 -183.166 -99.5 -242.499s-149.333 -89 -249 -89s-182.667 29.667 -249 89s-99.5 140.166 -99.5 242.499zM138 31
c-2 6 -3 11.999 -3 17.999c0 14.667 6.33301 29.667 19 45l997 1245c49.333 62.667 107.333 94.334 174 95.001h160c26 0 42.667 -10.333 50 -31c2 -6 3 -12.333 3 -19c0 -14.667 -6 -29.667 -18 -45l-998 -1245c-49.333 -62.667 -107.333 -94 -174 -94h-160
c-26 -0 -42.667 10.333 -50 31zM295 1122.5c0 -45 10.167 -80.5 30.5 -106.5s48.333 -39 84 -39s63.667 13 84 39s30.5 61.5 30.5 106.5s-10.167 80.5 -30.5 106.5s-48.333 39 -84 39s-63.667 -13 -84 -39s-30.5 -61.5 -30.5 -106.5zM915 313.499
c0 102.333 33.167 183.166 99.5 242.499s149.333 89 249 89s182.667 -29.667 249 -89s99.5 -140.166 99.5 -242.499s-33.167 -183.166 -99.5 -242.499s-149.333 -89 -249 -89s-182.667 29.667 -249 89s-99.5 140.166 -99.5 242.499zM1149 313.499
c0 -45 10.167 -80.5 30.5 -106.5s48.333 -39 84 -39s63.667 13 84 39s30.5 61.5 30.5 106.5s-10.167 80.5 -30.5 106.5s-48.333 39 -84 39s-63.667 -13 -84 -39s-30.5 -61.5 -30.5 -106.5z" />
    <glyph glyph-name="ampersand" unicode="&#x26;" horiz-adv-x="1540" 
d="M61 424c0 186 80 315.669 240 389.002c-60 65.333 -90 143.333 -90 234c0 116 46.333 212.833 139 290.5s223 116.5 391 116.5c169.333 0 302.5 -29.333 399.5 -88s145.5 -145.334 145.5 -260.001c0 -18 -5.83301 -32.833 -17.5 -44.5s-26.167 -17.5 -43.5 -17.5h-133
c-45.333 0 -83.666 24.667 -114.999 74c-39.333 62.667 -116.666 94 -231.999 94c-58.667 0 -104.334 -12.833 -137.001 -38.5s-49 -61.834 -49 -108.501c0 -48 14.667 -92.5 44 -133.5s72 -85.167 128 -132.5l346 -301l99 141c14 19.333 29.333 28.666 46 27.999
c11.333 0 23 -4 35 -12l109 -73c20 -14.667 30 -31 30 -49c0 -12 -4.66699 -24.333 -14 -37l-120 -172l256 -230c14 -13.333 21 -27.333 21 -42c0 -6.66699 -1.33301 -13 -4 -19c-8.66699 -22 -26 -33 -52 -33h-228c-28.667 0 -55.834 5.5 -81.501 16.5s-46 22.333 -61 34
s-35.5 29.5 -61.5 53.5c-130 -83.333 -274.333 -124.666 -433 -123.999c-178.667 0 -316.167 39.5 -412.5 118.5s-144.5 187.5 -144.5 325.5zM397 424.002c0 -135.333 82 -203 246 -203c82 0 152.333 20 211 60l-356 321c-67.333 -32.667 -101 -92 -101 -178z" />
    <glyph glyph-name="quotesingle" unicode="'" horiz-adv-x="417" 
d="M63 1352c-1.33301 23.333 5.5 42.833 20.5 58.5s34.833 23.5 59.5 23.5h131c24.667 0 44.5 -8 59.5 -24s21.833 -35.333 20.5 -58l-30 -426c-2.66699 -24.667 -11.667 -44.5 -27 -59.5s-34.333 -22.5 -57 -22.5h-62c-23.333 0 -42.5 7.5 -57.5 22.5
s-23.833 34.833 -26.5 59.5z" />
    <glyph glyph-name="parenleft" unicode="(" horiz-adv-x="665" 
d="M61 624.5c0 179 36.6689 347.331 110.002 504.998s182.333 284.167 327 379.5c9.33301 6.66699 18.666 10 27.999 10c5.33301 0 10.666 -0.666992 15.999 -2c16 -4.66699 28.667 -14.667 38 -30l57 -94c4 -6.66699 6 -14 6 -22c0 -17.333 -10.333 -37.333 -31 -60
c-160 -195.333 -239.833 -424.166 -239.5 -686.499s80.166 -490.833 239.499 -685.5c20.667 -23.333 31 -43.666 31 -60.999c0 -8 -2 -15 -6 -21l-57 -95c-9.33301 -15.333 -22 -25 -38 -29c-5.33301 -1.33301 -10.666 -2.33301 -15.999 -3c-10 0 -19.333 3.33301 -28 10
c-144.667 95.333 -253.667 221.833 -327 379.5s-110 326 -110 505z" />
    <glyph glyph-name="parenright" unicode=")" horiz-adv-x="665" 
d="M29 -143c-4 6.66699 -6.33301 13.667 -7 21c0 17.333 10.333 37.666 31 60.999c160 195.333 240 424 240 686s-80 490.667 -240 686c-20.667 23.333 -31 43.333 -31 60c0 8 2.33301 15.333 7 22l57 94c9.33301 15.333 22 25.333 38 30c5.33301 1.33301 10.333 2 15 2
c10 0 19.667 -3.33301 29 -10c144.667 -95.333 253.5 -221.833 326.5 -379.5s109.5 -326 109.5 -505s-36.5 -347.333 -109.5 -505s-181.833 -284.167 -326.5 -379.5c-9.33301 -6.66699 -19 -10 -29 -10c-5.33301 0 -10.333 1 -15 3c-16 4.66699 -28.667 14.334 -38 29.001z
" />
    <glyph glyph-name="asterisk" unicode="*" horiz-adv-x="872" 
d="M66 931c4 17.333 13.3311 30 27.998 38l144 75l-144 76c-15.333 8 -24.666 20.667 -27.999 38c-1.33301 6 -2.33301 11.667 -3 17c0 10.667 3 20.334 9 29.001l41 76c8 15.333 19.833 25.333 35.5 30s31.834 2.33398 48.501 -6.99902l133 -82l-2 157
c0 16.667 5.66699 30.167 17 40.5s26 15.5 44 15.5h94c18 0 32.833 -5.16699 44.5 -15.5s17.5 -23.833 17.5 -40.5l-2 -157l133 82c16.667 9.33301 32.834 11.666 48.501 6.99902s27.5 -14.667 35.5 -30l41 -76c5.33301 -9.33301 8 -19 8 -29
c0 -5.33301 -0.666992 -11 -2 -17c-4 -17.333 -13.667 -30 -29 -38l-143 -76l143 -75c15.333 -8 25 -20.667 29 -38c1.33301 -6 2 -11.667 2 -17c0 -10.667 -2.66699 -20.334 -8 -29.001l-41 -76c-8 -15.333 -20 -25.333 -36 -30s-32 -2.33398 -48 6.99902l-133 82l2 -157
c0 -16.667 -5.83301 -30.167 -17.5 -40.5s-26.5 -15.5 -44.5 -15.5h-94c-18 0 -32.667 5.16699 -44 15.5s-17 23.833 -17 40.5l2 157l-133 -82c-16.667 -9.33301 -32.834 -11.666 -48.501 -6.99902s-27.5 14.667 -35.5 30l-41 76c-5.33301 9.33301 -8.33301 19 -9 29
c0.666992 5.33301 1.66699 11 3 17z" />
    <glyph glyph-name="plus" unicode="+" horiz-adv-x="958" 
d="M41 569v119c0 18 5.83301 32.833 17.5 44.5s26.167 17.5 43.5 17.5h250v249c0 18 5.83301 32.833 17.5 44.5s26.5 17.5 44.5 17.5h118c18 0 32.833 -5.83301 44.5 -17.5s17.5 -26.5 17.5 -44.5v-249h262c18 0 32.833 -5.83301 44.5 -17.5s17.5 -26.5 17.5 -44.5v-119
c0 -18 -5.83301 -32.667 -17.5 -44s-26.5 -17 -44.5 -17h-262v-262c0 -18 -5.83301 -32.833 -17.5 -44.5s-26.5 -17.5 -44.5 -17.5h-118c-18 0 -32.833 5.83301 -44.5 17.5s-17.5 26.5 -17.5 44.5v262h-250c-18 0 -32.667 5.66699 -44 17s-17 26 -17 44z" />
    <glyph glyph-name="comma" unicode="," horiz-adv-x="550" 
d="M47 -113l59 322.002c5.33301 31.333 23.5 58.333 54.5 81s63.5 34 97.5 34h82c53.333 0 90.666 -14 111.999 -42c11.333 -14.667 16.666 -32.334 15.999 -53.001c0 -18 -4.33301 -38.333 -13 -61l-119 -301c-13.333 -32.667 -34.166 -60 -62.499 -82
s-60.166 -33 -95.499 -33h-39c-42 0 -70 11 -84 33c-8.66699 13.333 -13 31.666 -13 54.999c0 14 1.66699 29.667 5 47z" />
    <glyph glyph-name="hyphen" unicode="-" horiz-adv-x="958" 
d="M41 569v119c0 18 5.83301 32.833 17.5 44.5s26.167 17.5 43.5 17.5h754c18 0 32.833 -5.83301 44.5 -17.5s17.5 -26.5 17.5 -44.5v-119c0 -18 -5.83301 -32.667 -17.5 -44s-26.5 -17 -44.5 -17h-754c-18 0 -32.667 5.66699 -44 17s-17 26 -17 44z" />
    <glyph glyph-name="period" unicode="." horiz-adv-x="557" 
d="M82 125l0.000976562 63c0 44 11.667 77.667 35 101s56.666 35 99.999 35h123c44 0 77.5 -11.667 100.5 -35s34.5 -57 34.5 -101v-63c0 -42 -11.5 -75 -34.5 -99s-56.5 -36 -100.5 -36h-123c-44 0 -77.5 12 -100.5 36s-34.5 57 -34.5 99z" />
    <glyph glyph-name="slash" unicode="/" horiz-adv-x="1054" 
d="M3 29c-2 6 -3 11.999 -3 17.999c0 14.667 4.66699 30.334 14 47.001l650 1245c31.333 62.667 89.333 94.334 174 95.001h168c24.667 0 40 -9.66699 46 -29c2 -6 3 -12.333 3 -19c0 -14.667 -5 -30.334 -15 -47.001l-649 -1245c-31.333 -62.667 -89.333 -94 -174 -94h-168
c-24.667 0 -40 9.66699 -46 29z" />
    <glyph glyph-name="zero" unicode="0" horiz-adv-x="1630" 
d="M61 717c0 134 18.501 249 55.501 345s89.333 171 157 225s143.167 93.333 226.5 118s176.666 37 279.999 37h70c104 0 197.5 -12.333 280.5 -37s158.333 -64 226 -118s120 -129 157 -225s55.5 -211 55.5 -345s-18.5 -249.167 -55.5 -345.5s-89.333 -171.333 -157 -225
s-143 -92.834 -226 -117.501s-176.5 -37 -280.5 -37h-70c-104 0 -197.5 12.333 -280.5 37s-158.333 63.834 -226 117.501s-120 128.667 -157 225s-55.5 211.5 -55.5 345.5zM438.001 716.5c0 -295 125.667 -442.5 377 -442.5s377 147.5 377 442.5s-125.667 442.5 -377 442.5
s-377 -147.5 -377 -442.5z" />
    <glyph glyph-name="one" unicode="1" horiz-adv-x="813" 
d="M14 1085c-8 11.333 -12.001 22.999 -12.001 34.999c0 18.667 11 37.334 33 56.001l244 210c35.333 31.333 84.333 47.333 147 48h147c27.333 0 50.333 -9.33301 69 -28s28 -41 28 -67v-1245c0 -26 -9.66699 -48.167 -29 -66.5s-42 -27.5 -68 -27.5h-186
c-26 -0 -48.167 8.83301 -66.5 26.5s-27.5 39.5 -27.5 65.5v967l-115 -84c-13.333 -9.33301 -28.666 -12.333 -45.999 -9s-31.333 11 -42 23z" />
    <glyph glyph-name="two" unicode="2" horiz-adv-x="1437" 
d="M61 94l0.00195312 145.997c0 84.667 17.5 158 52.5 220s79.833 110.667 134.5 146s115.334 65.666 182.001 90.999s133.5 45.833 200.5 61.5s127.833 31.667 182.5 48s99.334 37.5 134.001 63.5s52 57.667 52 95c0 75.333 -19.333 126.5 -58 153.5s-104 40.5 -196 40.5
h-71c-128.667 0 -213.334 -41 -254.001 -123c-30 -62.667 -75 -94 -135 -94h-119c-12 0 -24.833 2.33301 -38.5 7s-27.834 16.334 -42.501 35.001s-22 41.667 -22 69c0 76.667 29.167 145.334 87.5 206.001s130.833 106.334 217.5 137.001s177 46 271 46h135
c88.667 0 167.5 -7.5 236.5 -22.5s131.833 -39.667 188.5 -74s100.334 -83.5 131.001 -147.5s46 -141.667 46 -233c0 -78 -17.333 -146.667 -52 -206s-79.334 -106.5 -134.001 -141.5s-115.5 -65.167 -182.5 -90.5s-133.833 -46.166 -200.5 -62.499
s-127.334 -32 -182.001 -47s-99.5 -33.667 -134.5 -56s-52.5 -48.5 -52.5 -78.5h830c27.333 0 50.166 -9.33301 68.499 -28s27.5 -41 27.5 -67v-94c0 -26 -9.5 -48.167 -28.5 -66.5s-41.5 -27.5 -67.5 -27.5h-1110c-26 0 -48.667 9.16699 -68 27.5s-29 40.5 -29 66.5z" />
    <glyph glyph-name="three" unicode="3" horiz-adv-x="1480" 
d="M51 391c0 39.333 11.6689 67.6621 35.002 84.9951s46 26 68 26h118c61.333 0 109.333 -37 144 -111c36.667 -78 118.667 -117 246 -117h143c82 0 142 11.667 180 35s57 63 57 119s-19 95.667 -57 119s-98 35 -180 35h-180c-26 0 -48.333 9.16699 -67 27.5
s-28 40.5 -28 66.5v82c0 24.667 9 46.5 27 65.5s39.333 28.5 64 28.5h147c88.667 0 153.167 11.667 193.5 35s60.5 63 60.5 119s-20.167 95.5 -60.5 118.5s-104.833 34.5 -193.5 34.5h-74c-128.667 0 -213.334 -41 -254.001 -123c-30 -62.667 -75 -94 -135 -94h-119
c-12 0 -24.833 2.33301 -38.5 7s-27.667 16.334 -42 35.001s-21.5 41.667 -21.5 69c0 76.667 29 145.334 87 206.001s130.333 106.334 217 137.001s177 46 271 46h138c401.333 0 602 -146 602 -438c0 -121.333 -45.667 -217 -137 -287
c105.333 -65.333 157.666 -161.666 156.999 -288.999c0 -154 -49.167 -265.167 -147.5 -333.5s-242.166 -102.5 -431.499 -102.5h-213c-148.667 0 -281.834 36.833 -399.501 110.5s-176.5 169.834 -176.5 288.501z" />
    <glyph glyph-name="four" unicode="4" horiz-adv-x="1536" 
d="M20 346v118.999c0 58.667 20.667 110.667 62 156l661 751c36.667 40.667 88.667 61.334 156 62.001h313c27.333 0 50.333 -9.33301 69 -28s28 -41 28 -67v-804h110c27.333 0 50.333 -9.33301 69 -28s28 -41 28 -67v-94c0 -26 -9.66699 -48.167 -29 -66.5
s-42 -27.5 -68 -27.5h-110v-158c0 -26 -9.66699 -48.167 -29 -66.5s-42 -27.5 -68 -27.5h-186c-26 -0 -48.167 8.83301 -66.5 26.5s-27.5 39.5 -27.5 65.5v160h-815c-26 0 -48.667 9.16699 -68 27.5s-29 40.5 -29 66.5zM422 534.999h510v579z" />
    <glyph glyph-name="five" unicode="5" horiz-adv-x="1484" 
d="M82 346c0 39.333 11.667 67.668 35 85.001s45.666 26 66.999 26h119c56 0 101 -31.667 135 -95c32.667 -58.667 103.667 -88 213 -88h158c82 0 142.167 13 180.5 39s57.5 70.5 57.5 133.5s-19.167 107.333 -57.5 133s-98.5 38.5 -180.5 38.5h-582
c-26 0 -48.167 9 -66.5 27s-27.5 40 -27.5 66v628c0 27.333 9.16699 50 27.5 68s40.5 27 66.5 27h1030c27.333 0 50 -9 68 -27s27 -40.667 27 -68v-94c0 -27.333 -9 -49.833 -27 -67.5s-40.667 -26.5 -68 -26.5h-747v-250h334c190 0 334 -35.5 432 -106.5s147 -187 147 -348
s-49.167 -277 -147.5 -348s-242.166 -106.5 -431.499 -106.5h-228c-150 0 -276.5 33.667 -379.5 101s-154.5 151.666 -154.5 252.999z" />
    <glyph glyph-name="six" unicode="6" horiz-adv-x="1521" 
d="M82 483l-0.000976562 442.998c0 190 48.167 323.5 144.5 400.5s239.833 115.5 430.5 115.5h254c150 0 275.333 -33.167 376 -99.5s151 -149.166 151 -248.499c0 -39.333 -11.667 -67.666 -35 -84.999s-46 -26 -68 -26h-118c-52 0 -97.333 31.333 -136 94
c-32.667 54.667 -100.667 82 -204 82h-185c-82 0 -141.333 -16.333 -178 -49s-55 -94 -55 -184v-37h422c190 0 334 -34.5 432 -103.5s147 -184 147 -345s-49.167 -276 -147.5 -345s-242.166 -103.5 -431.499 -103.5h-219c-192.667 0 -337.5 36.833 -434.5 110.5
s-145.5 200.5 -145.5 380.5zM458.999 482.998c0 -82 18.332 -137.333 54.999 -166s97.334 -43 182.001 -43h150c82 0 142 12 180 36s57 67.5 57 130.5s-19 106.333 -57 130s-98 35.5 -180 35.5h-387v-123z" />
    <glyph glyph-name="seven" unicode="7" horiz-adv-x="1304" 
d="M20 1245v94c0 26 9.66699 48.333 29 67s42 28 68 28h1071c26 0 48.5 -9.33301 67.5 -28s28.5 -41 28.5 -67v-92c0 -46.667 -20.333 -107.334 -61 -182.001l-525 -971c-34 -62.667 -77.667 -94 -131 -94h-205c-27.333 0 -46.333 8.83301 -57 26.5s-10.667 36.834 0 57.501
l578 1067h-766c-27.333 0 -50.333 9.16699 -69 27.5s-28 40.5 -28 66.5z" />
    <glyph glyph-name="eight" unicode="8" horiz-adv-x="1548" 
d="M61 430c0 152.667 64.333 263.333 193 332c-90 74 -135 162 -135 264c0 74 15 138.667 45 194s71.667 98.666 125 129.999s112.333 54.5 177 69.5s136 22.5 214 22.5h188c78 0 149.5 -7.5 214.5 -22.5s124 -38.167 177 -69.5s94.667 -74.666 125 -129.999
s45.5 -120 45.5 -194c0 -102.667 -45.333 -190.667 -136 -264c128.667 -68 193 -178.667 193 -332c0 -140.667 -53.333 -248.834 -160 -324.501s-244 -113.5 -412 -113.5h-282c-168 0 -305.333 37.833 -412 113.5s-160 183.834 -160 324.501zM438 431.999
c0 -58.667 19.167 -99.667 57.5 -123s98.5 -35 180.5 -35h196c82 0 142.167 11.667 180.5 35s57.5 64.333 57.5 123s-19.167 99.667 -57.5 123s-98.5 35 -180.5 35h-196c-82 0 -142.167 -11.667 -180.5 -35s-57.5 -64.333 -57.5 -123zM483 1012
c0 -53.333 19.167 -91.333 57.5 -114s98.5 -34 180.5 -34h102c82 0 142.167 11.333 180.5 34s57.5 60.667 57.5 114s-19.167 91.166 -57.5 113.499s-98.5 33.5 -180.5 33.5h-102c-82 0 -142.167 -11.167 -180.5 -33.5s-57.5 -60.166 -57.5 -113.499z" />
    <glyph glyph-name="nine" unicode="9" horiz-adv-x="1521" 
d="M61 993.5c0 161 49.167 276.002 147.5 345.002s242.5 103.5 432.5 103.5h219c192.667 0 337.5 -36.833 434.5 -110.5s145.5 -200.834 145.5 -381.501v-442c0 -190 -48.167 -323.5 -144.5 -400.5s-240.166 -115.5 -431.499 -115.5h-254c-150 0 -275.167 33 -375.5 99
s-150.5 149 -150.5 249c0 39.333 11.667 67.666 35 84.999s45.666 26 66.999 26h119c52 0 97 -31.667 135 -95c32.667 -54.667 101 -82 205 -82h184c82 0 141.5 16.5 178.5 49.5s55.5 94.5 55.5 184.5v37h-422c-190 0 -334.167 34.5 -432.5 103.5s-147.5 184 -147.5 345z
M438 993.002c0 -62.667 19.167 -106 57.5 -130s98.5 -36 180.5 -36h387v123c0 82 -18.5 137.333 -55.5 166s-97.833 43 -182.5 43h-149c-82 0 -142.167 -12 -180.5 -36s-57.5 -67.333 -57.5 -130z" />
    <glyph glyph-name="colon" unicode=":" horiz-adv-x="557" 
d="M82 125l0.000976562 63c0 44 11.667 77.667 35 101s56.666 35 99.999 35h123c44 0 77.5 -11.667 100.5 -35s34.5 -57 34.5 -101v-63c0 -42 -11.5 -75 -34.5 -99s-56.5 -36 -100.5 -36h-123c-44 0 -77.5 12 -100.5 36s-34.5 57 -34.5 99zM82.001 918l0.000976562 63
c0 42 11.667 75 35 99s56.666 36 99.999 36h123c44 0 77.5 -12 100.5 -36s34.5 -57 34.5 -99v-63c0 -44 -11.5 -77.667 -34.5 -101s-56.5 -35 -100.5 -35h-123c-44 0 -77.5 11.667 -100.5 35s-34.5 57 -34.5 101z" />
    <glyph glyph-name="semicolon" unicode=";" horiz-adv-x="561" 
d="M47 -113l59 322.002c5.33301 31.333 23.5 58.333 54.5 81s63.5 34 97.5 34h82c53.333 0 90.666 -14 111.999 -42c11.333 -14.667 16.666 -32.334 15.999 -53.001c0 -18 -4.33301 -38.333 -13 -61l-119 -301c-13.333 -32.667 -34.166 -60 -62.499 -82
s-60.166 -33 -95.499 -33h-39c-42 0 -70 11 -84 33c-8.66699 13.333 -13 31.666 -13 54.999c0 14 1.66699 29.667 5 47zM86 918.002l0.000976562 63c0 42 11.667 75 35 99s56.666 36 99.999 36h123c44 0 77.5 -12 100.5 -36s34.5 -57 34.5 -99v-63
c0 -44 -11.5 -77.667 -34.5 -101s-56.5 -35 -100.5 -35h-123c-44 0 -77.5 11.667 -100.5 35s-34.5 57 -34.5 101z" />
    <glyph glyph-name="less" unicode="&#x3c;" horiz-adv-x="819" 
d="M20 522v49.001c0 44 20 80.333 60 109l569 403c23.333 15.333 43.833 18.5 61.5 9.5s26.5 -25.833 26.5 -50.5v-172c0 -49.333 -29.333 -94.333 -88 -135l-266 -188l266 -189c58.667 -40.667 88 -85.667 88 -135v-172c0 -24.667 -8.83301 -41.334 -26.5 -50.001
s-38.167 -5.66699 -61.5 9l-569 404c-40 28 -60 64 -60 108z" />
    <glyph glyph-name="equal" unicode="=" horiz-adv-x="999" 
d="M61 354v119c0 18 5.83301 32.833 17.5 44.5s26.5 17.5 44.5 17.5h754c18 0 32.667 -5.83301 44 -17.5s17 -26.5 17 -44.5v-119c0 -18 -5.83301 -32.667 -17.5 -44s-26.167 -17 -43.5 -17h-754c-18 0 -32.833 5.66699 -44.5 17s-17.5 26 -17.5 44zM61 776v119
c0 18 5.83301 32.667 17.5 44s26.5 17 44.5 17h754c18 0 32.667 -5.66699 44 -17s17 -26 17 -44v-119c0 -18 -5.83301 -32.667 -17.5 -44s-26.167 -17 -43.5 -17h-754c-18 0 -32.833 5.66699 -44.5 17s-17.5 26 -17.5 44z" />
    <glyph glyph-name="greater" unicode="&#x3e;" horiz-adv-x="819" 
d="M82 51l-0.000976562 171.999c0 49.333 29.333 94.333 88 135l266 189l-266 188c-58.667 40.667 -88 85.667 -88 135v172c0 24.667 9 41.667 27 51c6.66699 3.33301 13.334 5 20.001 5c12.667 0 26.334 -5 41.001 -15l569 -403c39.333 -28.667 59.333 -65 60 -109v-49
c0 -44 -20 -80 -60 -108l-569 -404c-14.667 -9.33301 -28.334 -14 -41.001 -14c-7.33301 0 -14 1.66699 -20 5c-18 8.66699 -27 25.334 -27 50.001z" />
    <glyph glyph-name="question" unicode="?" horiz-adv-x="1320" 
d="M20 1053c0 113.333 57.4971 206.499 172.497 279.499s240.5 109.5 376.5 109.5h115c383.333 0 575.333 -149 576 -447c0 -66.667 -16.167 -124.5 -48.5 -173.5s-71.666 -86.5 -117.999 -112.5s-92.666 -49.333 -138.999 -70s-85.666 -43.167 -117.999 -67.5
s-48.5 -52.5 -48.5 -84.5c0 -18 -5.66699 -32.667 -17 -44s-26 -17 -44 -17h-225c-18 0 -32.833 5.83301 -44.5 17.5s-17.5 26.167 -17.5 43.5c0 57.333 11 108 33 152s49.333 78.5 82 103.5s68.167 48.5 106.5 70.5s73.833 40.5 106.5 55.5s60 33.333 82 55
s33 45.5 33 71.5c0 57.333 -18.167 99 -54.5 125s-94.166 39 -173.499 39h-51c-110.667 0 -186.334 -41 -227.001 -123c-30 -62.667 -75 -94 -135 -94h-119c-12 0 -25 2.33301 -39 7s-28.167 16.334 -42.5 35.001s-21.5 41.667 -21.5 69zM419.997 124.999v63
c0 44 12 77.667 36 101s57 35 99 35h123c42 0 75 -11.667 99 -35s36 -57 36 -101v-63c0 -42 -12 -75 -36 -99s-57 -36 -99 -36h-123c-42 0 -75 12 -99 36s-36 57 -36 99z" />
    <glyph glyph-name="at" unicode="@" horiz-adv-x="1699" 
d="M61 655.5c0 249.667 72.832 445.17 218.499 586.503s342.5 212 590.5 212c238.667 0 426.334 -55.667 563.001 -167s205 -285 205 -521c0 -144.667 -39.167 -262.834 -117.5 -354.501s-196.833 -137.5 -355.5 -137.5h-96c-12 0 -22.167 4.16699 -30.5 12.5
s-12.5 17.833 -12.5 28.5v23c-70.667 -50.667 -153.334 -76 -248.001 -76c-95.333 0 -173 20.833 -233 62.5s-90 100.834 -90 177.501c0 75.333 30 133.333 90 174s137.667 61 233 61h226c0 53.333 -11 90.666 -33 111.999s-57.667 32 -107 32
c-61.333 0 -105.666 -15 -132.999 -45c-16.667 -24.667 -42.667 -37 -78 -37h-102c-10.667 0 -20.167 3.66699 -28.5 11s-12.5 17.333 -12.5 30c0 131.333 124.333 196.666 373 195.999c108 0 195 -24.5 261 -73.5s99 -124.167 99 -225.5v-268c92.667 0 139 99 139 297
c0 160 -45 277.833 -135 353.5s-215.667 113.5 -377 113.5c-173.333 0 -308.833 -53 -406.5 -159s-146.5 -245.667 -146.5 -419s49.167 -312.833 147.5 -418.5s233.5 -158.5 405.5 -158.5c90 0 162.333 5.16699 217 15.5s89 15.5 103 15.5h29c18 0 32.667 -6.5 44 -19.5
s17 -28.5 17 -46.5v-94c0 -15.333 -5.83301 -28.833 -17.5 -40.5s-26.167 -18.834 -43.5 -21.501c-102.667 -20.667 -219 -30.667 -349 -30c-248.667 0 -445.667 70.667 -591 212s-218 336.833 -218 586.5zM689.999 502.003c0 -26 10 -46.833 30 -62.5
s47.667 -23.5 83 -23.5c70.667 0 137.667 20.333 201 61v107h-207c-32.667 0 -58.667 -7.83301 -78 -23.5s-29 -35.167 -29 -58.5z" />
    <glyph glyph-name="A" unicode="A" horiz-adv-x="1708" 
d="M25 92l251 952.001c68 259.333 289.333 389.333 664 390h539c24.667 0 45.167 -9.33301 61.5 -28s24.5 -40.334 24.5 -65.001v-1249c0 -26 -9.33301 -47.833 -28 -65.5s-41 -26.5 -67 -26.5h-188c-27.333 -0 -49.833 8.83301 -67.5 26.5s-26.5 40.167 -26.5 67.5v252
h-711l-67 -252c-6.66699 -27.333 -21.667 -49.833 -45 -67.5s-48 -26.5 -74 -26.5h-197c-26 0 -45.667 9 -59 27c-9.33301 12 -14 25.667 -14 41c0.666992 7.33301 2 15.333 4 24zM551 629.001l637.001 -0.000976562v522h-285c-64 0 -119.833 -18.167 -167.5 -54.5
s-79.834 -85.166 -96.501 -146.499z" />
    <glyph glyph-name="B" unicode="B" horiz-adv-x="1689" 
d="M143 1339c0 26 9.33301 48.333 28 67s41 28 67 28h813c91.333 0 174.5 -12.667 249.5 -38s138.833 -69.833 191.5 -133.5s79 -142.5 79 -236.5c0 -102.667 -45 -190.667 -135 -264c128.667 -68 192.667 -178.667 192 -332c0 -136.667 -51.167 -242.5 -153.5 -317.5
s-227.833 -112.5 -376.5 -112.5h-860c-26 0 -48.333 9.16699 -67 27.5s-28 40.5 -28 66.5v1245zM520 270h571.999c52 0 91.5 15.333 118.5 46s40.5 72.667 40.5 126s-13.667 95.333 -41 126s-66.666 46 -117.999 46h-572v-344zM519.999 877h535c42 0 75.667 12.5 101 37.5
s38 60 38 105s-12.667 80.167 -38 105.5s-59 38 -101 38h-535v-286z" />
    <glyph glyph-name="C" unicode="C" horiz-adv-x="1673" 
d="M61 716.5c0 247 61.833 429.667 185.5 548s309.167 177.5 556.5 177.5h223c151.333 0 285.166 -39.333 401.499 -118s174.5 -186.334 174.5 -323.001c0 -39.333 -11.667 -67.5 -35 -84.5s-46 -25.5 -68 -25.5h-119c-61.333 0 -109 36.667 -143 110
c-49.333 105.333 -131.333 158 -246 158h-178c-146 0 -245 -31.333 -297 -94s-78 -178.667 -78 -348s26 -285.5 78 -348.5s151 -94.5 297 -94.5h199c114.667 0 196.334 52.667 245.001 158c34 74 82 111 144 111h119c12 0 24.833 -2.5 38.5 -7.5s27.667 -16.667 42 -35
s21.5 -41.166 21.5 -68.499c0 -136.667 -58 -244.167 -174 -322.5s-249.667 -117.5 -401 -117.5h-244c-247.333 0 -432.833 59 -556.5 177s-185.5 300.5 -185.5 547.5z" />
    <glyph glyph-name="D" unicode="D" horiz-adv-x="1687" 
d="M143 92v1245c0 27.333 9.33301 50.333 28 69s41 28 67 28h559c289.333 0 499.833 -57.833 631.5 -173.5s197.5 -297 197.5 -544s-65.833 -428.167 -197.5 -543.5s-342.167 -173 -631.5 -173h-559c-26 -0 -48.333 8.83301 -67 26.5s-28 39.5 -28 65.5zM520 283
l266 0.000976562c178.667 0 300.5 32.667 365.5 98s97.5 177.166 97.5 335.499s-32.333 270.333 -97 336s-186.667 98.5 -366 98.5h-266v-868z" />
    <glyph glyph-name="E" unicode="E" horiz-adv-x="1525" 
d="M143 96v1245c0 26 9.33301 48 28 66s41 27 67 27h1153c26 0 48.167 -9.33301 66.5 -28s27.5 -41 27.5 -67v-94c0 -26 -9.16699 -48.167 -27.5 -66.5s-40.5 -27.5 -66.5 -27.5h-871v-291h750c26 0 48.167 -9.16699 66.5 -27.5s27.5 -40.5 27.5 -66.5v-94
c0 -26 -9.16699 -48.167 -27.5 -66.5s-40.5 -27.5 -66.5 -27.5h-750v-295h869c26 0 47.833 -9 65.5 -27s26.5 -40 26.5 -66v-96c0 -26 -9.33301 -48.167 -28 -66.5s-41 -27.5 -67 -27.5h-1148c-26 0 -48.333 9.16699 -67 27.5s-28 41.166 -28 68.499z" />
    <glyph glyph-name="F" unicode="F" horiz-adv-x="1505" 
d="M143 96v1245c0 26 9.33301 48 28 66s41 27 67 27h1153c26 0 48.167 -9.33301 66.5 -28s27.5 -41 27.5 -67v-94c0 -26 -9.16699 -48.167 -27.5 -66.5s-40.5 -27.5 -66.5 -27.5h-871v-352h709c26 0 48.167 -9.33301 66.5 -28s27.5 -40.667 27.5 -66v-95
c0 -26 -9.16699 -48.167 -27.5 -66.5s-40.5 -27.5 -66.5 -27.5h-709v-420c0 -27.333 -9.16699 -50.166 -27.5 -68.499s-40.5 -27.5 -66.5 -27.5h-188c-26 0 -48.333 9.16699 -67 27.5s-28 41.166 -28 68.499z" />
    <glyph glyph-name="G" unicode="G" horiz-adv-x="1695" 
d="M61 717c0 247.333 61.833 429.999 185.5 547.999s309.167 177 556.5 177h223c147.333 0 280.166 -35.167 398.499 -105.5s177.5 -158.166 177.5 -263.499c0 -39.333 -11.667 -67.5 -35 -84.5s-46 -25.5 -68 -25.5h-119c-57.333 0 -102.333 31.333 -135 94
c-35.333 68 -120 102 -254 102h-178c-146 0 -245 -31.333 -297 -94s-78 -178.667 -78 -348c0 -166.667 23.333 -282.167 70 -346.5s130 -96.5 250 -96.5h205c108 0 184.833 20.5 230.5 61.5s69.167 99.833 70.5 176.5h-226c-26 0 -48.167 9.16699 -66.5 27.5
s-27.5 40.5 -27.5 66.5v78c0 26 9.16699 48.167 27.5 66.5s40.5 27.5 66.5 27.5h502c26 0 48.167 -9.16699 66.5 -27.5s27.5 -40.5 27.5 -66.5v-111c0 -187.333 -56 -331 -168 -431s-276.333 -150 -493 -150h-225c-221.333 0 -391.166 59.667 -509.499 179
s-177.5 301.333 -177.5 546z" />
    <glyph glyph-name="H" unicode="H" horiz-adv-x="1728" 
d="M143 94l0.000976562 1245c0 26 9.33301 48.333 28 67s41.667 28 69 28h186c26 0 48.167 -9.33301 66.5 -28s27.5 -41 27.5 -67v-450h688v450c0 26 9.33301 48.333 28 67s41 28 67 28h186c27.333 0 50.166 -9.33301 68.499 -28s27.5 -41 27.5 -67v-1245
c0 -26 -9.5 -48.167 -28.5 -66.5s-41.5 -27.5 -67.5 -27.5h-186c-26 -0 -48.333 8.83301 -67 26.5s-28 39.5 -28 65.5v514h-688v-514c0 -26 -9.16699 -47.833 -27.5 -65.5s-40.5 -26.5 -66.5 -26.5h-186c-26 0 -48.667 9.16699 -68 27.5s-29 40.5 -29 66.5z" />
    <glyph glyph-name="I" unicode="I" horiz-adv-x="663" 
d="M143 92l0.000976562 1247c0 26 9.33301 48.333 28 67s41 28 67 28h186c27.333 0 50.166 -9.33301 68.499 -28s27.5 -41 27.5 -67v-1245c0 -26 -9.5 -48.167 -28.5 -66.5s-41.5 -27.5 -67.5 -27.5h-186c-26 -0 -48.333 8.83301 -67 26.5s-28 39.5 -28 65.5z" />
    <glyph glyph-name="J" unicode="J" horiz-adv-x="1130" 
d="M0 94l-0.00195312 113c0 26 8.83301 48.167 26.5 66.5s40.167 27.5 67.5 27.5h33c18 0 45.333 -3 82 -9s65.334 -9 86.001 -9h72c92.667 0 159.834 19 201.501 57s62.5 102 62.5 192v807c0 26 9.16699 48.333 27.5 67s40.5 28 66.5 28h186
c27.333 0 50.333 -9.33301 69 -28s28 -41 28 -67v-804c0 -170.667 -56.667 -302.5 -170 -395.5s-267 -139.5 -461 -139.5h-283c-26 0 -48.167 9.16699 -66.5 27.5s-27.5 40.5 -27.5 66.5z" />
    <glyph glyph-name="K" unicode="K" horiz-adv-x="1628" 
d="M143 96l0.000976562 1243c0 26 9.33301 48.667 28 68s41 29 67 29h188c26 0 48.167 -9.66699 66.5 -29s27.5 -42 27.5 -68v-479h215c58.667 0 110.167 16 154.5 48s86.5 83.667 126.5 155l155 276c35.333 64 83.333 96.333 144 97h231c26 0 41.333 -9.33301 46 -28
c1.33301 -4.66699 2 -9.33398 2 -14.001c0 -15.333 -5.66699 -33.666 -17 -54.999l-217 -393c-31.333 -57.333 -66.5 -104.666 -105.5 -141.999s-89.833 -63.666 -152.5 -78.999c44 -9.33301 89.167 -37 135.5 -83s87.166 -96 122.499 -150l250 -398
c11.333 -19.333 17 -36 17 -50c0 -6 -1 -11.667 -3 -17c-6.66699 -18 -23 -27 -49 -27h-229c-26 0 -54 9.16699 -84 27.5s-53.333 40.5 -70 66.5l-176 279c-42 68 -84.333 119.167 -127 153.5s-94 51.5 -154 51.5h-215v-486c0 -26 -9.16699 -47.833 -27.5 -65.5
s-40.5 -26.5 -66.5 -26.5h-188c-26 0 -48.333 9.5 -67 28.5s-28 41.5 -28 67.5z" />
    <glyph glyph-name="L" unicode="L" horiz-adv-x="1505" 
d="M143 92v1245c0 27.333 9.33301 50.333 28 69s41 28 67 28h188c26 0 48.167 -9.33301 66.5 -28s27.5 -41.667 27.5 -69v-1054h871c26 0 48.167 -9.33301 66.5 -28s27.5 -41 27.5 -67v-94c0 -26 -9.16699 -48.167 -27.5 -66.5s-40.5 -27.5 -66.5 -27.5h-1153
c-26 -0 -48.333 8.83301 -67 26.5s-28 39.5 -28 65.5z" />
    <glyph glyph-name="M" unicode="M" horiz-adv-x="2117" 
d="M143 96l-0.000976562 1241c0 27.333 9 50.333 27 69s40 28 66 28h407c26 0 50.667 -9.33301 74 -28s39 -41 47 -67l295 -854l295 854c8 26 23.667 48.333 47 67s48 28 74 28h407c26 0 47.833 -9.33301 65.5 -28s26.5 -41.667 26.5 -69v-1241
c0 -27.333 -9.16699 -50.166 -27.5 -68.499s-40.5 -27.5 -66.5 -27.5h-180c-26 0 -48.167 9.16699 -66.5 27.5s-27.5 41.166 -27.5 68.499v977l-353 -983c-9.33301 -24.667 -25.666 -45.834 -48.999 -63.501s-48 -26.5 -74 -26.5h-143c-26 0 -50.5 8.83301 -73.5 26.5
s-39.5 38.834 -49.5 63.501l-352 983v-977c0 -27.333 -9.16699 -50.166 -27.5 -68.499s-40.5 -27.5 -66.5 -27.5h-180c-26 0 -48.333 9.16699 -67 27.5s-28 41.166 -28 68.499z" />
    <glyph glyph-name="N" unicode="N" horiz-adv-x="1775" 
d="M143 94v1245c0 26 9 48.333 27 67s40 28 66 28h294c23.333 0 48 -9.33301 74 -28s47.333 -41 64 -67l604 -929v931c0 26 9.16699 48 27.5 66s40.5 27 66.5 27h172c26 0 48.167 -9 66.5 -27s27.5 -40.667 27.5 -68v-1245c0 -26 -9.16699 -48.167 -27.5 -66.5
s-40.5 -27.5 -66.5 -27.5h-332c-26 0 -52.667 9.16699 -80 27.5s-49 40.5 -65 66.5l-553 858v-858c0 -26 -9.16699 -48.167 -27.5 -66.5s-40.5 -27.5 -66.5 -27.5h-176c-26 0 -48.333 9.16699 -67 27.5s-28 40.5 -28 66.5z" />
    <glyph glyph-name="O" unicode="O" horiz-adv-x="1732" 
d="M61 717c0 259.333 68.333 448.666 205 567.999s336.834 179 600.501 179s463.667 -59.667 600 -179s204.5 -308.666 204.5 -567.999s-68.167 -448.833 -204.5 -568.5s-336.333 -179.5 -600 -179.5s-463.834 59.833 -600.501 179.5s-205 309.167 -205 568.5zM438 716.5
c0 -158.333 33.833 -277.333 101.5 -357s176.667 -119.5 327 -119.5s259.166 39.833 326.499 119.5s101 198.667 101 357s-33.667 277.5 -101 357.5s-176.166 120 -326.499 120s-259.333 -40 -327 -120s-101.5 -199.167 -101.5 -357.5z" />
    <glyph glyph-name="P" unicode="P" horiz-adv-x="1644" 
d="M143 94v1245c0 26 9 48.333 27 67s40 28 66 28h763c402.667 0 604.167 -185.833 604.5 -557.5s-201.167 -557.5 -604.5 -557.5h-479v-225c0 -26 -9.16699 -48.167 -27.5 -66.5s-40.5 -27.5 -66.5 -27.5h-188c-26 0 -48.333 9.16699 -67 27.5s-28 40.5 -28 66.5zM520 602
l365 -0.00195312c112 0 197 18.833 255 56.5s87 110.334 87 218.001s-29 180.334 -87 218.001s-143 56.5 -255 56.5h-365v-549z" />
    <glyph glyph-name="Q" unicode="Q" horiz-adv-x="1728" 
d="M61 727c0 254 68.333 440.333 205 559s336.667 178 600 178c266 0 466.667 -56.333 602 -169s203 -295 203 -547c0 -64 -6.5 -123.833 -19.5 -179.5s-32.5 -104.667 -58.5 -147s-46.167 -73 -60.5 -92s-33.5 -42.167 -57.5 -69.5h159c27.333 0 50 -9.16699 68 -27.5
s27 -40.5 27 -66.5v-82c0 -26 -9 -48.167 -27 -66.5s-40.667 -27.5 -68 -27.5h-768c-263.333 0 -463.333 59.333 -600 178s-205 305 -205 559zM438 727c0 -152.667 34.167 -268.667 102.5 -348s176.833 -119 325.5 -119c285.333 0 428 162.667 428 488
c0 151.333 -33.667 263.5 -101 336.5s-176.333 109.5 -327 109.5c-148.667 0 -257.167 -39.667 -325.5 -119s-102.5 -195.333 -102.5 -348z" />
    <glyph glyph-name="R" unicode="R" horiz-adv-x="1654" 
d="M143 94v1245c0 26 9 48.333 27 67s40 28 66 28h825c152.667 0 277.834 -41 375.501 -123s146.5 -192.667 146.5 -332c0 -194 -125.667 -315.667 -377 -365c39.333 -15.333 76.166 -40.666 110.499 -75.999s73.5 -87 117.5 -155l182 -289c11.333 -19.333 17 -36 17 -50
c0 -6 -1 -11.667 -3 -17c-6.66699 -18 -23 -27 -49 -27h-240c-26 0 -54 9.16699 -84 27.5s-53 40.5 -69 66.5l-170 266c-69.333 109.333 -154 164 -254 164h-244v-430c0 -26 -9.16699 -48.167 -27.5 -66.5s-40.5 -27.5 -66.5 -27.5h-188c-26 0 -48.333 9.16699 -67 27.5
s-28 40.5 -28 66.5zM520 806.999h426c68 0 128.333 13.667 181 41s79 71 79 131s-26.167 103.667 -78.5 131s-112.833 41 -181.5 41h-426v-344z" />
    <glyph glyph-name="S" unicode="S" horiz-adv-x="1595" 
d="M61 367c0 39.333 11.6631 67.4971 34.9961 84.4971s46 25.5 68 25.5h119c60 0 105 -31.333 135 -94c32.667 -68 103.667 -102 213 -102l350 -7c117.333 0 176 38.333 176 115c0 31.333 -19.833 58.333 -59.5 81s-91.5 41.5 -155.5 56.5s-134.667 30 -212 45
s-154.166 33.833 -230.499 56.5s-146.5 49.334 -210.5 80.001s-115.833 72.834 -155.5 126.501s-59.5 116.834 -59.5 189.501c0 134 47.667 237.167 143 309.5s259.333 108.5 492 108.5l254 -6c136.667 0 259.834 -35.167 369.501 -105.5s164.5 -158.166 164.5 -263.499
c0 -39.333 -11.667 -67.666 -35 -84.999s-45.666 -26 -66.999 -26h-119c-60 0 -105 31.667 -135 95c-32.667 68 -103.667 102 -213 102l-301 6c-117.333 0 -176 -38.333 -176 -115c0 -42 37.167 -76.333 111.5 -103s164.333 -50.167 270 -70.5
s211.834 -44.833 318.501 -73.5s197.167 -75.834 271.5 -141.501s111.5 -147.5 111.5 -245.5c0 -134 -47.833 -237.167 -143.5 -309.5s-259.5 -108.5 -491.5 -108.5l-303 6c-136.667 0 -260 35.167 -370 105.5s-165 158.166 -165 263.499z" />
    <glyph glyph-name="T" unicode="T" horiz-adv-x="1499" 
d="M20 1245v94c0 27.333 9 50 27 68s40.667 27 68 27h1269c27.333 0 50 -9 68 -27s27 -40.667 27 -68v-94c0 -27.333 -9 -49.833 -27 -67.5s-40.667 -26.5 -68 -26.5h-446v-1059c0 -26 -9.16699 -47.833 -27.5 -65.5s-40.5 -26.5 -66.5 -26.5h-189
c-26 -0 -48.167 8.83301 -66.5 26.5s-27.5 39.5 -27.5 65.5v1059h-446c-27.333 0 -50 8.83301 -68 26.5s-27 40.167 -27 67.5z" />
    <glyph glyph-name="U" unicode="U" horiz-adv-x="1687" 
d="M123 567l0.000976562 772c0 26 9.16699 48.333 27.5 67s41.166 28 68.499 28h187c26 0 48.167 -9.33301 66.5 -28s27.5 -41 27.5 -67v-774c0 -98 21.5 -171 64.5 -219s109.5 -72 199.5 -72h160c90 0 156.5 24 199.5 72s64.5 121 64.5 219v774
c0 26 9.16699 48.333 27.5 67s40.5 28 66.5 28h186c27.333 0 50.333 -9.33301 69 -28s28 -41 28 -67v-772c0 -182.667 -53.667 -324.167 -161 -424.5s-264 -150.5 -470 -150.5h-180c-206 0 -362.667 50.167 -470 150.5s-161 241.833 -161 424.5z" />
    <glyph glyph-name="V" unicode="V" horiz-adv-x="1634" 
d="M27 1350c-4 8 -6 15.666 -6 22.999c0 12 4.66699 23.333 14 34c15.333 18 34.333 27 57 27h219c52 0 91.667 -31.667 119 -95l387 -862l387 862c27.333 62.667 67 94.334 119 95.001h219c23.333 0 42.333 -9 57 -27c9.33301 -10.667 14 -22 14 -34
c0 -7.33301 -1.66699 -15 -5 -23l-576 -1248c-31.333 -68 -79 -102 -143 -102h-144c-64 0 -111.667 34 -143 102z" />
    <glyph glyph-name="W" unicode="W" horiz-adv-x="2293" 
d="M25 1350c-2.66699 8 -4.33301 15.666 -5 22.999c0 12.667 4.66699 24.334 14 35.001c14.667 17.333 33.334 26 56.001 26h219c26 0 50 -9 72 -27s37.667 -40.667 47 -68l264 -792l244 792c19.333 62.667 59 94.334 119 95.001h184c60 0 99.667 -31.667 119 -95l244 -792
l264 792c9.33301 27.333 25 50 47 68s46 27 72 27h219c23.333 0 42 -8.66699 56 -26c9.33301 -10.667 14 -22.334 14 -35.001c0 -7.33301 -1.66699 -15 -5 -23l-446 -1248c-24.667 -68 -72.667 -102 -144 -102h-145c-74 0 -121.667 34 -143 102l-244 770l-244 -770
c-22 -68 -69.667 -102 -143 -102h-146c-70.667 0 -118.334 34 -143.001 102z" />
    <glyph glyph-name="X" unicode="X" horiz-adv-x="1536" 
d="M24 29c-2 5.33301 -3.33203 10.666 -3.99902 15.999c0 14.667 7 31 21 49l504 643l-475 602c-14 17.333 -21 33.666 -21 48.999c0 6 1 11.667 3 17c7.33301 19.333 24.666 29 51.999 29h215c66.667 0 125 -31.667 175 -95l274 -348l274 348
c49.333 62.667 107.666 94.334 174.999 95.001h215c27.333 0 44.666 -9.66699 51.999 -29c2 -5.33301 3 -11 3 -17c0 -14.667 -7 -31 -21 -49l-475 -602l504 -643c14 -17.333 21 -33.666 21 -48.999c0 -6 -1.33301 -11.333 -4 -16c-7.33301 -19.333 -24.666 -29 -51.999 -29
h-213c-66.667 -0 -124.667 31.333 -174 94l-305 389l-305 -389c-49.333 -62.667 -107.333 -94 -174 -94h-213c-27.333 0 -44.666 9.66699 -51.999 29z" />
    <glyph glyph-name="Y" unicode="Y" horiz-adv-x="1519" 
d="M23 1404c6.66699 20 23 29.999 49 29.999h190c75.333 0 133.333 -31.667 174 -95l324 -499l323 499c40.667 62.667 98.667 94.334 174 95.001h191c26 0 42.333 -10 49 -30c2 -6 3 -12 3 -18c0 -14.667 -5.66699 -30.334 -17 -47.001l-535 -827v-420
c0 -26 -9.16699 -47.833 -27.5 -65.5s-40.5 -26.5 -66.5 -26.5h-188c-26 0 -48.333 8.83301 -67 26.5s-28 39.5 -28 65.5v420l-534 827c-11.333 16.667 -17 32.334 -17 47.001c0 6 1 12 3 18z" />
    <glyph glyph-name="Z" unicode="Z" horiz-adv-x="1468" 
d="M51 1245v93.999c0 27.333 9.16699 50 27.5 68s40.5 27 66.5 27h1168c26 0 48.167 -9 66.5 -27s27.5 -40.667 27.5 -68v-112c0 -27.333 -5.83301 -53.666 -17.5 -78.999s-22.5 -43.333 -32.5 -54l-44 -45l-787 -766h797c27.333 0 49.833 -9 67.5 -27
s26.5 -40.667 26.5 -68v-94c0 -27.333 -8.83301 -49.833 -26.5 -67.5s-40.167 -26.5 -67.5 -26.5h-1161c-26 -0 -48.167 8.83301 -66.5 26.5s-27.5 40.167 -27.5 67.5v111c0 64 31.333 127.333 94 190l762 756h-779c-26 0 -48.167 8.83301 -66.5 26.5
s-27.5 40.167 -27.5 67.5z" />
    <glyph glyph-name="bracketleft" unicode="[" horiz-adv-x="796" 
d="M143 -205v1659c0 18 5.83301 32.833 17.5 44.5s26.5 17.5 44.5 17.5h510c18 0 32.667 -5.83301 44 -17.5s17 -26.5 17 -44.5v-108c0 -18 -5.83301 -32.833 -17.5 -44.5s-26.167 -17.5 -43.5 -17.5h-246v-1319h246c18 0 32.667 -5.83301 44 -17.5s17 -26.167 17 -43.5
v-109c0 -18 -5.83301 -32.667 -17.5 -44s-26.167 -17 -43.5 -17h-510c-18 0 -32.833 5.66699 -44.5 17s-17.5 26 -17.5 44z" />
    <glyph glyph-name="backslash" unicode="\" horiz-adv-x="1054" 
d="M3 1405c6 19.333 21.333 29 46 29h168c84.667 0 142.667 -31.667 174 -95l649 -1245c9.33301 -16.667 14.333 -32.334 15 -47.001c0 -6.66699 -1 -12.667 -3 -18c-6 -19.333 -21.333 -29 -46 -29h-168c-84.667 0 -142.667 31.333 -174 94l-650 1245
c-9.33301 16.667 -14 32.334 -14 47.001c0 6.66699 1 13 3 19z" />
    <glyph glyph-name="bracketright" unicode="]" horiz-adv-x="796" 
d="M20 -96c0 18 5.83301 32.667 17.5 44s26.5 17 44.5 17h246v1319h-246c-18 0 -32.833 5.83301 -44.5 17.5s-17.5 26.5 -17.5 44.5v108c0 18 5.83301 32.833 17.5 44.5s26.5 17.5 44.5 17.5h510c18 0 32.667 -5.83301 44 -17.5s17 -26.5 17 -44.5v-1659
c0 -18 -5.83301 -32.667 -17.5 -44s-26.167 -17 -43.5 -17h-510c-18 0 -32.833 5.83301 -44.5 17.5s-17.5 26.167 -17.5 43.5v109z" />
    <glyph glyph-name="asciicircum" unicode="^" horiz-adv-x="1089" 
d="M5 800c-3.33301 6.66699 -4.99805 13.667 -4.99805 21c0 12.667 4.66699 25.667 14 39l322 486c39.333 58.667 84.333 88 135 88h147c50.667 0 96 -29.333 136 -88l321 -486c9.33301 -14 14 -27 14 -39c0 -7.33301 -1.66699 -14.333 -5 -21
c-8.66699 -18.667 -25.334 -28 -50.001 -28h-157c-52 0 -96.667 28 -134 84l-198 299l-199 -299c-36.667 -56 -81 -84 -133 -84h-158c-24.667 0 -41.334 9.33301 -50.001 28z" />
    <glyph glyph-name="underscore" unicode="_" horiz-adv-x="819" 
d="M0 -61c0 18 5.83301 32.667 17.5 44s26.167 17 43.5 17h697c18 0 32.667 -5.83301 44 -17.5s17 -26.167 17 -43.5v-119c0 -18 -5.83301 -32.833 -17.5 -44.5s-26.167 -17.5 -43.5 -17.5h-697c-18 0 -32.667 5.83301 -44 17.5s-17 26.5 -17 44.5v119z" />
    <glyph glyph-name="grave" unicode="`" horiz-adv-x="563" 
d="M58 1391c22.667 28.667 61.333 43.001 116 43.001h82c32.667 0 63.334 -11.333 92.001 -34s48.667 -49.667 60 -81l104 -324c6.66699 -22 10 -41 10 -57c0 -52 -34 -78 -102 -78h-39c-64 0 -116.667 38.333 -158 115l-164 303c-12 23.333 -17.667 44.666 -17 63.999
c-0.666992 18.667 4.66602 35 15.999 49z" />
    <glyph glyph-name="a" unicode="a" horiz-adv-x="1335" 
d="M61 332c0 112 44.168 197.999 132.501 257.999s202.166 90 341.499 90h331c0 78 -16.333 132.333 -49 163s-84.334 46 -155.001 46c-92.667 0 -157.667 -22.667 -195 -68c-28.667 -35.333 -67 -53 -115 -53h-149c-18 0 -32.833 5.83301 -44.5 17.5
s-17.5 26.167 -17.5 43.5c0 191.333 181.667 287 545 287c158.667 0 286 -35.5 382 -106.5s144 -180.833 144 -329.5v-619c0 -18 -5.66699 -32.667 -17 -44s-26 -17 -44 -17h-193c-18 0 -32.667 5.83301 -44 17.5s-17 26.167 -17 43.5v31
c-105.333 -75.333 -226 -112.666 -362 -111.999c-139.333 0 -253.166 30.667 -341.499 92s-132.5 148 -132.5 260zM408.001 331.999c0 -36.667 14 -66.667 42 -90s67.667 -35 119 -35c102.667 0 201.667 30 297 90v156h-307c-46.667 0 -83.5 -11.333 -110.5 -34
s-40.5 -51.667 -40.5 -87z" />
    <glyph glyph-name="b" unicode="b" horiz-adv-x="1355" 
d="M123 1372c0 18 5.83398 32.833 17.501 44.5s26.167 17.5 43.5 17.5h224c18 0 32.667 -5.83301 44 -17.5s17 -26.5 17 -44.5v-307c108 34 204.333 51 289 51c164 0 294.333 -48.833 391 -146.5s145 -238.5 145 -422.5c0 -378 -211.667 -567 -635 -567
c-96.667 0 -196.834 10.833 -300.501 32.5s-182.167 48.167 -235.5 79.5v1280zM469.001 834v-590.002c57.333 -15.333 127.666 -23 210.999 -23c94 0 160.5 25.667 199.5 77s58.5 134.333 58.5 249s-19.167 197.834 -57.5 249.501s-103.166 77.5 -194.499 77.5
c-58.667 0.666992 -131 -12.666 -217 -39.999z" />
    <glyph glyph-name="c" unicode="c" horiz-adv-x="1271" 
d="M61 547c0 187.333 51.668 329.002 155.001 425.002s249.666 144 438.999 144c178.667 0 317.667 -29.333 417 -88s149 -145.334 149 -260.001c0 -18 -5.83301 -32.667 -17.5 -44s-26.5 -17 -44.5 -17h-149c-45.333 0 -83.666 24.333 -114.999 73
c-39.333 62.667 -111 94 -215 94c-95.333 0 -162.833 -25.5 -202.5 -76.5s-59.5 -134.5 -59.5 -250.5c0 -114.667 20.5 -197.667 61.5 -249s111.167 -77 210.5 -77c104 0 175.667 31.333 215 94c31.333 49.333 69.666 74 114.999 74h149c18 0 32.833 -5.83301 44.5 -17.5
s17.5 -26.167 17.5 -43.5c0 -114.667 -49.5 -201.334 -148.5 -260.001s-237.833 -88 -416.5 -88c-195.333 0 -345 48 -449 144s-156 237 -156 423z" />
    <glyph glyph-name="d" unicode="d" horiz-adv-x="1355" 
d="M61 547c0 184 48.5 324.833 145.5 422.5s227.5 146.5 391.5 146.5c84.667 0 181 -17 289 -51v307c0 18 5.83301 32.833 17.5 44.5s26.167 17.5 43.5 17.5h223c18 0 32.833 -5.83301 44.5 -17.5s17.5 -26.5 17.5 -44.5v-1311c0 -18 -5.83301 -32.667 -17.5 -44
s-26.5 -17 -44.5 -17h-192c-18 -0 -32.667 5.83301 -44 17.5s-17 26.167 -17 43.5v31c-105.333 -75.333 -222.333 -112.666 -351 -111.999c-150 0 -271.833 49.167 -365.5 147.5s-140.5 238.166 -140.5 419.499zM418 547c0 -113.333 17.999 -195.998 53.999 -247.998
s95 -78 177 -78c62.667 0 142 30 238 90v523c-86 27.333 -158.333 40.666 -217 39.999c-91.333 0 -156.166 -25.833 -194.499 -77.5s-57.5 -134.834 -57.5 -249.501z" />
    <glyph glyph-name="e" unicode="e" horiz-adv-x="1290" 
d="M61 546.5c0 183 51.668 323.667 155.001 422s246.333 147.5 429 147.5c184 0 327.333 -47.833 430 -143.5s154 -232.834 154 -411.501v-57c0 -18 -5.83301 -32.833 -17.5 -44.5s-26.5 -17.5 -44.5 -17.5h-753c6.66699 -82 30.167 -141.667 70.5 -179
s102.166 -56 185.499 -56c94 0 159.333 22.333 196 67c28.667 35.333 67 53.333 115 54h149c18 0 32.833 -5.83301 44.5 -17.5s17.5 -26.5 17.5 -44.5c0 -191.333 -182.333 -286.666 -547 -285.999c-184 0 -327.333 48.667 -430 146s-154 237.5 -154 420.5zM412.001 653
h465.001c-6.66699 157.333 -83.834 236 -231.501 236s-225.5 -78.667 -233.5 -236z" />
    <glyph glyph-name="f" unicode="f" horiz-adv-x="983" 
d="M123 61l-0.00195312 881.001c0 186 42.333 317.833 127 395.5s233.334 116.5 446.001 116.5c109.333 0 198.333 -6.66699 267 -20c18 -2.66699 32.667 -9.83398 44 -21.501s17 -25.167 17 -40.5v-110c0 -18 -5.83301 -32.833 -17.5 -44.5s-26.167 -17.5 -43.5 -17.5h-37
c-13.333 0 -35.166 2.83301 -65.499 8.5s-54.5 8.5 -72.5 8.5c-132.667 0 -219 -17.833 -259 -53.5s-60 -109.5 -60 -221.5v-16h362c18 0 32.833 -5.83301 44.5 -17.5s17.5 -26.5 17.5 -44.5v-119c0 -18 -5.83301 -32.667 -17.5 -44s-26.5 -17 -44.5 -17h-362v-623
c0 -18 -5.83301 -32.667 -17.5 -44s-26.167 -17 -43.5 -17h-224c-18 0 -32.667 5.66699 -44 17s-17 26 -17 44z" />
    <glyph glyph-name="g" unicode="g" horiz-adv-x="1335" 
d="M61 596c0 165.333 52.999 293.333 158.999 384s258 136 456 136c96.667 0 197 -10.833 301 -32.5s182.333 -48.167 235 -79.5v-926c0 -148.667 -49 -258.5 -147 -329.5s-231 -106.5 -399 -106.5c-186 0 -326.833 22.167 -422.5 66.5s-143.5 117.5 -143.5 219.5
c0 18 5.83301 32.833 17.5 44.5s26.5 17.5 44.5 17.5h149c48 0 86.333 -17.667 115 -53c36.667 -45.333 108.334 -68 215.001 -68c80.667 0 138.334 15.333 173.001 46s52 85 52 163v47c-106.667 -27.333 -206.334 -41 -299.001 -41c-151.333 0 -273.5 45.667 -366.5 137
s-139.5 216.333 -139.5 375zM417.999 596c0 -180 76.999 -269.999 230.999 -269.999c64 0 136.333 10 217 30v496c-57.333 15.333 -127.666 22.666 -210.999 21.999c-158 0.666992 -237 -92 -237 -278z" />
    <glyph glyph-name="h" unicode="h" 
d="M123 61l-0.00195312 1311c0 18 5.83301 32.833 17.5 44.5s26.167 17.5 43.5 17.5h224c18 0 32.667 -5.83301 44 -17.5s17 -26.5 17 -44.5v-401c114.667 96.667 231.334 145 350.001 145c140.667 0 251.667 -39.5 333 -118.5s122 -199.833 122 -362.5v-574
c0 -18 -5.83301 -32.667 -17.5 -44s-26.5 -17 -44.5 -17h-223c-18 -0 -32.667 5.83301 -44 17.5s-17 26.167 -17 43.5v574c0 160 -63.667 239.667 -191 239c-83.333 0 -172.666 -47.667 -267.999 -143v-670c0 -18 -5.83301 -32.667 -17.5 -44s-26.167 -17 -43.5 -17h-224
c-18 0 -32.667 5.66699 -44 17s-17 26 -17 44z" />
    <glyph glyph-name="i" unicode="i" horiz-adv-x="600" 
d="M123 1305v34c0 35.333 10.167 63.333 30.5 84s48.5 31 84.5 31h124c35.333 0 63.333 -10.167 84 -30.5s31 -48.5 31 -84.5v-34c0 -35.333 -10.167 -63.333 -30.5 -84s-48.5 -31 -84.5 -31h-124c-35.333 0 -63.333 10.333 -84 31s-31 48.667 -31 84zM127 61v949
c0 18 5.83301 32.667 17.5 44s26.167 17 43.5 17h224c18 0 32.667 -5.83301 44 -17.5s17 -26.167 17 -43.5v-949c0 -18 -5.83301 -32.667 -17.5 -44s-26.167 -17 -43.5 -17h-224c-18 0 -32.667 5.66699 -44 17s-17 26 -17 44z" />
    <glyph glyph-name="j" unicode="j" horiz-adv-x="616" 
d="M-184 -168c0 18 5.66797 32.833 17.001 44.5s26 17.5 44 17.5h31c12 0 28.667 -2.5 50 -7.5s38.666 -7.5 51.999 -7.5c36.667 0 68 18.5 94 55.5s39 96.5 39 178.5v897c0 18 5.83301 32.667 17.5 44s26.5 17 44.5 17h223c18 0 32.667 -5.83301 44 -17.5
s17 -26.167 17 -43.5v-897c0 -314 -129 -471 -387 -471c-91.333 0 -166.333 6.66699 -225 20c-40.667 9.33301 -61 30 -61 62v108zM139.001 1305v34c0 35.333 10.333 63.333 31 84s48.667 31 84 31h125c35.333 0 63.333 -10.167 84 -30.5s31 -48.5 31 -84.5v-34
c0 -35.333 -10.333 -63.333 -31 -84s-48.667 -31 -84 -31h-125c-35.333 0 -63.333 10.333 -84 31s-31 48.667 -31 84z" />
    <glyph glyph-name="k" unicode="k" horiz-adv-x="1249" 
d="M123 61v1311c0 18 5.83301 32.833 17.5 44.5s26.167 17.5 43.5 17.5h224c18 0 32.667 -5.83301 44 -17.5s17 -26.5 17 -44.5v-710c116 0 195.333 45 238 135l96 204c13.333 28.667 33 51.667 59 69s54 26 84 26h189c33.333 0 50 -13 50 -39
c0 -14.667 -5.33301 -33.334 -16 -56.001l-129 -272c-22 -45.333 -52 -84.333 -90 -117s-79 -53.667 -123 -63c82 -24.667 153 -84.667 213 -180l170 -275c11.333 -19.333 17.333 -36 18 -50c0 -6 -1 -11.667 -3 -17c-6.66699 -18 -23 -27 -49 -27h-189
c-64 -0 -115 31.333 -153 94l-127 207c-54.667 88.667 -134 133 -238 133v-373c0 -18 -5.83301 -32.667 -17.5 -44s-26.167 -17 -43.5 -17h-224c-18 0 -32.667 5.66699 -44 17s-17 26 -17 44z" />
    <glyph glyph-name="l" unicode="l" horiz-adv-x="591" 
d="M123 61v1311c0 18 5.83301 32.833 17.5 44.5s26.167 17.5 43.5 17.5h224c18 0 32.667 -5.83301 44 -17.5s17 -26.5 17 -44.5v-1311c0 -18 -5.83301 -32.667 -17.5 -44s-26.167 -17 -43.5 -17h-224c-18 0 -32.667 5.66699 -44 17s-17 26 -17 44z" />
    <glyph glyph-name="m" unicode="m" horiz-adv-x="2058" 
d="M123 61l0.000976562 973.001c0 18 5.83301 32.833 17.5 44.5s26.167 17.5 43.5 17.5h224c18 0 32.667 -5.83301 44 -17.5s17 -26.5 17 -44.5v-63c48 46.667 95.167 82.5 141.5 107.5s102.166 37.5 167.499 37.5c155.333 0 273 -64 353 -192
c124 128.667 250.667 192.667 380 192c131.333 0 234.833 -39.167 310.5 -117.5s113.5 -199.5 113.5 -363.5v-574c0 -18 -5.66699 -32.667 -17 -44s-26 -17 -44 -17h-223c-18 0 -32.833 5.83301 -44.5 17.5s-17.5 26.167 -17.5 43.5v574c0 160 -58 239.667 -174 239
c-70.667 0 -143.667 -51 -219 -153c4 -28.667 6 -57.334 6 -86.001v-574c0 -18 -5.83301 -32.667 -17.5 -44s-26.167 -17 -43.5 -17h-223c-18 -0 -32.833 5.83301 -44.5 17.5s-17.5 26.167 -17.5 43.5v574c0 160 -58 239.667 -174 239c-74 0 -145 -47.667 -213 -143v-670
c0 -18 -5.83301 -32.667 -17.5 -44s-26.167 -17 -43.5 -17h-224c-18 0 -32.667 5.66699 -44 17s-17 26 -17 44z" />
    <glyph glyph-name="n" unicode="n" 
d="M123 61l-0.00195312 973c0 18 5.83301 32.833 17.5 44.5s26.167 17.5 43.5 17.5h224c18 0 32.667 -5.83301 44 -17.5s17 -26.5 17 -44.5v-63c114.667 96.667 231.334 145 350.001 145c140.667 0 251.667 -39.5 333 -118.5s122 -199.833 122 -362.5v-574
c0 -18 -5.83301 -32.667 -17.5 -44s-26.5 -17 -44.5 -17h-223c-18 -0 -32.667 5.83301 -44 17.5s-17 26.167 -17 43.5v574c0 160 -63.667 239.667 -191 239c-83.333 0 -172.666 -47.667 -267.999 -143v-670c0 -18 -5.83301 -32.667 -17.5 -44s-26.167 -17 -43.5 -17h-224
c-18 0 -32.667 5.66699 -44 17s-17 26 -17 44z" />
    <glyph glyph-name="o" unicode="o" horiz-adv-x="1331" 
d="M61 548.5c0 187 52 328.333 156 424s253.5 143.5 448.5 143.5s344.5 -47.833 448.5 -143.5s156 -237 156 -424s-52 -328.5 -156 -424.5s-253.5 -144 -448.5 -144s-344.5 48 -448.5 144s-156 237.5 -156 424.5zM408 549c0 -118.667 20.667 -205.334 62 -260.001
s106.5 -82 195.5 -82s154.333 27.333 196 82s62.5 141.334 62.5 260.001s-20.833 205 -62.5 259s-107 81 -196 81s-154.167 -27 -195.5 -81s-62 -140.333 -62 -259z" />
    <glyph glyph-name="p" unicode="p" horiz-adv-x="1355" 
d="M123 -276v1310c0 18 5.83301 32.833 17.5 44.5s26.167 17.5 43.5 17.5h193c18 0 32.667 -5.83301 44 -17.5s17 -26.5 17 -44.5v-30c105.333 75.333 222 112.666 350 111.999c150 0 271.833 -49.167 365.5 -147.5s140.5 -238.166 140.5 -419.499
c0 -184 -48.333 -324.833 -145 -422.5s-227 -146.5 -391 -146.5c-84.667 0 -181 17 -289 51v-307c0 -18 -5.83301 -32.833 -17.5 -44.5s-26.167 -17.5 -43.5 -17.5h-224c-18 0 -32.667 5.83301 -44 17.5s-17 26.5 -17 44.5zM469 262c86 -27.333 158.333 -41 217 -41
c91.333 0 156.166 26 194.499 78s57.5 135.333 57.5 250c0 113.333 -18.167 195.833 -54.5 247.5s-95.166 77.5 -176.499 77.5c-62.667 0 -142 -30 -238 -90v-522z" />
    <glyph glyph-name="q" unicode="q" horiz-adv-x="1355" 
d="M61 549c0 378 211.667 567 635 567c96.667 0 197 -10.833 301 -32.5s182.667 -48.167 236 -79.5v-1280c0 -18 -5.83301 -32.833 -17.5 -44.5s-26.5 -17.5 -44.5 -17.5h-223c-18 0 -32.667 5.83301 -44 17.5s-17 26.5 -17 44.5v307c-108 -34 -204.333 -51 -289 -51
c-164 0 -294.5 48.833 -391.5 146.5s-145.5 238.5 -145.5 422.5zM418 549c0 -114.667 18.999 -197.999 56.999 -249.999s103 -78 195 -78c58.667 0 131 13.667 217 41v590c-57.333 15.333 -127.666 22.666 -210.999 21.999c-94 0 -160.5 -25.5 -199.5 -76.5
s-58.5 -133.833 -58.5 -248.5z" />
    <glyph glyph-name="r" unicode="r" horiz-adv-x="995" 
d="M123 61v973c0 18 5.83301 32.833 17.5 44.5s26.167 17.5 43.5 17.5h224c18 0 32.667 -5.83301 44 -17.5s17 -26.5 17 -44.5v-63c68 49.333 133.5 85.833 196.5 109.5s145.5 35.5 247.5 35.5c18 0 32.833 -5.83301 44.5 -17.5s17.5 -26.167 17.5 -43.5v-152
c0 -18 -5.83301 -32.667 -17.5 -44s-26.5 -17 -44.5 -17h-32c-15.333 0 -40.333 1 -75 3s-61 3 -79 3c-90 0 -176 -49.333 -258 -148v-639c0 -18 -5.83301 -32.667 -17.5 -44s-26.167 -17 -43.5 -17h-224c-18 0 -32.667 5.66699 -44 17s-17 26 -17 44z" />
    <glyph glyph-name="s" unicode="s" horiz-adv-x="1224" 
d="M61 793c0 216 173.669 323.666 521.002 322.999c365.333 0 548 -95.667 548 -287c0 -18 -5.66699 -32.667 -17 -44s-26 -17 -44 -17h-149c-48 0 -86.333 17.667 -115 53c-36.667 45.333 -103 68 -199 68c-132.667 0 -198.667 -32 -198 -96c0 -30 25.833 -55 77.5 -75
s114.667 -37.5 189 -52.5s148.5 -34.167 222.5 -57.5s136.833 -60.5 188.5 -111.5s77.5 -115.5 77.5 -193.5c0 -216 -183.667 -323.667 -551 -323c-366 0 -549 95.333 -549 286c0 18 5.83301 32.833 17.5 44.5s26.5 17.5 44.5 17.5h149c48 0 86.333 -18 115 -54
c36.667 -45.333 103 -67.666 199 -66.999c152.667 0 229 32 229 96c0 30 -25.833 55 -77.5 75s-114.834 37.833 -189.501 53.5s-148.834 35 -222.501 58s-136.5 60.167 -188.5 111.5s-78 115.333 -78 192z" />
    <glyph glyph-name="t" unicode="t" horiz-adv-x="921" 
d="M123 430v941.999c0 18 5.83301 32.833 17.5 44.5s26.167 17.5 43.5 17.5h224c18 0 32.667 -5.83301 44 -17.5s17 -26.5 17 -44.5v-334h279c18 0 32.667 -5.66699 44 -17s17 -26 17 -44v-119c0 -18 -5.83301 -32.667 -17.5 -44s-26.167 -17 -43.5 -17h-279v-367
c0 -68 16 -120.5 48 -157.5s74.667 -55.5 128 -55.5c18 0 42 2 72 6s51.667 6 65 6h37c18 0 32.833 -5.66699 44.5 -17s17.5 -26 17.5 -44v-107c0 -15.333 -5.83301 -28.666 -17.5 -39.999s-26.5 -18.333 -44.5 -21c-68 -13.333 -156.667 -20 -266 -20
c-286.667 -0.666992 -430 149.333 -430 450z" />
    <glyph glyph-name="u" unicode="u" 
d="M123 461l0.000976562 573c0 18 5.83301 32.833 17.5 44.5s26.167 17.5 43.5 17.5h224c18 0 32.667 -5.83301 44 -17.5s17 -26.5 17 -44.5v-573c0 -160 63.333 -240 190 -240c83.333 0 173 48 269 144v669c0 18 5.83301 32.833 17.5 44.5s26.167 17.5 43.5 17.5h223
c18 0 32.833 -5.83301 44.5 -17.5s17.5 -26.5 17.5 -44.5v-973c0 -18 -5.83301 -32.667 -17.5 -44s-26.5 -17 -44.5 -17h-223c-18 -0 -32.667 5.83301 -44 17.5s-17 26.167 -17 43.5v64c-114.667 -96.667 -231.334 -145 -350.001 -145c-140.667 0 -251.667 39.5 -333 118.5
s-122 199.833 -122 362.5z" />
    <glyph glyph-name="v" unicode="v" horiz-adv-x="1343" 
d="M26 1070c7.33301 17.333 22.668 26 46.001 26h192c28.667 0 55.667 -8.16699 81 -24.5s43.333 -37.5 54 -63.5l273 -623l272 623c10.667 26 28.667 47.167 54 63.5s52.333 24.5 81 24.5h193c23.333 0 38.666 -8.66699 45.999 -26
c3.33301 -6.66699 4.66602 -14.334 3.99902 -23.001c0 -12 -3 -25 -9 -39l-432 -920c-12 -26 -30.833 -47.167 -56.5 -63.5s-52.167 -24.5 -79.5 -24.5h-147c-27.333 0 -53.666 8.16699 -78.999 24.5s-44 37.5 -56 63.5l-432 920c-6.66699 14.667 -10 27.667 -10 39
c0 8.66699 1.66699 16.334 5 23.001z" />
    <glyph glyph-name="w" unicode="w" horiz-adv-x="1839" 
d="M29 1008c-5.33301 17.333 -8.33398 31.667 -9.00098 43c0 29.333 16.667 44.333 50 45h186c31.333 0 59.333 -7.83301 84 -23.5s41.667 -37.167 51 -64.5l164 -539l162 539c18 58.667 56 88 114 88h177c58.667 0 96.667 -29.333 114 -88l162 -539l164 539
c9.33301 27.333 26.333 48.833 51 64.5s52.667 23.5 84 23.5h186c32.667 0 49.334 -15 50.001 -45c0 -12 -3 -26.333 -9 -43l-303 -920c-9.33301 -27.333 -26 -48.833 -50 -64.5s-49.667 -23.5 -77 -23.5h-141c-27.333 0 -53.333 8.16699 -78 24.5s-41 37.5 -49 63.5
l-192 596l-193 -596c-8 -26 -24.333 -47.167 -49 -63.5s-50.667 -24.5 -78 -24.5h-141c-27.333 -0 -53 7.83301 -77 23.5s-40.667 37.167 -50 64.5z" />
    <glyph glyph-name="x" unicode="x" horiz-adv-x="1277" 
d="M34 31c-2 6 -3 11.667 -3 17c0 14 5.33301 27.333 16 40l348 461l-325 459c-9.33301 13.333 -14.5 26.5 -15.5 39.5s2.66699 24.333 11 34s19.833 14.5 34.5 14.5h217c64 0 116 -29.333 156 -88l166 -252l166 252c39.333 58.667 91.333 88 156 88h217
c15.333 0 27 -4.83301 35 -14.5s11.667 -21 11 -34s-6 -26.167 -16 -39.5l-325 -459l348 -461c10.667 -12.667 16 -26 16 -40c0 -6 -1 -11.667 -3 -17c-6 -20.667 -20.667 -31 -44 -31h-213c-61.333 -0 -113.333 29.333 -156 88l-192 260l-193 -260
c-42 -58.667 -93.667 -88 -155 -88h-213c-23.333 -0 -38 10.333 -44 31z" />
    <glyph glyph-name="y" unicode="y" horiz-adv-x="1294" 
d="M35 1036c-2 5.33301 -3.00195 10.332 -3.00195 14.999c0 9.33301 3.33301 18 10 26c10 12 23.333 18.333 40 19h209c19.333 0 37.833 -6.5 55.5 -19.5s29.167 -29.167 34.5 -48.5l131 -424c32.667 -104 65.834 -176 99.501 -216s73.5 -60 119.5 -60l199 700
c5.33301 19.333 15.833 35.5 31.5 48.5s33.167 19.5 52.5 19.5h211c16.667 0 29.667 -6.33301 39 -19c6.66699 -8.66699 10 -18 10 -28c0 -4 -0.666992 -8.33301 -2 -13l-262 -934c-46.667 -165.333 -104.5 -283.333 -173.5 -354s-161.5 -106 -277.5 -106
c-101.333 0 -188 6.66699 -260 20c-18 2.66699 -32.667 9.83398 -44 21.501s-17 25.167 -17 40.5v110c0 18 5.66699 32.833 17 44.5s26 17.5 44 17.5h37c15.333 0 36.833 -2.83301 64.5 -8.5s49.834 -8.5 66.501 -8.5c94 0 159.667 69 197 207
c-113.333 0 -208 34.167 -284 102.5s-141.333 189.833 -196 364.5z" />
    <glyph glyph-name="z" unicode="z" horiz-adv-x="1144" 
d="M51 915v119c0 18 5.83301 32.833 17.5 44.5s26.5 17.5 44.5 17.5h911c18 0 32.667 -5.83301 44 -17.5s17 -26.5 17 -44.5v-96c0 -49.333 -23.667 -97.666 -71 -144.999l-545 -551h563c18 0 32.833 -5.83301 44.5 -17.5s17.5 -26.5 17.5 -44.5v-119
c0 -18 -5.83301 -32.667 -17.5 -44s-26.5 -17 -44.5 -17h-919c-18 0 -32.833 5.83301 -44.5 17.5s-17.5 26.167 -17.5 43.5v97c0 49.333 24 97.666 72 144.999l526 551h-536c-18 0 -32.833 5.66699 -44.5 17s-17.5 26 -17.5 44z" />
    <glyph glyph-name="braceleft" unicode="{" horiz-adv-x="841" 
d="M20 565v119c0 18 5.83301 32.667 17.5 44s26.5 17 44.5 17h41c31.333 0 58.333 12 81 36s34 53.667 34 89v248c0 136.667 38.833 237.167 116.5 301.5s180.167 96.5 307.5 96.5h98c18 0 32.667 -5.83301 44 -17.5s17 -26.5 17 -44.5v-108
c0 -18 -5.83301 -32.833 -17.5 -44.5s-26.167 -17.5 -43.5 -17.5h-41c-44 0 -81.667 -17 -113 -51s-47 -79.667 -47 -137v-195c0 -76.667 -20.833 -138.834 -62.5 -186.501s-95.834 -77.5 -162.501 -89.5c66.667 -12 120.834 -42 162.501 -90s62.5 -110.333 62.5 -187v-194
c0 -57.333 15.667 -103.166 47 -137.499s69 -51.5 113 -51.5h41c18 0 32.667 -5.83301 44 -17.5s17 -26.167 17 -43.5v-109c0 -18 -5.83301 -32.667 -17.5 -44s-26.167 -17 -43.5 -17h-98c-126.667 0 -229 32 -307 96s-117 164.333 -117 301v248c0 35.333 -11.333 65 -34 89
s-49.667 36 -81 36h-41c-18 0 -32.833 5.66699 -44.5 17s-17.5 26 -17.5 44z" />
    <glyph glyph-name="bar" unicode="|" horiz-adv-x="632" 
d="M143 -276v1648c0 18 5.83301 32.833 17.5 44.5s26.5 17.5 44.5 17.5h223c18 0 32.667 -5.83301 44 -17.5s17 -26.5 17 -44.5v-1648c0 -18 -5.66699 -32.833 -17 -44.5s-26 -17.5 -44 -17.5h-223c-18 0 -32.833 5.83301 -44.5 17.5s-17.5 26.5 -17.5 44.5z" />
    <glyph glyph-name="braceright" unicode="}" horiz-adv-x="841" 
d="M20 -96c0 18 5.83301 32.665 17.5 43.998s26.5 17 44.5 17h41c44 0 81.667 17.167 113 51.5s47 80.166 47 137.499v194c0 76.667 20.833 138.834 62.5 186.501s95.834 77.834 162.501 90.501c-66.667 12 -120.834 41.833 -162.501 89.5s-62.5 109.834 -62.5 186.501v195
c0 57.333 -15.833 103 -47.5 137s-69.167 51 -112.5 51h-41c-18 0 -32.833 5.83301 -44.5 17.5s-17.5 26.5 -17.5 44.5v108c0 18 5.83301 32.833 17.5 44.5s26.5 17.5 44.5 17.5h98c126.667 0 229 -32.167 307 -96.5s117 -164.833 117 -301.5v-248
c0 -35.333 11.333 -65 34 -89s49.667 -36 81 -36h41c18 0 32.667 -5.66699 44 -17s17 -26 17 -44v-119c0 -18 -5.83301 -32.667 -17.5 -44s-26.167 -17 -43.5 -17h-41c-31.333 0 -58.333 -12 -81 -36s-34 -53.667 -34 -89v-248c0 -136.667 -38.833 -237 -116.5 -301
s-180.167 -96 -307.5 -96h-98c-18 0 -32.833 5.83301 -44.5 17.5s-17.5 26.167 -17.5 43.5v109z" />
    <glyph glyph-name="asciitilde" unicode="~" horiz-adv-x="1216" 
d="M61 555c0 90 26.665 160 79.998 210s126.333 75 219 75c80.667 0 160.334 -17.167 239.001 -51.5s142.667 -51.5 192 -51.5c50.667 0 90.834 12.667 120.501 38s61.167 38 94.5 38h98c15.333 0 27.666 -5.16699 36.999 -15.5s14 -22.166 14 -35.499
c0 -90 -26.667 -160 -80 -210s-126.333 -75 -219 -75c-80.667 0 -160.167 17.167 -238.5 51.5s-142.166 51.5 -191.499 51.5c-50.667 0 -91 -12.667 -121 -38s-61.333 -38 -94 -38h-98c-15.333 0 -27.833 4.66699 -37.5 14s-14.5 21.666 -14.5 36.999z" />
    <glyph glyph-name="uni00A0" unicode="&#xa0;" horiz-adv-x="716" 
 />
    <glyph glyph-name="exclamdown" unicode="&#xa1;" horiz-adv-x="653" 
d="M125 -244l29 822c1.33301 26 10.833 47.833 28.5 65.5s39.5 26.5 65.5 26.5h157c26 0 48 -9 66 -27s27.667 -39.667 29 -65l28 -822c1.33301 -26 -7.5 -48.167 -26.5 -66.5s-41.5 -27.5 -67.5 -27.5h-215c-26 0 -48.5 9.16699 -67.5 27.5s-27.833 40.5 -26.5 66.5z
M131 907l0.000976562 63.999c0 44 11.667 77.5 35 100.5s56.666 34.5 99.999 34.5h123c44 0 77.5 -11.667 100.5 -35s34.5 -56.666 34.5 -99.999v-64c0 -42 -11.5 -75 -34.5 -99s-56.5 -36 -100.5 -36h-123c-44 0 -77.5 12 -100.5 36s-34.5 57 -34.5 99z" />
    <glyph glyph-name="cent" unicode="&#xa2;" horiz-adv-x="1271" 
d="M61 547c0 152.667 35.168 275.831 105.501 369.498s171.833 154.167 304.5 181.5v90c0 18 5.83301 32.667 17.5 44s26.167 17 43.5 17h224c18 0 32.667 -5.83301 44 -17.5s17 -26.167 17 -43.5v-82c130 -15.333 229.833 -51.666 299.5 -108.999
s104.5 -133.666 104.5 -228.999c0 -18 -5.83301 -32.667 -17.5 -44s-26.5 -17 -44.5 -17h-149c-45.333 0 -83.666 24.333 -114.999 73c-39.333 62.667 -111 94 -215 94c-95.333 0 -162.833 -25.5 -202.5 -76.5s-59.5 -134.5 -59.5 -250.5
c0 -114.667 20.5 -197.667 61.5 -249s111.167 -77 210.5 -77c104 0 175.667 31.333 215 94c31.333 49.333 69.666 74 114.999 74h149c18 0 32.833 -5.83301 44.5 -17.5s17.5 -26.167 17.5 -43.5c0 -98 -35.833 -175.5 -107.5 -232.5s-173.834 -92.833 -306.501 -107.5v-80
c0 -18 -5.83301 -32.833 -17.5 -44.5s-26.167 -17.5 -43.5 -17.5h-224c-18 0 -32.667 5.83301 -44 17.5s-17 26.5 -17 44.5v90c-273.333 58.667 -410 241.667 -410 549z" />
    <glyph glyph-name="sterling" unicode="&#xa3;" horiz-adv-x="1310" 
d="M20 61l-0.00292969 115.002c0 18 5.83301 32.833 17.5 44.5s26.5 17.5 44.5 17.5h31c36.667 0 68 18.333 94 55s39 96 39 178v471c0 186 42.333 317.833 127 395.5s233.334 116.5 446.001 116.5c109.333 0 198 -6.66699 266 -20
c18 -2.66699 32.833 -9.83398 44.5 -21.501s17.5 -25.167 17.5 -40.5v-110c0 -18 -5.83301 -32.833 -17.5 -44.5s-26.5 -17.5 -44.5 -17.5h-36c-13.333 0 -35.166 2.83301 -65.499 8.5s-54.5 8.5 -72.5 8.5c-132.667 0 -219 -17.833 -259 -53.5s-60 -109.5 -60 -221.5v-57
h301c18 0 32.667 -5.83301 44 -17.5s17 -26.5 17 -44.5v-118c0 -18 -5.66699 -32.833 -17 -44.5s-26 -17.5 -44 -17.5h-301v-151c0 -39.333 -5.16699 -78 -15.5 -116s-20.166 -65.667 -29.499 -83l-15 -27h664c26 0 48.167 -9.16699 66.5 -27.5s27.5 -40.5 27.5 -66.5v-78
c0 -26 -9.16699 -48.167 -27.5 -66.5s-40.5 -27.5 -66.5 -27.5h-1114c-41.333 9.33301 -62 29.666 -62 60.999z" />
    <glyph glyph-name="currency" unicode="&#xa4;" horiz-adv-x="1683" 
d="M20 590v35h1215c39.333 -15.333 77.5 -44.5 114.5 -87.5s78.833 -101.5 125.5 -175.5l170 -268c11.333 -19.333 17 -36 17 -50c0 -6 -1 -11.667 -3 -17c-6.66699 -18 -23 -27 -49 -27h-240c-26 0 -54 9.16699 -84 27.5s-53 40.5 -69 66.5l-170 266
c-69.333 109.333 -154 164 -254 164h-244v-430c0 -26 -9.16699 -48.167 -27.5 -66.5s-40.5 -27.5 -66.5 -27.5h-189c-26 0 -48.167 9.16699 -66.5 27.5s-27.5 40.5 -27.5 66.5v434h-90c-18 0 -32.833 5.83301 -44.5 17.5s-17.5 26.5 -17.5 44.5zM20 672l0.000976562 35.001
c0 18 5.83301 32.667 17.5 44s26.5 17 44.5 17h90v571c0 26 8.83301 48.333 26.5 67s39.5 28 65.5 28h826c151.333 0 276.166 -38 374.499 -114s147.5 -176 147.5 -300c0 -100 -34.5 -178.333 -103.5 -235s-160.167 -94.334 -273.5 -113.001h-1215zM549.001 807.001h426
c68 0 128.333 13.667 181 41s79 71 79 131s-26.333 103.667 -79 131s-113 41 -181 41h-426v-344z" />
    <glyph glyph-name="yen" unicode="&#xa5;" horiz-adv-x="1519" 
d="M23 1404c6.66699 20 23 29.999 49 29.999h190c75.333 0 133.333 -31.667 174 -95l324 -499l323 499c40.667 62.667 98.667 94.334 174 95.001h191c26 0 42.333 -10 49 -30c2 -6 3 -12 3 -18c0 -14.667 -5.66699 -30.334 -17 -47.001l-430 -663h127
c18 0 32.667 -5.83301 44 -17.5s17 -26.5 17 -44.5v-47h-258l-35 -55h293v-47c0 -18 -5.83301 -32.833 -17.5 -44.5s-26.167 -17.5 -43.5 -17.5h-232v-311c0 -26 -9.16699 -47.833 -27.5 -65.5s-40.5 -26.5 -66.5 -26.5h-188c-26 0 -48.333 8.83301 -67 26.5
s-28 39.5 -28 65.5v311h-231c-18 0 -32.667 5.83301 -44 17.5s-17 26.5 -17 44.5v47h292l-36 55h-256v47c0 18 5.66699 32.833 17 44.5s26 17.5 44 17.5h125l-428 663c-11.333 16.667 -17 32.334 -17 47.001c0 6 1 12 3 18z" />
    <glyph glyph-name="brokenbar" unicode="&#xa6;" horiz-adv-x="591" 
d="M123 -276v696c0 18 5.83301 32.667 17.5 44s26.167 17 43.5 17h224c18 0 32.667 -5.83301 44 -17.5s17 -26.167 17 -43.5v-696c0 -18 -5.83301 -32.833 -17.5 -44.5s-26.167 -17.5 -43.5 -17.5h-224c-18 0 -32.667 5.83301 -44 17.5s-17 26.5 -17 44.5zM123 676v696
c0 18 5.83301 32.833 17.5 44.5s26.167 17.5 43.5 17.5h224c18 0 32.667 -5.83301 44 -17.5s17 -26.5 17 -44.5v-696c0 -18 -5.83301 -32.833 -17.5 -44.5s-26.167 -17.5 -43.5 -17.5h-224c-18 0 -32.667 5.83301 -44 17.5s-17 26.5 -17 44.5z" />
    <glyph glyph-name="section" unicode="&#xa7;" horiz-adv-x="1286" 
d="M82 588c0 112 40.335 200 121.002 264c-66.667 62.667 -100.334 138.334 -101.001 227.001c0 250 180.333 375 541 375c359.333 0 539 -95.667 539 -287c0 -18 -5.83301 -32.667 -17.5 -44s-26.5 -17 -44.5 -17h-149c-48 0 -86.333 17.667 -115 53
c-36.667 45.333 -99.334 68 -188.001 68c-80.667 0 -137.334 -10.667 -170.001 -32s-49 -56.333 -49 -105c0 -35.333 18.667 -65.666 56 -90.999s84 -44.833 140 -58.5s116.5 -31.5 181.5 -53.5s125.5 -46.333 181.5 -73s102.667 -66.334 140 -119.001s56 -115 56 -187
c0 -112 -40.333 -200.667 -121 -266c66.667 -62.667 100.334 -138 101.001 -226c0 -250 -180.333 -374.667 -541 -374c-359.333 0 -539 95.333 -539 286c0 18 5.83301 32.833 17.5 44.5s26.5 17.5 44.5 17.5h149c48 0 86.333 -17.667 115 -53
c36.667 -45.333 99.334 -68 188.001 -68c80.667 0 137.5 10.5 170.5 31.5s49.5 56.167 49.5 105.5c0 35.333 -18.833 65.666 -56.5 90.999s-84.5 44.833 -140.5 58.5s-116.5 31.5 -181.5 53.5s-125.333 46.333 -181 73s-102.334 66.167 -140.001 118.5
s-56.5 114.833 -56.5 187.5zM428.002 588c0 -19.333 5.83301 -36.5029 17.5 -51.5029s32.5 -29.667 62.5 -44s55.833 -25.666 77.5 -33.999s57.5 -20.166 107.5 -35.499l108 -34c38 20.667 57 60.334 57 119.001c0 13.333 -3.33301 25.833 -10 37.5s-17.167 22.667 -31.5 33
s-29.333 19.5 -45 27.5s-36.167 16.833 -61.5 26.5s-48.333 17.5 -69 23.5l-79 25l-79 26c-36.667 -23.333 -55 -63 -55 -119z" />
    <glyph glyph-name="dieresis" unicode="&#xa8;" horiz-adv-x="827" 
d="M0 1300v39c0 35.333 10.167 63.333 30.5 84s48.5 31 84.5 31h96c35.333 0 63.333 -10.167 84 -30.5s31 -48.5 31 -84.5v-39c0 -35.333 -10.333 -63.166 -31 -83.499s-48.667 -30.5 -84 -30.5h-96c-35.333 0 -63.333 10.167 -84 30.5s-31 48.166 -31 83.499zM502 1300v39
c0 35.333 10.167 63.333 30.5 84s48.166 31 83.499 31h97c35.333 0 63.166 -10.167 83.499 -30.5s30.5 -48.5 30.5 -84.5v-39c0 -35.333 -10.167 -63.166 -30.5 -83.499s-48.166 -30.5 -83.499 -30.5h-97c-35.333 0 -63.166 10.167 -83.499 30.5s-30.5 48.166 -30.5 83.499z
" />
    <glyph glyph-name="copyright" unicode="&#xa9;" horiz-adv-x="1740" 
d="M61 655.5c0 249.667 72.833 445.167 218.5 586.5s342.667 212 591 212s445.166 -70.667 590.499 -212s218 -336.833 218 -586.5s-72.667 -445.167 -218 -586.5s-342.166 -212 -590.499 -212s-445.333 70.667 -591 212s-218.5 336.833 -218.5 586.5zM311 655.5
c0 -179 48.833 -321 146.5 -426s235.334 -157.5 413.001 -157.5s315.334 52.5 413.001 157.5s146.5 247 146.5 426s-48.833 321 -146.5 426s-235.334 157.5 -413.001 157.5s-315.334 -52.5 -413.001 -157.5s-146.5 -247 -146.5 -426zM481 653
c0 121.333 33.5 213.5 100.5 276.5s161.833 94.5 284.5 94.5c116 0 206.167 -19.167 270.5 -57.5s96.5 -94.833 96.5 -169.5c0 -10.667 -4.16699 -19.834 -12.5 -27.501s-17.833 -11.5 -28.5 -11.5h-96c-28.667 0 -53.334 15.667 -74.001 47c-24.667 40.667 -71 61 -139 61
c-62.667 0 -106.667 -16.667 -132 -50s-38 -87.5 -38 -162.5s13 -129 39 -162s71.667 -49.5 137 -49.5c66.667 0 113 20.667 139 62c19.333 32.667 44 49 74 49h98c10.667 0 19.834 -4.16699 27.501 -12.5s11.5 -17.833 11.5 -28.5c0 -75.333 -31.667 -131.666 -95 -168.999
s-154 -56 -272 -56c-126.667 0 -223.5 31 -290.5 93s-100.5 153 -100.5 273z" />
    <glyph glyph-name="ordfeminine" unicode="&#xaa;" horiz-adv-x="731" 
d="M41 991c0 128.667 88.668 193.004 266.001 193.004h195v16c0 27.333 -8.16699 49.5 -24.5 66.5s-38.833 25.5 -67.5 25.5h-60c-44 0 -78.667 -11.667 -104 -35c-2.66699 -2.66699 -7.83398 -7.33398 -15.501 -14.001s-13.5 -11.334 -17.5 -14.001
s-9.5 -5.33398 -16.5 -8.00098s-14.5 -4 -22.5 -4h-61c-9.33301 0 -19.166 3.66699 -29.499 11s-15.5 20 -15.5 38c0 46.667 29.333 87 88 121s120.667 51 186 51h61c91.333 0 162 -22.167 212 -66.5s75 -100.833 75 -169.5v-360c0 -10.667 -4 -20.167 -12 -28.5
s-18.333 -12.5 -31 -12.5h-104c-10.667 0 -20.167 3.66699 -28.5 11s-12.5 17.333 -12.5 30v28c-50.667 -48 -112.334 -71.667 -185.001 -71h-30c-68 0 -126 14.667 -174 44s-72 78.666 -72 147.999zM238.001 991.504c0 -38.333 21.001 -57.5 63.001 -57.5h47
c65.333 0 116.666 19.667 153.999 59v56h-201c-42 0 -63 -19.167 -63 -57.5z" />
    <glyph glyph-name="guillemotleft" unicode="&#xab;" horiz-adv-x="1019" 
d="M41 537v49c0 27.333 13 58 39 92l205 262c23.333 30 50.666 45 81.999 45h122c20.667 0 33 -7.83301 37 -23.5s-1.33301 -35.167 -16 -58.5l-209 -342l209 -342c15.333 -23.333 20.833 -42.833 16.5 -58.5s-16.833 -23.5 -37.5 -23.5h-122
c-31.333 0 -58.666 15 -81.999 45l-205 262c-26 34.667 -39 65.667 -39 93zM492 537v49c0 27.333 12.667 58 38 92l205 262c23.333 30 50.666 45 81.999 45h123c20.667 0 33 -7.66699 37 -23c0.666992 -3.33301 1 -7 1 -11c0 -13.333 -5.66699 -29.333 -17 -48l-209 -342
l209 -342c12 -18 17.667 -34 17 -48c0 -4 -0.333008 -7.33301 -1 -10c-4 -16 -16.333 -24 -37 -24h-123c-31.333 0 -58.666 15 -81.999 45l-205 262c-25.333 34.667 -38 65.667 -38 93z" />
    <glyph glyph-name="logicalnot" unicode="&#xac;" horiz-adv-x="1157" 
d="M41 795v53c0 26 9.16699 48.167 27.5 66.5s40.5 27.5 66.5 27.5h887c26 0 48.167 -8.83301 66.5 -26.5s27.5 -39.5 27.5 -65.5v-348c0 -27.333 -9.16699 -50.166 -27.5 -68.499s-40.5 -27.5 -66.5 -27.5h-86c-26 0 -48.167 9.16699 -66.5 27.5s-27.5 41.166 -27.5 68.499
v198h-707c-26 0 -48.167 9.33301 -66.5 28s-27.5 41 -27.5 67z" />
    <glyph glyph-name="uni00AD" unicode="&#xad;" horiz-adv-x="958" 
d="M41 569v119c0 18 5.83301 32.833 17.5 44.5s26.167 17.5 43.5 17.5h754c18 0 32.833 -5.83301 44.5 -17.5s17.5 -26.5 17.5 -44.5v-119c0 -18 -5.83301 -32.667 -17.5 -44s-26.5 -17 -44.5 -17h-754c-18 0 -32.667 5.66699 -44 17s-17 26 -17 44z" />
    <glyph glyph-name="registered" unicode="&#xae;" horiz-adv-x="1740" 
d="M61 655.5c0 249.667 72.833 445.167 218.5 586.5s342.667 212 591 212s445.166 -70.667 590.499 -212s218 -336.833 218 -586.5s-72.667 -445.167 -218 -586.5s-342.166 -212 -590.499 -212s-445.333 70.667 -591 212s-218.5 336.833 -218.5 586.5zM311 655.5
c0 -179 48.833 -321 146.5 -426s235.334 -157.5 413.001 -157.5s315.334 52.5 413.001 157.5s146.5 247 146.5 426s-48.833 321 -146.5 426s-235.334 157.5 -413.001 157.5s-315.334 -52.5 -413.001 -157.5s-146.5 -247 -146.5 -426zM514 336l0.000976562 643
c0 13.333 4.83301 24.5 14.5 33.5s21.167 13.5 34.5 13.5h432c79.333 0 144.666 -21.167 195.999 -63.5s77 -98.833 77 -169.5c0 -101.333 -65.667 -164.333 -197 -189c35.333 -13.333 75 -53 119 -119l96 -149c7.33301 -12.667 11 -22.667 11 -30
c0 -12.667 -9.66699 -19 -29 -19h-125c-34 0 -61.333 16.333 -82 49l-88 137c-36.667 56 -81 84 -133 84h-129v-221c0 -13.333 -4.83301 -24.833 -14.5 -34.5s-21.167 -14.5 -34.5 -14.5h-99c-13.333 0 -24.833 4.83301 -34.5 14.5s-14.5 21.167 -14.5 34.5zM711.001 702
l223 -0.000976562c36.667 0 68.667 7.16699 96 21.5s41 37.333 41 69s-13.667 54.334 -41 68.001s-59.333 20.5 -96 20.5h-223v-179z" />
    <glyph glyph-name="degree" unicode="&#xb0;" horiz-adv-x="819" 
d="M61 1122.5c0 102.333 33.167 183.166 99.5 242.499s149.333 89 249 89s182.667 -29.667 249 -89s99.5 -140.166 99.5 -242.499s-33.167 -183.166 -99.5 -242.499s-149.333 -89 -249 -89s-182.667 29.667 -249 89s-99.5 140.166 -99.5 242.499zM274 1122
c0 -52 12.333 -92.667 37 -122s57.5 -44 98.5 -44s73.833 14.667 98.5 44s37 70 37 122s-12.333 92.667 -37 122s-57.5 44 -98.5 44s-73.833 -14.667 -98.5 -44s-37 -70 -37 -122z" />
    <glyph glyph-name="plusminus" unicode="&#xb1;" horiz-adv-x="958" 
d="M41 657v119c0 18 5.83301 32.833 17.5 44.5s26.167 17.5 43.5 17.5h250v249c0 18 5.83301 32.833 17.5 44.5s26.5 17.5 44.5 17.5h118c18 0 32.833 -5.83301 44.5 -17.5s17.5 -26.5 17.5 -44.5v-249h262c18 0 32.833 -5.83301 44.5 -17.5s17.5 -26.5 17.5 -44.5v-119
c0 -18 -5.83301 -32.667 -17.5 -44s-26.5 -17 -44.5 -17h-262v-182h262c18 0 32.833 -5.83301 44.5 -17.5s17.5 -26.5 17.5 -44.5v-119c0 -18 -5.83301 -32.667 -17.5 -44s-26.5 -17 -44.5 -17h-754c-18 0 -32.667 5.83301 -44 17.5s-17 26.167 -17 43.5v119
c0 18 5.83301 32.833 17.5 44.5s26.167 17.5 43.5 17.5h250v182h-250c-18 0 -32.667 5.66699 -44 17s-17 26 -17 44z" />
    <glyph glyph-name="uni00B2" unicode="&#xb2;" horiz-adv-x="704" 
d="M41 842v62.999c0 44 10.5 81.667 31.5 113s48 54.833 81 70.5s67.833 29.667 104.5 42s71.5 21.833 104.5 28.5s60 15.834 81 27.501s31.5 25.167 31.5 40.5c0 44 -36.667 65.667 -110 65h-33c-57.333 0 -95 -18.333 -113 -55c-13.333 -27.333 -33 -41 -59 -41h-74
c-9.33301 0 -19.166 3.83301 -29.499 11.5s-15.5 20.167 -15.5 37.5c0 58.667 28.667 105.5 86 140.5s120.666 52.5 189.999 52.5h60c191.333 0 287 -70.333 287 -211c0 -53.333 -21.5 -96 -64.5 -128s-90.833 -52.833 -143.5 -62.5s-100.5 -21.667 -143.5 -36
s-64.5 -32.5 -64.5 -54.5h366c12 0 22.167 -4 30.5 -12s12.5 -18.333 12.5 -31v-61c0 -10.667 -4 -20.167 -12 -28.5s-18.333 -12.5 -31 -12.5h-530c-12 0 -22.167 4.16699 -30.5 12.5s-12.5 17.833 -12.5 28.5z" />
    <glyph glyph-name="uni00B3" unicode="&#xb3;" horiz-adv-x="716" 
d="M41 979c0 18 5.16699 30.6641 15.5 37.9971s20.166 11 29.499 11h61c8 0 15.833 -2 23.5 -6s13.334 -7.33301 17.001 -10s9.5 -8.83398 17.5 -18.501s12.667 -15.167 14 -16.5c20.667 -23.333 55.667 -35 105 -35h71c62.667 0 94 15.667 94 47
c0 24.667 -8.16699 40.5 -24.5 47.5s-43.5 10.5 -81.5 10.5h-80c-10.667 0 -20.167 4 -28.5 12s-12.5 18.333 -12.5 31v53c0 10.667 4.16699 20.5 12.5 29.5s17.833 13.5 28.5 13.5h84c61.333 0 92 18.333 92 55c0 34 -30.667 51 -92 51h-59
c-49.333 0 -84.333 -11.667 -105 -35c-2.66699 -2.66699 -6.66699 -7 -12 -13s-9.33301 -10.667 -12 -14s-6.83398 -7.16602 -12.501 -11.499s-11.167 -7.5 -16.5 -9.5s-11.333 -3 -18 -3h-62c-9.33301 0 -19.166 3.83301 -29.499 11.5s-15.5 20.167 -15.5 37.5
c0 50.667 29.333 93.834 88 129.501s120.667 53.5 186 53.5h62c191.333 0 287 -65 287 -195c0 -53.333 -24.667 -95.666 -74 -126.999c54.667 -27.333 82 -69.666 82 -126.999c0 -128.667 -95.667 -192.667 -287 -192h-74c-65.333 0 -127.333 17.667 -186 53
s-88 78.333 -88 129z" />
    <glyph glyph-name="acute" unicode="&#xb4;" horiz-adv-x="372" 
d="M8 1661l49.001 188.001c26 76.667 69.667 115 131 115h91c44 0 72.667 -14 86 -42c5.33301 -10.667 7.66602 -22 6.99902 -34c0 -18.667 -6.66699 -38.334 -20 -59.001l-108 -189c-36.667 -62.667 -77.667 -94 -123 -94h-47c-49.333 0 -74 21.667 -74 65
c0 14 2.66699 30.667 8 50z" />
    <glyph glyph-name="uni00B5" unicode="&#xb5;" 
d="M123 -276l-0.000976562 1310c0 18 5.83301 32.833 17.5 44.5s26.167 17.5 43.5 17.5h224c18 0 32.667 -5.83301 44 -17.5s17 -26.5 17 -44.5v-542c0 -86 19.833 -152.667 59.5 -200s86.834 -71 141.501 -71c98 0 184 61.667 258 185v628c0 18 5.83301 32.833 17.5 44.5
s26.167 17.5 43.5 17.5h223c18 0 32.833 -5.83301 44.5 -17.5s17.5 -26.5 17.5 -44.5v-973c0 -18 -5.83301 -32.667 -17.5 -44s-26.5 -17 -44.5 -17h-223c-18 -0 -32.667 5.83301 -44 17.5s-17 26.167 -17 43.5v64c-45.333 -53.333 -86 -90.833 -122 -112.5
s-79.333 -32.5 -130 -32.5c-88.667 0 -157.667 23.667 -207 71v-327c0 -18 -5.83301 -32.833 -17.5 -44.5s-26.167 -17.5 -43.5 -17.5h-224c-18 0 -32.667 5.83301 -44 17.5s-17 26.5 -17 44.5z" />
    <glyph glyph-name="paragraph" unicode="&#xb6;" horiz-adv-x="1437" 
d="M61 1065c0 116 41 206.5 123 271.5s184.667 97.5 308 97.5h843c18 0 32.833 -5.83301 44.5 -17.5s17.5 -26.5 17.5 -44.5v-104c0 -18 -5.83301 -32.833 -17.5 -44.5s-26.5 -17.5 -44.5 -17.5h-90v-1450c0 -26 -9.5 -48.167 -28.5 -66.5s-41.5 -27.5 -67.5 -27.5h-229
v1544h-103v-1544h-231c-26 0 -48.167 9.16699 -66.5 27.5s-27.5 40.5 -27.5 66.5v936c-122.667 0 -225.167 33.167 -307.5 99.5s-123.5 157.5 -123.5 273.5z" />
    <glyph glyph-name="periodcentered" unicode="&#xb7;" horiz-adv-x="802" 
d="M205 596l-0.000976562 63c0 44 11.5 77.667 34.5 101s56.5 35 100.5 35h123c44 0 77.5 -11.667 100.5 -35s34.5 -57 34.5 -101v-63c0 -42 -11.667 -75 -35 -99s-56.666 -36 -99.999 -36h-123c-44 0 -77.5 12 -100.5 36s-34.5 57 -34.5 99z" />
    <glyph glyph-name="cedilla" unicode="&#xb8;" horiz-adv-x="784" 
d="M41 1006c0 24.667 9.66699 47.667 29 69l311 332c18 18 41.333 27 70 27h159c10.667 0 20.167 -4.16699 28.5 -12.5s12.5 -17.833 12.5 -28.5v-336h49c12 0 22.167 -4.16699 30.5 -12.5s12.5 -17.833 12.5 -28.5v-64c0 -10.667 -4 -20.167 -12 -28.5
s-18.333 -12.5 -31 -12.5h-49v-69c0 -10.667 -4 -20.167 -12 -28.5s-17.667 -12.5 -29 -12.5h-104c-10.667 0 -20.167 3.66699 -28.5 11s-12.5 17.333 -12.5 30v69h-381c-10.667 0 -20.5 4.16699 -29.5 12.5s-13.5 17.833 -13.5 28.5v54zM262 1057h203v215z" />
    <glyph glyph-name="uni00B9" unicode="&#xb9;" horiz-adv-x="407" 
d="M47 1274c-3.33301 5.33301 -4.99902 10.332 -4.99902 14.999c0 8.66699 5 17.334 15 26.001l117 98c13.333 13.333 34.666 20.333 63.999 21h86c12 0 22.167 -4.16699 30.5 -12.5s12.5 -17.833 12.5 -28.5v-551c0 -10.667 -4.16699 -20.167 -12.5 -28.5
s-18.5 -12.5 -30.5 -12.5h-103c-10.667 0 -20.167 3.66699 -28.5 11s-12.5 17.333 -12.5 30v405l-51 -37c-15.333 -9.33301 -28.333 -7 -39 7z" />
    <glyph glyph-name="ordmasculine" unicode="&#xba;" horiz-adv-x="747" 
d="M41 1116c0 214.667 105.667 322 317 322h31c211.333 0 317.333 -107.333 318 -322c0 -212.667 -106 -319 -318 -319h-31c-211.333 0 -317 106.333 -317 319zM227 1116c0 -60 14.333 -104 43 -132s63.5 -42 104.5 -42s75.5 14 103.5 42s42 72 42 132s-14 104.333 -42 133
s-62.5 43 -103.5 43s-75.833 -14.333 -104.5 -43s-43 -73 -43 -133z" />
    <glyph glyph-name="guillemotright" unicode="&#xbb;" horiz-adv-x="1019" 
d="M43 161c-0.666992 3.33301 -1 6.66699 -1 10c0 13.333 5.66699 29.333 17 48l209 342l-209 342c-12 18 -17.667 34 -17 48c0 4 0.333008 7.66699 1 11c4 16 16.333 23.667 37 23h123c31.333 0 58.666 -15 81.999 -45l204 -262c26 -34 39 -64.667 39 -92v-49
c0 -27.333 -13 -58.333 -39 -93l-204 -262c-23.333 -30 -50.666 -45 -81.999 -45h-123c-20.667 0 -33 8 -37 24zM494 161.001l-2 10c0 13.333 6 29.333 18 48l209 342l-209 342c-12 18 -18 34 -18 48c0 4 0.666992 7.66699 2 11c4 16 16 23.667 36 23h123
c31.333 0 58.666 -15 81.999 -45l205 -262c26 -34 39 -64.667 39 -92v-49c0 -27.333 -13 -58.333 -39 -93l-205 -262c-23.333 -30 -50.666 -45 -81.999 -45h-123c-20 0 -32 8 -36 24z" />
    <glyph glyph-name="onequarter" unicode="&#xbc;" horiz-adv-x="1376" 
d="M76 66l829.002 1302c27.333 44 65.666 66 114.999 66h139c32 0 48.333 -9 49 -27c0 -10 -5.33301 -23 -16 -39l-830 -1302c-27.333 -44 -65.333 -66 -114 -66h-139c-30.667 -0 -46.334 9.33301 -47.001 28c0 10 4.66699 22.667 14 38zM78.002 1274
c-3.33301 5.33301 -5 10.332 -5 14.999c0 8.66699 5 17.334 15 26.001l117 98c13.333 13.333 34.333 20.333 63 21h86c12 0 22.167 -4.16699 30.5 -12.5s12.5 -17.833 12.5 -28.5v-551c0 -10.667 -4 -20.167 -12 -28.5s-18.333 -12.5 -31 -12.5h-102
c-10.667 0 -20.167 3.66699 -28.5 11s-12.5 17.333 -12.5 30v405l-51 -37c-15.333 -9.33301 -28.333 -7 -39 7zM612.002 204.999c0 24.667 9.66699 47.667 29 69l311 332c18 18 41.333 27 70 27h160c10.667 0 20.167 -4.16699 28.5 -12.5s12.5 -17.833 12.5 -28.5v-336h49
c12 0 22.167 -4.16699 30.5 -12.5s12.5 -17.833 12.5 -28.5v-63c0 -10.667 -4.16699 -20.167 -12.5 -28.5s-18.5 -12.5 -30.5 -12.5h-49v-70c0 -10.667 -4.16699 -20.167 -12.5 -28.5s-17.833 -12.5 -28.5 -12.5h-105c-10.667 0 -20.167 3.83301 -28.5 11.5
s-12.5 17.5 -12.5 29.5v70h-381c-10.667 0 -20.5 4 -29.5 12s-13.5 17.667 -13.5 29v53zM834.002 255.999h202v215z" />
    <glyph glyph-name="onehalf" unicode="&#xbd;" horiz-adv-x="1392" 
d="M76 66l829.002 1302c27.333 44 65.666 66 114.999 66h139c32 0 48.333 -9 49 -27c0 -10 -5.33301 -23 -16 -39l-830 -1302c-27.333 -44 -65.333 -66 -114 -66h-139c-30.667 -0 -46.334 9.33301 -47.001 28c0 10 4.66699 22.667 14 38zM78.002 1274
c-3.33301 5.33301 -5 10.332 -5 14.999c0 8.66699 5 17.334 15 26.001l117 98c13.333 13.333 34.333 20.333 63 21h86c12 0 22.167 -4.16699 30.5 -12.5s12.5 -17.833 12.5 -28.5v-551c0 -10.667 -4 -20.167 -12 -28.5s-18.333 -12.5 -31 -12.5h-102
c-10.667 0 -20.167 3.66699 -28.5 11s-12.5 17.333 -12.5 30v405l-51 -37c-15.333 -9.33301 -28.333 -7 -39 7zM709.002 40.999l-0.000976562 63.001c0 44 10.5 81.667 31.5 113s47.833 54.833 80.5 70.5s67.5 29.667 104.5 42s71.833 22 104.5 29s59.667 16.167 81 27.5
s32 24.666 32 39.999c0 44 -37 66 -111 66h-33c-57.333 0 -94.666 -18.667 -111.999 -56c-13.333 -27.333 -33.333 -41 -60 -41h-73c-9.33301 0 -19.166 3.83301 -29.499 11.5s-15.5 20.167 -15.5 37.5c0 58.667 28.667 105.5 86 140.5s120.666 52.5 189.999 52.5h59
c191.333 0 287 -70.333 287 -211c0 -53.333 -21.5 -96 -64.5 -128s-90.833 -52.833 -143.5 -62.5s-100.5 -21.667 -143.5 -36s-64.5 -32.5 -64.5 -54.5h367c12 0 22.167 -4 30.5 -12s12.5 -18.333 12.5 -31v-61c0 -10.667 -4.16699 -20.167 -12.5 -28.5
s-18.5 -12.5 -30.5 -12.5h-530c-12 0 -22.167 4.16699 -30.5 12.5s-12.5 17.833 -12.5 28.5z" />
    <glyph glyph-name="threequarters" unicode="&#xbe;" horiz-adv-x="1556" 
d="M61 979c0 18 5.16992 30.6641 15.5029 37.9971s20.166 11 29.499 11h62c8 0 15.833 -2 23.5 -6s13.167 -7.33301 16.5 -10s9.16602 -8.83398 17.499 -18.501s13.166 -15.167 14.499 -16.5c20.667 -23.333 55.334 -35 104.001 -35h72c62.667 0 94 15.667 94 47
c0 24.667 -8.16699 40.5 -24.5 47.5s-43.833 10.5 -82.5 10.5h-79c-10.667 0 -20.167 4 -28.5 12s-12.5 18.333 -12.5 31v53c0 10.667 4 20.5 12 29.5s17.667 13.5 29 13.5h84c61.333 0 92 18.333 92 55c0 34 -30.667 51 -92 51h-60c-49.333 0 -84 -11.667 -104 -35
l-12.5 -13c-5.66699 -6 -9.83398 -10.667 -12.501 -14s-6.66699 -7.16602 -12 -11.499s-10.833 -7.5 -16.5 -9.5s-11.834 -3 -18.501 -3h-61c-9.33301 0 -19.166 3.83301 -29.499 11.5s-15.5 20.167 -15.5 37.5c0 50.667 29.333 93.834 88 129.501s120.667 53.5 186 53.5h61
c191.333 0 287 -65 287 -195c0 -53.333 -24.667 -95.666 -74 -126.999c54.667 -27.333 82 -69.666 82 -126.999c0 -128.667 -95.333 -192.667 -286 -192h-74c-65.333 0 -127.5 17.667 -186.5 53s-88.5 78.333 -88.5 129zM256.003 65.9971l829.001 1302
c27.333 44 65.666 66 114.999 66h139c32 0 48.333 -9 49 -27c0 -10 -5.33301 -23 -16 -39l-829 -1302c-27.333 -44 -65.666 -66 -114.999 -66h-139c-30.667 0 -46.334 9.33301 -47.001 28c0 10 4.66699 22.667 14 38zM793.004 204.997c0 24.667 9.33301 47.667 28 69
l312 332c18 18 41 27 69 27h160c10.667 0 20.167 -4.16699 28.5 -12.5s12.5 -17.833 12.5 -28.5v-336h49c12 0 22.167 -4.16699 30.5 -12.5s12.5 -17.833 12.5 -28.5v-63c0 -10.667 -4.16699 -20.167 -12.5 -28.5s-18.5 -12.5 -30.5 -12.5h-49v-70
c0 -10.667 -4.16699 -20.167 -12.5 -28.5s-17.833 -12.5 -28.5 -12.5h-105c-10.667 0 -20 3.83301 -28 11.5s-12 17.5 -12 29.5v70h-381c-10.667 0 -20.5 4 -29.5 12s-13.5 17.667 -13.5 29v53zM1014 255.997h203v215z" />
    <glyph glyph-name="questiondown" unicode="&#xbf;" horiz-adv-x="1341" 
d="M82 100c0 66.667 16.001 124.665 48.001 173.998s71.167 87 117.5 113s92.833 49.167 139.5 69.5s86 42.833 118 67.5s48 52.667 48 84c0 18 5.83301 32.833 17.5 44.5s26.167 17.5 43.5 17.5h226c18 0 32.667 -5.83301 44 -17.5s17 -26.5 17 -44.5
c0 -57.333 -10.833 -107.833 -32.5 -151.5s-49 -78.167 -82 -103.5s-68.5 -48.833 -106.5 -70.5s-73.5 -40 -106.5 -55s-60.333 -33.5 -82 -55.5s-32.5 -46 -32.5 -72c0 -57.333 18 -98.833 54 -124.5s93.667 -38.5 173 -38.5h51c110.667 0 186.667 40.667 228 122
c30 62.667 75 94.334 135 95.001h119c12 0 24.833 -2.5 38.5 -7.5s27.667 -16.667 42 -35s21.5 -41.166 21.5 -68.499c0 -113.333 -57.333 -206.5 -172 -279.5s-240.334 -109.5 -377.001 -109.5h-115c-383.333 0 -575 148.667 -575 446zM528.001 906.998v63.999
c0 44 11.667 77.5 35 100.5s57 34.5 101 34.5h122c44 0 77.667 -11.667 101 -35s35 -56.666 35 -99.999v-64c0 -42 -11.667 -75 -35 -99s-57 -36 -101 -36h-122c-44 0 -77.667 12 -101 36s-35 57 -35 99z" />
    <glyph glyph-name="Agrave" unicode="&#xc0;" horiz-adv-x="1708" 
d="M25 92l251.002 952.002c69.333 259.333 290.666 389.333 663.999 390h539c24.667 0 45.167 -9 61.5 -27s24.5 -40 24.5 -66v-1249c0 -26 -9 -47.833 -27 -65.5s-40.667 -26.5 -68 -26.5h-188c-26 0 -47.667 9 -65 27c-19.333 19.333 -29 41.666 -29 66.999v252h-711
l-67 -252c-16.667 -62.667 -56.334 -94 -119.001 -94h-197c-26 0 -45.667 9 -59 27c-9.33301 10.667 -14 24 -14 40c0.666992 7.33301 2 15.666 4 24.999zM551.002 629.002h637v522h-285c-140.667 0 -228.667 -67 -264 -201zM731.002 1922c13.333 28 42 42 86 42h90
c61.333 0 105 -38.333 131 -115l49 -188c5.33301 -19.333 8.33301 -36 9 -50c0 -43.333 -24.667 -65 -74 -65h-47c-45.333 0 -86.333 31.333 -123 94l-109 189c-13.333 21.333 -20 41 -20 59c0 12 2.66699 23.333 8 34z" />
    <glyph glyph-name="Aacute" unicode="&#xc1;" horiz-adv-x="1708" 
d="M25 92l251.002 952.002c69.333 259.333 290.666 389.333 663.999 390h539c24.667 0 45.167 -9 61.5 -27s24.5 -40 24.5 -66v-1249c0 -26 -9 -47.833 -27 -65.5s-40.667 -26.5 -68 -26.5h-188c-26 0 -47.667 9 -65 27c-19.333 19.333 -29 41.666 -29 66.999v252h-711
l-67 -252c-16.667 -62.667 -56.334 -94 -119.001 -94h-197c-26 0 -45.667 9 -59 27c-9.33301 10.667 -14 24 -14 40c0.666992 7.33301 2 15.666 4 24.999zM551.002 629.002h637v522h-285c-140.667 0 -228.667 -67 -264 -201zM889.002 1661l48.999 188.001
c26 76.667 69.667 115 131 115h90c44 0 72.667 -14 86 -42c5.33301 -10.667 8 -22 8 -34c0 -18.667 -6.66699 -38.334 -20 -59.001l-109 -189c-36.667 -62.667 -77.667 -94 -123 -94h-47c-49.333 0 -73.666 21.667 -72.999 65c0 14 2.66699 30.667 8 50z" />
    <glyph glyph-name="Acircumflex" unicode="&#xc2;" horiz-adv-x="1708" 
d="M25 92l251 952.001c68 259.333 289.333 389.333 664 390h539c24.667 0 45.167 -9.33301 61.5 -28s24.5 -40.334 24.5 -65.001v-1249c0 -26 -9.33301 -47.833 -28 -65.5s-41 -26.5 -67 -26.5h-188c-27.333 -0 -49.833 8.83301 -67.5 26.5s-26.5 40.167 -26.5 67.5v252
h-711l-67 -252c-6.66699 -27.333 -21.667 -49.833 -45 -67.5s-48 -26.5 -74 -26.5h-197c-26 0 -45.667 9 -59 27c-9.33301 12 -14 25.667 -14 41c0.666992 7.33301 2 15.333 4 24zM551 629.001l637.001 -0.000976562v522h-285c-64 0 -119.833 -18.167 -167.5 -54.5
s-79.834 -85.166 -96.501 -146.499zM639.001 1571c-4 7.33301 -5.99902 14.665 -5.99902 21.998c0 12.667 6 24.334 18 35.001l156 144c61.333 58.667 110.333 88 147 88h123c36.667 0 86 -29.333 148 -88l157 -144c12 -11.333 18.333 -23 19 -35
c0 -7.33301 -2 -14.666 -6 -21.999c-10.667 -20.667 -28.667 -31 -54 -31h-145c-38 0 -86.333 28 -145 84l-35 31l-33 -31c-58.667 -56 -107 -84 -145 -84h-146c-24.667 0 -42.334 10.333 -53.001 31z" />
    <glyph glyph-name="Atilde" unicode="&#xc3;" horiz-adv-x="1708" 
d="M25 92l251 952.001c68 259.333 289.333 389.333 664 390h539c24.667 0 45.167 -9.33301 61.5 -28s24.5 -40.334 24.5 -65.001v-1249c0 -26 -9.33301 -47.833 -28 -65.5s-41 -26.5 -67 -26.5h-188c-27.333 -0 -49.833 8.83301 -67.5 26.5s-26.5 40.167 -26.5 67.5v252
h-711l-67 -252c-6.66699 -27.333 -21.667 -49.833 -45 -67.5s-48 -26.5 -74 -26.5h-197c-26 0 -45.667 9 -59 27c-9.33301 12 -14 25.667 -14 41c0.666992 7.33301 2 15.333 4 24zM551 629.001l637.001 -0.000976562v522h-285c-64 0 -119.833 -18.167 -167.5 -54.5
s-79.834 -85.166 -96.501 -146.499zM676.001 1587c0 87.333 21.5 153.5 64.5 198.5s93.167 67.5 150.5 67.5c39.333 0 84.333 -13.5 135 -40.5s87.667 -40.5 111 -40.5c24.667 0 44.5 11.833 59.5 35.5s31.833 35.5 50.5 35.5h82c20.667 0 31 -10.333 31 -31
c0 -87.333 -21.167 -153.5 -63.5 -198.5s-92.166 -67.5 -149.499 -67.5c-40.667 0 -85.667 13.667 -135 41s-86.333 41 -111 41s-44.834 -12 -60.501 -36s-33.167 -36 -52.5 -36h-81c-20.667 0 -31 10.333 -31 31z" />
    <glyph glyph-name="Adieresis" unicode="&#xc4;" horiz-adv-x="1708" 
d="M31 92l252.001 952.002c69.333 259.333 290.333 389.333 663 390h539c24.667 0 45.167 -9 61.5 -27s24.5 -40 24.5 -66v-1249c0 -26 -8.83301 -47.833 -26.5 -65.5s-40.167 -26.5 -67.5 -26.5h-189c-26 0 -47.667 9 -65 27c-19.333 19.333 -29 41.666 -29 66.999v252
h-711l-67 -252c-16.667 -62.667 -56.334 -94 -119.001 -94h-197c-26 0 -45.667 9 -59 27c-9.33301 10.667 -14 24 -14 40c0.666992 7.33301 2 15.666 4 24.999zM557.001 629.002h637v522h-285c-140.667 0 -228.667 -67 -264 -201zM594.001 1692v39
c0 76.667 38.333 114.667 115 114h96c76.667 0 115 -38 115 -114v-39c0 -76.667 -38.333 -115 -115 -115h-96c-76.667 0 -115 38.333 -115 115zM1096 1692v39c0 76.667 38 114.667 114 114h97c76.667 0 114.667 -38 114 -114v-39c0 -76.667 -38 -115 -114 -115h-97
c-76 0 -114 38.333 -114 115z" />
    <glyph glyph-name="Aring" unicode="&#xc5;" horiz-adv-x="1708" 
d="M25 92l251 952.001c68 259.333 289.333 389.333 664 390h539c24.667 0 45.167 -9.33301 61.5 -28s24.5 -40.334 24.5 -65.001v-1249c0 -26 -9.33301 -47.833 -28 -65.5s-41 -26.5 -67 -26.5h-188c-27.333 -0 -49.833 8.83301 -67.5 26.5s-26.5 40.167 -26.5 67.5v252
h-711l-67 -252c-6.66699 -27.333 -21.667 -49.833 -45 -67.5s-48 -26.5 -74 -26.5h-197c-26 0 -45.667 9 -59 27c-9.33301 12 -14 25.667 -14 41c0.666992 7.33301 2 15.333 4 24zM551 629.001l637.001 -0.000976562v522h-285c-64 0 -119.833 -18.167 -167.5 -54.5
s-79.834 -85.166 -96.501 -146.499zM700.001 1774c0 84.667 27.333 150 82 196c50.667 46.667 117 70 199 70c80.667 0 146.334 -23.333 197.001 -70c54.667 -46.667 82 -112 82 -196c0 -82 -27.333 -147.667 -82 -197c-50.667 -46.667 -116.334 -70 -197.001 -70
c-82 0 -148.333 23.333 -199 70c-54.667 49.333 -82 115 -82 197zM872.001 1773.5c0 -89 36.333 -133.5 109 -133.5c70.667 0 106 44.5 106 133.5s-35.333 133.5 -106 133.5c-72.667 0 -109 -44.5 -109 -133.5z" />
    <glyph glyph-name="AE" unicode="&#xc6;" horiz-adv-x="2529" 
d="M25 92l251 952.001c68 259.333 289.333 389.333 664 390h1454c26 0 48.167 -9.33301 66.5 -28s27.5 -41 27.5 -67v-94c0 -26 -9.16699 -48.167 -27.5 -66.5s-40.5 -27.5 -66.5 -27.5h-870v-291h749c26 0 48.167 -9.16699 66.5 -27.5s27.5 -40.5 27.5 -66.5v-94
c0 -26 -9.16699 -48.167 -27.5 -66.5s-40.5 -27.5 -66.5 -27.5h-749v-295h868c26 0 47.833 -9 65.5 -27s26.5 -40 26.5 -66v-96c0 -26 -9.16699 -48.167 -27.5 -66.5s-40.5 -27.5 -66.5 -27.5h-1149c-26 0 -48.167 9.16699 -66.5 27.5s-27.5 41.166 -27.5 68.499v250h-670
l-67 -252c-6.66699 -27.333 -21.667 -49.833 -45 -67.5s-48 -26.5 -74 -26.5h-197c-26 0 -45.667 9 -59 27c-9.33301 12 -14 25.667 -14 41c0.666992 7.33301 2 15.333 4 24zM551 629.001l596.001 -0.000976562v522h-244c-64 0 -119.833 -18.167 -167.5 -54.5
s-79.834 -85.166 -96.501 -146.499z" />
    <glyph glyph-name="Ccedilla" unicode="&#xc7;" horiz-adv-x="1673" 
d="M61 717c0 247.333 61.833 430.001 185.5 548.001s309.167 177 556.5 177h223c151.333 0 285.166 -39.333 401.499 -118s174.5 -186.334 174.5 -323.001c0 -39.333 -11.667 -67.5 -35 -84.5s-46 -25.5 -68 -25.5h-119c-61.333 0 -109 36.667 -143 110
c-49.333 105.333 -131.333 158 -246 158h-178c-146 0 -245 -31.333 -297 -94s-78 -178.667 -78 -348s26 -285.5 78 -348.5s151 -94.5 297 -94.5h199c114.667 0 196.334 52.667 245.001 158c34 74 82 111 144 111h119c12 0 24.833 -2.5 38.5 -7.5s27.667 -16.667 42 -35
s21.5 -41.166 21.5 -68.499c0 -136.667 -58 -244.167 -174 -322.5s-249.667 -117.5 -401 -117.5h-125v-72c148.667 -12 223 -75.333 223 -190c0 -144.667 -108.667 -217 -326 -217h-84c-27.333 0 -41 13.667 -41 41v84c0 27.333 13.667 40.666 41 39.999h84
c88.667 0 133 17.333 133 52c0 35.333 -45 53 -135 53h-59c-27.333 0 -41 13.667 -41 41v172c-221.333 15.333 -386 82 -494 200s-162 291.667 -162 521z" />
    <glyph glyph-name="Egrave" unicode="&#xc8;" horiz-adv-x="1525" 
d="M143 96v1245c0 24.667 9.66699 46.667 29 66c18 18 40 27 66 27h1153c26 0 47.667 -9 65 -27c19.333 -19.333 29 -42 29 -68v-94c0 -26 -9.66699 -48.333 -29 -67c-18 -18 -39.667 -27 -65 -27h-871v-291h750c24.667 0 46.5 -9.5 65.5 -28.5s28.5 -40.833 28.5 -65.5v-94
c0 -24.667 -9.5 -46.5 -28.5 -65.5s-40.833 -28.5 -65.5 -28.5h-750v-295h869c26 0 47.833 -9 65.5 -27s26.5 -40 26.5 -66v-96c0 -26 -9 -47.667 -27 -65c-19.333 -19.333 -42 -29 -68 -29h-1148c-26 0 -48.667 9.66699 -68 29c-18 17.333 -27 39.666 -27 66.999zM573 1922
c13.333 28 42.001 42 86.001 42h91c61.333 0 105 -38.333 131 -115l49 -188c5.33301 -19.333 8 -36 8 -50c0 -43.333 -24.667 -65 -74 -65h-47c-45.333 0 -86.333 31.333 -123 94l-108 189c-13.333 21.333 -20 41 -20 59c-0.666992 12 1.66602 23.333 6.99902 34z" />
    <glyph glyph-name="Eacute" unicode="&#xc9;" horiz-adv-x="1525" 
d="M143 96v1245c0 24.667 9.66699 46.667 29 66c18 18 40 27 66 27h1153c26 0 47.667 -9 65 -27c19.333 -19.333 29 -42 29 -68v-94c0 -26 -9.66699 -48.333 -29 -67c-18 -18 -39.667 -27 -65 -27h-871v-291h750c24.667 0 46.5 -9.5 65.5 -28.5s28.5 -40.833 28.5 -65.5v-94
c0 -24.667 -9.5 -46.5 -28.5 -65.5s-40.833 -28.5 -65.5 -28.5h-750v-295h869c26 0 47.833 -9 65.5 -27s26.5 -40 26.5 -66v-96c0 -26 -9 -47.667 -27 -65c-19.333 -19.333 -42 -29 -68 -29h-1148c-26 0 -48.667 9.66699 -68 29c-18 17.333 -27 39.666 -27 66.999zM731 1661
l49 188.001c26 76.667 69.667 115 131 115h90c44 0 72.667 -14 86 -42c5.33301 -10.667 8 -22 8 -34c0 -18.667 -6.66699 -38.334 -20 -59.001l-108 -189c-36.667 -62.667 -77.667 -94 -123 -94h-47c-49.333 0 -74 21.667 -74 65c0 14 2.66699 30.667 8 50z" />
    <glyph glyph-name="Ecircumflex" unicode="&#xca;" horiz-adv-x="1525" 
d="M143 96v1245c0 26 9.33301 48 28 66s41 27 67 27h1153c26 0 48.167 -9.33301 66.5 -28s27.5 -41 27.5 -67v-94c0 -26 -9.16699 -48.167 -27.5 -66.5s-40.5 -27.5 -66.5 -27.5h-871v-291h750c26 0 48.167 -9.16699 66.5 -27.5s27.5 -40.5 27.5 -66.5v-94
c0 -26 -9.16699 -48.167 -27.5 -66.5s-40.5 -27.5 -66.5 -27.5h-750v-295h869c26 0 47.833 -9 65.5 -27s26.5 -40 26.5 -66v-96c0 -26 -9.33301 -48.167 -28 -66.5s-41 -27.5 -67 -27.5h-1148c-26 0 -48.333 9.16699 -67 27.5s-28 41.166 -28 68.499zM426 1575
c-4 7.33301 -5.99902 14.665 -5.99902 21.998c0 12.667 6 24.334 18 35.001l156 144c61.333 58.667 110.333 88 147 88h123c36.667 0 86 -29.333 148 -88l157 -144c12 -11.333 18.333 -23 19 -35c0 -7.33301 -2 -14.666 -6 -21.999c-10.667 -20.667 -28.667 -31 -54 -31
h-145c-38 0 -86.333 28 -145 84l-35 31l-33 -31c-58.667 -56 -107 -84 -145 -84h-146c-24.667 0 -42.334 10.333 -53.001 31z" />
    <glyph glyph-name="Edieresis" unicode="&#xcb;" horiz-adv-x="1525" 
d="M143 96v1245c0 26 9.33301 48 28 66s41 27 67 27h1153c26 0 48.167 -9.33301 66.5 -28s27.5 -41 27.5 -67v-94c0 -26 -9.16699 -48.167 -27.5 -66.5s-40.5 -27.5 -66.5 -27.5h-871v-291h750c26 0 48.167 -9.16699 66.5 -27.5s27.5 -40.5 27.5 -66.5v-94
c0 -26 -9.16699 -48.167 -27.5 -66.5s-40.5 -27.5 -66.5 -27.5h-750v-295h869c26 0 47.833 -9 65.5 -27s26.5 -40 26.5 -66v-96c0 -26 -9.33301 -48.167 -28 -66.5s-41 -27.5 -67 -27.5h-1148c-26 0 -48.333 9.16699 -67 27.5s-28 41.166 -28 68.499zM410 1679v39
c0 35.333 10.167 63.333 30.5 84s48.166 31 83.499 31h97c35.333 0 63.166 -10.167 83.499 -30.5s30.5 -48.5 30.5 -84.5v-39c0 -35.333 -10.167 -63.166 -30.5 -83.499s-48.166 -30.5 -83.499 -30.5h-97c-35.333 0 -63.166 10.167 -83.499 30.5s-30.5 48.166 -30.5 83.499z
M911 1679v39c0 35.333 10.333 63.333 31 84s48.667 31 84 31h96c35.333 0 63.333 -10.167 84 -30.5s31 -48.5 31 -84.5v-39c0 -35.333 -10.167 -63.166 -30.5 -83.499s-48.5 -30.5 -84.5 -30.5h-96c-35.333 0 -63.333 10.167 -84 30.5s-31 48.166 -31 83.499z" />
    <glyph glyph-name="Igrave" unicode="&#xcc;" horiz-adv-x="663" 
d="M61 1922c13.333 28 42.001 42 86.001 42h91c61.333 0 105 -38.333 131 -115l49 -188c5.33301 -19.333 8 -36 8 -50c0 -43.333 -24.667 -65 -74 -65h-47c-45.333 0 -86.333 31.333 -123 94l-108 189c-13.333 21.333 -20 41 -20 59c-0.666992 12 1.66602 23.333 6.99902 34
zM143.001 92l0.000976562 1247c0 26 9.66699 48.667 29 68c18 18 40 27 66 27h186c27.333 0 50 -9 68 -27c19.333 -19.333 28.666 -42 27.999 -68v-1245c0 -24.667 -9.5 -46.5 -28.5 -65.5s-41.5 -28.5 -67.5 -28.5h-186c-26 0 -48 9 -66 27
c-19.333 18.667 -29 40.334 -29 65.001z" />
    <glyph glyph-name="Iacute" unicode="&#xcd;" horiz-adv-x="665" 
d="M143 92l0.000976562 1247c0 26 9.66699 48.667 29 68c18 18 40 27 66 27h186c27.333 0 50 -9 68 -27c19.333 -19.333 28.666 -42 27.999 -68v-1245c0 -24.667 -9.5 -46.5 -28.5 -65.5s-41.5 -28.5 -67.5 -28.5h-186c-26 0 -48 9 -66 27
c-19.333 18.667 -29 40.334 -29 65.001zM260.001 1661l49 188.001c26 76.667 69.667 115 131 115h90c44 0 72.667 -14 86 -42c5.33301 -10.667 8 -22 8 -34c0 -18.667 -6.66699 -38.334 -20 -59.001l-108 -189c-36.667 -62.667 -77.667 -94 -123 -94h-47
c-49.333 0 -74 21.667 -74 65c0 14 2.66699 30.667 8 50z" />
    <glyph glyph-name="Icircumflex" unicode="&#xce;" horiz-adv-x="686" 
d="M-35 1554c-4 7.33301 -5.99707 14.666 -5.99707 21.999c0 12.667 6 24.667 18 36l156 143c61.333 58.667 110.666 88 147.999 88h122c36.667 0 86 -29.333 148 -88l158 -143c12 -11.333 18 -23.333 18 -36c0 -7.33301 -2 -14.666 -6 -21.999
c-10.667 -20.667 -28.334 -30.667 -53.001 -30h-146c-38 0 -86.333 28 -145 84l-35 30l-33 -30c-58.667 -56 -107 -84 -145 -84h-146c-24.667 -0.666992 -42.334 9.33301 -53.001 30zM154.003 92l0.000976562 1247c0 26 9.16699 48.333 27.5 67s40.5 28 66.5 28h186
c27.333 0 50.166 -9.33301 68.499 -28s27.5 -41 27.5 -67v-1245c0 -26 -9.5 -48.167 -28.5 -66.5s-41.5 -27.5 -67.5 -27.5h-186c-26 -0 -48.167 8.83301 -66.5 26.5s-27.5 39.5 -27.5 65.5z" />
    <glyph glyph-name="Idieresis" unicode="&#xcf;" horiz-adv-x="704" 
d="M-61 1659v39c0 35.333 10.167 63.166 30.5 83.499s48.166 30.5 83.499 30.5h97c35.333 0 63.166 -10.167 83.499 -30.5s30.5 -48.166 30.5 -83.499v-39c0 -35.333 -10.167 -63.333 -30.5 -84s-48.166 -31 -83.499 -31h-97c-35.333 0 -63.166 10.333 -83.499 31
s-30.5 48.667 -30.5 84zM164 92v1247c0 26 9.16699 48.333 27.5 67s40.5 28 66.5 28h186c27.333 0 50.333 -9.33301 69 -28s28 -41 28 -67v-1245c0 -26 -9.66699 -48.167 -29 -66.5s-42 -27.5 -68 -27.5h-186c-26 -0 -48.167 8.83301 -66.5 26.5s-27.5 39.5 -27.5 65.5z
M440 1659v39c0 35.333 10.333 63.166 31 83.499s48.667 30.5 84 30.5h96c35.333 0 63.333 -10.167 84 -30.5s31 -48.166 31 -83.499v-39c0 -35.333 -10.167 -63.333 -30.5 -84s-48.5 -31 -84.5 -31h-96c-35.333 0 -63.333 10.333 -84 31s-31 48.667 -31 84z" />
    <glyph glyph-name="Eth" unicode="&#xd0;" horiz-adv-x="1728" 
d="M0 655v103c-0 18 5.83301 32.667 17.5 44s26.167 17 43.5 17h123v518c0 27.333 9.33301 50.333 28 69s41 28 67 28h559c289.333 0 499.833 -57.833 631.5 -173.5s197.5 -297 197.5 -544s-65.833 -428.167 -197.5 -543.5s-342.167 -173 -631.5 -173h-559
c-26 -0 -48.333 8.83301 -67 26.5s-28 39.5 -28 65.5v502h-123c-18 0 -32.667 5.66699 -44 17s-17 26 -17 44zM561 283l266 0.000976562c178.667 0 300.5 32.667 365.5 98s97.5 177.166 97.5 335.499s-32.333 270.333 -97 336s-186.667 98.5 -366 98.5h-266v-332h176
c18 0 32.833 -5.83301 44.5 -17.5s17.5 -26.167 17.5 -43.5v-103c0 -18 -5.83301 -32.667 -17.5 -44s-26.5 -17 -44.5 -17h-176v-311z" />
    <glyph glyph-name="Ntilde" unicode="&#xd1;" horiz-adv-x="1775" 
d="M143 94v1245c0 26 9 48.333 27 67s40 28 66 28h294c23.333 0 48 -9.33301 74 -28s47.333 -41 64 -67l604 -929v931c0 26 9.16699 48 27.5 66s40.5 27 66.5 27h172c26 0 48.167 -9 66.5 -27s27.5 -40.667 27.5 -68v-1245c0 -26 -9.16699 -48.167 -27.5 -66.5
s-40.5 -27.5 -66.5 -27.5h-332c-26 0 -52.667 9.16699 -80 27.5s-49 40.5 -65 66.5l-553 858v-858c0 -26 -9.16699 -48.167 -27.5 -66.5s-40.5 -27.5 -66.5 -27.5h-176c-26 0 -48.333 9.16699 -67 27.5s-28 40.5 -28 66.5zM586 1526c0 87.333 21.499 153.5 64.499 198.5
s93.167 67.5 150.5 67.5c39.333 0 84.333 -13.667 135 -41s87.667 -41 111 -41c24.667 0 44.334 12 59.001 36s31.667 36 51 36h82c20.667 0 31 -10.333 31 -31c0 -87.333 -21.167 -153.5 -63.5 -198.5s-92.166 -67.5 -149.499 -67.5c-40.667 0 -85.667 13.667 -135 41
s-86.333 41 -111 41s-44.834 -12 -60.501 -36s-33.167 -36 -52.5 -36h-82c-20 0 -30 10.333 -30 31z" />
    <glyph glyph-name="Ograve" unicode="&#xd2;" horiz-adv-x="1732" 
d="M61 716.5c0 498.333 268.333 747.5 805 747.5s805 -249.167 805 -747.5s-268.333 -747.5 -805 -747.5s-805 249.167 -805 747.5zM438 717c0 -318 142.667 -477 428 -477s428 159 428 477s-142.667 477 -428 477s-428 -159 -428 -477zM614 1922
c13.333 28 42.001 42 86.001 42h91c61.333 0 105 -38.333 131 -115l49 -188c5.33301 -19.333 8 -36 8 -50c0 -43.333 -24.667 -65 -74 -65h-47c-45.333 0 -86.333 31.333 -123 94l-108 189c-13.333 21.333 -20 41 -20 59c-0.666992 12 1.66602 23.333 6.99902 34z" />
    <glyph glyph-name="Oacute" unicode="&#xd3;" horiz-adv-x="1732" 
d="M61 716.5c0 498.333 268.333 747.5 805 747.5s805 -249.167 805 -747.5s-268.333 -747.5 -805 -747.5s-805 249.167 -805 747.5zM438 717c0 -318 142.667 -477 428 -477s428 159 428 477s-142.667 477 -428 477s-428 -159 -428 -477zM793 1661l49 188.001
c26 76.667 69.667 115 131 115h90c44 0 72.667 -14 86 -42c5.33301 -10.667 8 -22 8 -34c0 -18.667 -6.66699 -38.334 -20 -59.001l-109 -189c-36.667 -62.667 -77.667 -94 -123 -94h-47c-49.333 0 -74 21.667 -74 65c0.666992 14 3.66699 30.667 9 50z" />
    <glyph glyph-name="Ocircumflex" unicode="&#xd4;" horiz-adv-x="1732" 
d="M61 717c0 259.333 68.333 448.666 205 567.999s336.834 179 600.501 179s463.667 -59.667 600 -179s204.5 -308.666 204.5 -567.999s-68.167 -448.833 -204.5 -568.5s-336.333 -179.5 -600 -179.5s-463.834 59.833 -600.501 179.5s-205 309.167 -205 568.5zM438 716.5
c0 -158.333 33.833 -277.333 101.5 -357s176.667 -119.5 327 -119.5s259.166 39.833 326.499 119.5s101 198.667 101 357s-33.667 277.5 -101 357.5s-176.166 120 -326.499 120s-259.333 -40 -327 -120s-101.5 -199.167 -101.5 -357.5zM504 1641
c-4 7.33301 -5.99805 14.666 -5.99805 21.999c0 12.667 6 25 18 37l156 143c61.333 58.667 110.333 88 147 88h123c36.667 0 86 -29.333 148 -88l157 -143c12 -12 18 -24.333 18 -37c0 -7.33301 -1.66699 -14.666 -5 -21.999c-10.667 -20 -28.667 -29.667 -54 -29h-145
c-38 0 -86.667 28 -146 84l-34 30l-33 -30c-58.667 -56 -107.334 -84 -146.001 -84h-145c-24.667 -0.666992 -42.334 9 -53.001 29z" />
    <glyph glyph-name="Otilde" unicode="&#xd5;" horiz-adv-x="1732" 
d="M61 717c0 259.333 68.333 448.666 205 567.999s336.834 179 600.501 179s463.667 -59.667 600 -179s204.5 -308.666 204.5 -567.999s-68.167 -448.833 -204.5 -568.5s-336.333 -179.5 -600 -179.5s-463.834 59.833 -600.501 179.5s-205 309.167 -205 568.5zM438 716.5
c0 -158.333 33.833 -277.333 101.5 -357s176.667 -119.5 327 -119.5s259.166 39.833 326.499 119.5s101 198.667 101 357s-33.667 277.5 -101 357.5s-176.166 120 -326.499 120s-259.333 -40 -327 -120s-101.5 -199.167 -101.5 -357.5zM524 1587
c0 87.333 21.498 153.5 64.498 198.5s93.167 67.5 150.5 67.5c39.333 0 84.333 -13.5 135 -40.5s87.667 -40.5 111 -40.5c24.667 0 44.5 11.833 59.5 35.5s32.167 35.5 51.5 35.5h82c20.667 0 30.667 -10.333 30 -31c0 -87.333 -21.167 -153.5 -63.5 -198.5
s-92.166 -67.5 -149.499 -67.5c-40.667 0 -85.667 13.667 -135 41s-86.166 41 -110.499 41s-44.333 -12 -60 -36s-33.167 -36 -52.5 -36h-82c-20.667 0 -31 10.333 -31 31z" />
    <glyph glyph-name="Odieresis" unicode="&#xd6;" horiz-adv-x="1732" 
d="M61 716.5c0 498.333 268.333 747.5 805 747.5s805 -249.167 805 -747.5s-268.333 -747.5 -805 -747.5s-805 249.167 -805 747.5zM438 717c0 -318 142.667 -477 428 -477s428 159 428 477s-142.667 477 -428 477s-428 -159 -428 -477zM459 1698v39
c0 76.667 38 114.667 114 114h97c76.667 0 114.667 -38 114 -114v-39c0 -76.667 -38 -115 -114 -115h-97c-76 0 -114 38.333 -114 115zM961 1698v39c0 76.667 38 114.667 114 114h96c76.667 0 115 -38 115 -114v-39c0 -76.667 -38.333 -115 -115 -115h-96
c-76 0 -114 38.333 -114 115z" />
    <glyph glyph-name="multiply" unicode="&#xd7;" horiz-adv-x="958" 
d="M106 409.5c0 16.333 6.33398 30.833 19.001 43.5l178 176l-178 178c-12 12 -18.167 26.167 -18.5 42.5s5.83398 30.833 18.501 43.5l84 84c12 12 26.667 18 44 18s32 -6 44 -18l176 -176l186 184c12 12 26.333 18.167 43 18.5s31 -5.83398 43 -18.501l84 -84
c12 -12 18.167 -26.167 18.5 -42.5s-5.83398 -30.833 -18.501 -43.5l-186 -186l186 -185c12 -12 18.167 -26.167 18.5 -42.5s-5.83398 -30.833 -18.501 -43.5l-84 -86c-12 -12 -26.167 -18 -42.5 -18s-30.833 6 -43.5 18l-186 187l-176 -176
c-12 -12 -26.667 -18.167 -44 -18.5s-32 5.83398 -44 18.501l-84 84c-12.667 12 -19 26.167 -19 42.5z" />
    <glyph glyph-name="Oslash" unicode="&#xd8;" horiz-adv-x="1732" 
d="M61 717c0 259.333 68.333 448.664 205 567.997s336.667 179 600 179c172 0 319.667 -33.333 443 -100c1.33301 1.33301 5.66602 5.33301 12.999 12l16 14.5c3.33301 3 8.83301 7.16699 16.5 12.5s13.834 9.33301 18.501 12s10.834 5.83398 18.501 9.50098
s14.834 6.16699 21.501 7.5s14.334 2 23.001 2h168c31.333 0 50 -10.667 56 -32c1.33301 -4.66699 2 -9.66699 2 -15c0 -16 -8 -32 -24 -48l-112 -118c96.667 -136.667 145 -304.667 145 -504c0 -259.333 -68.167 -448.833 -204.5 -568.5s-336.5 -179.5 -600.5 -179.5
c-166.667 0 -314 33 -442 99c-2.66699 -2.66699 -7.33398 -7 -14.001 -13l-17 -13c-4 -3.33301 -9.33301 -7.33301 -16 -12s-13 -8.66699 -19 -12l-18 -9c-6.66699 -3.33301 -13.834 -5.66602 -21.501 -6.99902s-14.834 -2 -21.501 -2h-168c-31.333 0 -50 10.667 -56 32
c-1.33301 4.66699 -2 9.33398 -2 14.001c0 16 7.66699 32 23 48l111 119c-96 135.333 -144 303.333 -144 504zM438 716.998c0 -91.333 9.66699 -166.332 29 -224.999l618 661c-61.333 27.333 -134.333 41 -219 41c-150 0 -258.833 -39.833 -326.5 -119.5
s-101.5 -198.834 -101.5 -357.501zM645 280.999c61.333 -27.333 135 -41.001 221 -41.001c150 0 258.833 39.833 326.5 119.5s101.5 198.834 101.5 357.501c0 84.667 -10 159 -30 223z" />
    <glyph glyph-name="Ugrave" unicode="&#xd9;" horiz-adv-x="1687" 
d="M123 567v771.999c0 26 9.66699 48.667 29 68c18 18 40.333 27 67 27h187c26 0 47.667 -9 65 -27c19.333 -19.333 29 -42 29 -68v-774c0 -194 88 -291 264 -291h160c176 0 264 97 264 291v774c0 26 9.66699 48.667 29 68c18 18 39.667 27 65 27h186c27.333 0 50 -9 68 -27
c19.333 -19.333 29 -42 29 -68v-772c0 -181.333 -52.667 -322.666 -158 -423.999c-109.333 -101.333 -267 -151.666 -473 -150.999h-180c-204.667 0 -361.667 50.333 -471 151c-106.667 101.333 -160 242.666 -160 423.999zM594 1881c13.333 28 42 42 86 42h90
c61.333 0 105 -38.333 131 -115l49 -188c5.33301 -19.333 8 -36 8 -50c0 -43.333 -24.333 -65 -73 -65h-47c-45.333 0 -86.333 31.333 -123 94l-109 189c-13.333 21.333 -20 41 -20 59c0 12 2.66699 23.333 8 34z" />
    <glyph glyph-name="Uacute" unicode="&#xda;" horiz-adv-x="1687" 
d="M123 567v771.999c0 26 9.66699 48.667 29 68c18 18 40.333 27 67 27h187c26 0 47.667 -9 65 -27c19.333 -19.333 29 -42 29 -68v-774c0 -194 88 -291 264 -291h160c176 0 264 97 264 291v774c0 26 9.66699 48.667 29 68c18 18 39.667 27 65 27h186c27.333 0 50 -9 68 -27
c19.333 -19.333 29 -42 29 -68v-772c0 -181.333 -52.667 -322.666 -158 -423.999c-109.333 -101.333 -267 -151.666 -473 -150.999h-180c-204.667 0 -361.667 50.333 -471 151c-106.667 101.333 -160 242.666 -160 423.999zM752 1620l49 188.001
c26 76.667 69.667 115 131 115h90c44 0 72.667 -14 86 -42c5.33301 -10.667 8 -22 8 -34c0 -18.667 -6.66699 -38.334 -20 -59.001l-109 -189c-36.667 -62.667 -77.667 -94 -123 -94h-47c-49.333 0 -74 21.667 -74 65c0.666992 14 3.66699 30.667 9 50z" />
    <glyph glyph-name="Ucircumflex" unicode="&#xdb;" horiz-adv-x="1687" 
d="M123 567l0.000976562 772c0 26 9.16699 48.333 27.5 67s41.166 28 68.499 28h187c26 0 48.167 -9.33301 66.5 -28s27.5 -41 27.5 -67v-774c0 -98 21.5 -171 64.5 -219s109.5 -72 199.5 -72h160c90 0 156.5 24 199.5 72s64.5 121 64.5 219v774
c0 26 9.16699 48.333 27.5 67s40.5 28 66.5 28h186c27.333 0 50.333 -9.33301 69 -28s28 -41 28 -67v-772c0 -182.667 -53.667 -324.167 -161 -424.5s-264 -150.5 -470 -150.5h-180c-206 0 -362.667 50.167 -470 150.5s-161 241.833 -161 424.5zM465.001 1530
c-4 7.33301 -5.99902 14.665 -5.99902 21.998c0 12.667 6 24.334 18 35.001l156 144c61.333 58.667 110.333 88 147 88h123c36.667 0 86 -29.333 148 -88l157 -144c12 -11.333 18.333 -23 19 -35c0 -7.33301 -2 -14.666 -6 -21.999c-10.667 -20.667 -28.667 -31 -54 -31
h-145c-38 0 -86.333 28 -145 84l-35 31l-33 -31c-58.667 -56 -107 -84 -145 -84h-146c-24.667 0 -42.334 10.333 -53.001 31z" />
    <glyph glyph-name="Udieresis" unicode="&#xdc;" horiz-adv-x="1687" 
d="M123 567v771.999c0 26 9.66699 48.667 29 68c18 18 40.333 27 67 27h187c26 0 47.667 -9 65 -27c19.333 -19.333 29 -42 29 -68v-774c0 -194 88 -291 264 -291h160c176 0 264 97 264 291v774c0 26 9.66699 48.667 29 68c18 18 39.667 27 65 27h186c27.333 0 50 -9 68 -27
c19.333 -19.333 29 -42 29 -68v-772c0 -181.333 -52.667 -322.666 -158 -423.999c-109.333 -101.333 -267 -151.666 -473 -150.999h-180c-204.667 0 -361.667 50.333 -471 151c-106.667 101.333 -160 242.666 -160 423.999zM436 1655v39c0 76.667 38.333 114.667 115 114h96
c76.667 0 115 -38 115 -114v-39c0 -76.667 -38.333 -115 -115 -115h-96c-76.667 0 -115 38.333 -115 115zM938 1655v39c0 76.667 38.333 114.667 115 114h96c76.667 0 115 -38 115 -114v-39c0 -76.667 -38.333 -115 -115 -115h-96c-76.667 0 -115 38.333 -115 115z" />
    <glyph glyph-name="Yacute" unicode="&#xdd;" horiz-adv-x="1521" 
d="M25 1405c6.66699 19.333 22.333 28.998 47 28.998h190c75.333 0 133.333 -31.667 174 -95l324 -499l323 499c40.667 62.667 98.667 94.334 174 95.001h191c26 0 42.333 -9.66699 49 -29c2 -5.33301 3 -11.333 3 -18c0 -14.667 -5.66699 -30.667 -17 -48l-535 -827v-420
c0 -26 -8.83301 -47.833 -26.5 -65.5s-40.167 -26.5 -67.5 -26.5h-188c-26 0 -48 9 -66 27c-19.333 19.333 -29 41 -29 65v420l-534 827c-10 16.667 -15.333 32.334 -16 47.001c0.666992 6.66699 2 13 4 19zM704.999 1661l49 188.001c26 76.667 69.667 115 131 115h90
c44 0 72.667 -14 86 -42c5.33301 -10.667 8 -22 8 -34c0 -18.667 -6.66699 -38.334 -20 -59.001l-109 -189c-36.667 -62.667 -77.667 -94 -123 -94h-47c-49.333 0 -74 21.667 -74 65c0.666992 14 3.66699 30.667 9 50z" />
    <glyph glyph-name="Thorn" unicode="&#xde;" horiz-adv-x="1552" 
d="M143 31l0.000976562 1372c0 26 9.33301 48.167 28 66.5s41.667 27.5 69 27.5h184c27.333 0 50.166 -9.16699 68.499 -27.5s27.5 -40.5 27.5 -66.5v-98h197c516 0 774 -196 774 -588s-258 -588 -774 -588h-197v-98c0 -26 -9.5 -48.167 -28.5 -66.5
s-41.5 -27.5 -67.5 -27.5h-184c-26 0 -48.667 9.16699 -68 27.5s-29 40.5 -29 66.5zM510.001 399l205.002 -0.000976562c131.333 0 230.666 24.333 297.999 73s101 130.334 101 245.001s-33.833 196.167 -101.5 244.5s-166.834 72.5 -297.501 72.5h-205v-635z" />
    <glyph glyph-name="germandbls" unicode="&#xdf;" horiz-adv-x="1603" 
d="M143 94l-0.00195312 890.999c0 299.333 176.333 449 529 449h102c162.667 0 296.834 -32.167 402.501 -96.5s158.5 -161.166 158.5 -290.499c0 -53.333 -25.167 -104.666 -75.5 -153.999s-75.5 -90.333 -75.5 -123c0 -19.333 12.167 -40.5 36.5 -63.5
s54 -47.833 89 -74.5s70.167 -55.334 105.5 -86.001s65.333 -67.167 90 -109.5s37 -86.833 37 -133.5c0 -110.667 -44.333 -192.167 -133 -244.5s-207.334 -78.5 -356.001 -78.5c-166.667 0 -293 22.167 -379 66.5s-129 117.5 -129 219.5c0 18 5.83301 32.833 17.5 44.5
s26.167 17.5 43.5 17.5h150c48 0 86 -18 114 -54c36.667 -45.333 89.334 -67.666 158.001 -66.999c54.667 0 96.334 8.5 125.001 25.5s43 40.5 43 70.5c0 28.667 -13.333 56.667 -40 84s-59 52.666 -97 75.999l-115 71c-38 24 -70.333 52.667 -97 86s-40 69 -40 107
c0 44 12.667 81 38 111s50.5 57.167 75.5 81.5s37.5 50.833 37.5 79.5c0 46.667 -17 85.667 -51 117s-77 47 -129 47h-108c-53.333 0 -96.833 -16.667 -130.5 -50s-50.5 -78 -50.5 -134v-885c0 -26 -9.16699 -48.167 -27.5 -66.5s-40.5 -27.5 -66.5 -27.5h-157
c-26 0 -48.333 9.16699 -67 27.5s-28 40.5 -28 66.5z" />
    <glyph glyph-name="agrave" unicode="&#xe0;" horiz-adv-x="1335" 
d="M61 332c0 112 45.334 198.667 136.001 260c84.667 58.667 197.334 88 338.001 88h331c0 79.333 -17 134 -51 164c-30 30 -81 45 -153 45c-92.667 0 -157.667 -22.667 -195 -68c-28.667 -35.333 -67 -53 -115 -53h-149c-40.667 0 -61.334 20.333 -62.001 61
c0 191.333 181.667 287 545 287c158.667 0 283.667 -33.333 375 -100c101.333 -76.667 151.666 -188.667 150.999 -336v-619c0 -40.667 -20.333 -61 -61 -61h-193c-40.667 -0 -61 20.333 -61 61v31c-104 -75.333 -224.833 -112.833 -362.5 -112.5s-250.167 30.5 -337.5 90.5
c-90.667 62.667 -136 150 -136 262zM408.001 332c0 -83.333 53.667 -125 161 -125c101.333 0 200.333 30 297 90v156h-307c-45.333 0 -83 -11.667 -113 -35c-25.333 -22 -38 -50.667 -38 -86zM410.001 1574c13.333 28 42 42 86 42h90c61.333 0 105 -38.333 131 -115l49 -188
c5.33301 -19.333 8 -36 8 -50c0 -43.333 -24.667 -65 -74 -65h-47c-45.333 0 -86.333 31.333 -123 94l-108 189c-13.333 21.333 -20 41 -20 59c0 12 2.66699 23.333 8 34z" />
    <glyph glyph-name="aacute" unicode="&#xe1;" horiz-adv-x="1335" 
d="M61 332c0 112 45.334 198.667 136.001 260c84.667 58.667 197.334 88 338.001 88h331c0 79.333 -17 134 -51 164c-30 30 -81 45 -153 45c-92.667 0 -157.667 -22.667 -195 -68c-28.667 -35.333 -67 -53 -115 -53h-149c-40.667 0 -61.334 20.333 -62.001 61
c0 191.333 181.667 287 545 287c158.667 0 283.667 -33.333 375 -100c101.333 -76.667 151.666 -188.667 150.999 -336v-619c0 -40.667 -20.333 -61 -61 -61h-193c-40.667 -0 -61 20.333 -61 61v31c-104 -75.333 -224.833 -112.833 -362.5 -112.5s-250.167 30.5 -337.5 90.5
c-90.667 62.667 -136 150 -136 262zM408.001 332c0 -83.333 53.667 -125 161 -125c101.333 0 200.333 30 297 90v156h-307c-45.333 0 -83 -11.667 -113 -35c-25.333 -22 -38 -50.667 -38 -86zM608.001 1313l49.001 188.001c26 76.667 69.667 115 131 115h91
c44 0 72.667 -14 86 -42c5.33301 -10.667 7.66602 -22 6.99902 -34c0 -18.667 -6.66699 -38.334 -20 -59.001l-108 -189c-36.667 -62.667 -77.667 -94 -123 -94h-47c-49.333 0 -74 21.667 -74 65c0 14 2.66699 30.667 8 50z" />
    <glyph glyph-name="acircumflex" unicode="&#xe2;" horiz-adv-x="1335" 
d="M61 332c0 112 44.168 197.999 132.501 257.999s202.166 90 341.499 90h331c0 78 -16.333 132.333 -49 163s-84.334 46 -155.001 46c-92.667 0 -157.667 -22.667 -195 -68c-28.667 -35.333 -67 -53 -115 -53h-149c-18 0 -32.833 5.83301 -44.5 17.5
s-17.5 26.167 -17.5 43.5c0 191.333 181.667 287 545 287c158.667 0 286 -35.5 382 -106.5s144 -180.833 144 -329.5v-619c0 -18 -5.66699 -32.667 -17 -44s-26 -17 -44 -17h-193c-18 0 -32.667 5.83301 -44 17.5s-17 26.167 -17 43.5v31
c-105.333 -75.333 -226 -112.666 -362 -111.999c-139.333 0 -253.166 30.667 -341.499 92s-132.5 148 -132.5 260zM287.001 1227c-4 7.33301 -5.99707 14.6641 -5.99707 21.9971c0 12.667 6 24.334 18 35.001l156 143c61.333 58.667 110.333 88.334 147 89.001h123
c36.667 0 85.667 -29.667 147 -89l158 -143c12 -11.333 18 -23 18 -35c0 -7.33301 -2 -14.666 -6 -21.999c-10.667 -20.667 -28.334 -31 -53.001 -31h-145c-38 0 -86.667 28 -146 84l-34 31l-33 -31c-58.667 -56 -107.334 -84 -146.001 -84h-145
c-24.667 0 -42.334 10.333 -53.001 31zM408.004 331.997c0 -36.667 14 -66.667 42 -90s67.667 -35 119 -35c102.667 0 201.667 30 297 90v156h-307c-46.667 0 -83.5 -11.333 -110.5 -34s-40.5 -51.667 -40.5 -87z" />
    <glyph glyph-name="atilde" unicode="&#xe3;" horiz-adv-x="1335" 
d="M61 332c0 112 44.168 197.999 132.501 257.999s202.166 90 341.499 90h331c0 78 -16.333 132.333 -49 163s-84.334 46 -155.001 46c-92.667 0 -157.667 -22.667 -195 -68c-28.667 -35.333 -67 -53 -115 -53h-149c-18 0 -32.833 5.83301 -44.5 17.5
s-17.5 26.167 -17.5 43.5c0 191.333 181.667 287 545 287c158.667 0 286 -35.5 382 -106.5s144 -180.833 144 -329.5v-619c0 -18 -5.66699 -32.667 -17 -44s-26 -17 -44 -17h-193c-18 0 -32.667 5.83301 -44 17.5s-17 26.167 -17 43.5v31
c-105.333 -75.333 -226 -112.666 -362 -111.999c-139.333 0 -253.166 30.667 -341.499 92s-132.5 148 -132.5 260zM326.001 1229c0 87.333 21.501 153.5 64.501 198.5s93.167 67.5 150.5 67.5c40.667 0 85.667 -13.667 135 -41s86.166 -41 110.499 -41s44 12 59 36
s32.167 36 51.5 36h82c20.667 0 31 -10.333 31 -31c0 -87.333 -21.167 -153.5 -63.5 -198.5s-92.166 -67.5 -149.499 -67.5c-39.333 0 -84.333 13.667 -135 41s-87.667 41 -111 41c-24.667 0 -44.834 -12 -60.501 -36s-33.167 -36 -52.5 -36h-82c-20 0 -30 10.333 -30 31z
M408.002 331.999c0 -36.667 14 -66.667 42 -90s67.667 -35 119 -35c102.667 0 201.667 30 297 90v156h-307c-46.667 0 -83.5 -11.333 -110.5 -34s-40.5 -51.667 -40.5 -87z" />
    <glyph glyph-name="adieresis" unicode="&#xe4;" horiz-adv-x="1335" 
d="M61 332c0 112 45.334 198.667 136.001 260c84.667 58.667 197.334 88 338.001 88h331c0 79.333 -17 134 -51 164c-30 30 -81 45 -153 45c-92.667 0 -157.667 -22.667 -195 -68c-28.667 -35.333 -67 -53 -115 -53h-149c-40.667 0 -61.334 20.333 -62.001 61
c0 191.333 181.667 287 545 287c158.667 0 283.667 -33.333 375 -100c101.333 -76.667 151.666 -188.667 150.999 -336v-619c0 -40.667 -20.333 -61 -61 -61h-193c-40.667 -0 -61 20.333 -61 61v31c-104 -75.333 -224.833 -112.833 -362.5 -112.5s-250.167 30.5 -337.5 90.5
c-90.667 62.667 -136 150 -136 262zM303.001 1376v39c0 76.667 38.333 115 115 115h96c76.667 0 115 -38.333 115 -115v-39c0 -76.667 -38.333 -114.667 -115 -114h-96c-76.667 -0.666992 -115 37.333 -115 114zM408.001 332c0 -83.333 53.667 -125 161 -125
c101.333 0 200.333 30 297 90v156h-307c-45.333 0 -83 -11.667 -113 -35c-25.333 -22 -38 -50.667 -38 -86zM764.001 1376v39c0 76.667 38.333 115 115 115h96c76.667 0 115 -38.333 115 -115v-39c0 -76.667 -38.333 -114.667 -115 -114h-96
c-76.667 -0.666992 -115 37.333 -115 114z" />
    <glyph glyph-name="aring" unicode="&#xe5;" horiz-adv-x="1335" 
d="M61 332c0 112 44.168 197.999 132.501 257.999s202.166 90 341.499 90h331c0 78 -16.333 132.333 -49 163s-84.334 46 -155.001 46c-92.667 0 -157.667 -22.667 -195 -68c-28.667 -35.333 -67 -53 -115 -53h-149c-18 0 -32.833 5.83301 -44.5 17.5
s-17.5 26.167 -17.5 43.5c0 191.333 181.667 287 545 287c158.667 0 286 -35.5 382 -106.5s144 -180.833 144 -329.5v-619c0 -18 -5.66699 -32.667 -17 -44s-26 -17 -44 -17h-193c-18 0 -32.667 5.83301 -44 17.5s-17 26.167 -17 43.5v31
c-105.333 -75.333 -226 -112.666 -362 -111.999c-139.333 0 -253.166 30.667 -341.499 92s-132.5 148 -132.5 260zM408.001 331.999c0 -36.667 14 -66.667 42 -90s67.667 -35 119 -35c102.667 0 201.667 30 297 90v156h-307c-46.667 0 -83.5 -11.333 -110.5 -34
s-40.5 -51.667 -40.5 -87zM414.001 1446c0 84.667 27.333 150 82 196c50.667 46.667 116.667 70 198 70c80.667 0 146.334 -23.333 197.001 -70c54.667 -46.667 82 -112 82 -196c0 -82 -27.333 -147.667 -82 -197c-50.667 -46.667 -116.334 -69.667 -197.001 -69
c-82 0 -148 23 -198 69c-54.667 49.333 -82 115 -82 197zM586.001 1446c0 -88.667 36 -133 108 -133c70.667 0 106.167 44.333 106.5 133s-35.167 133 -106.5 133c-72 0 -108 -44.333 -108 -133z" />
    <glyph glyph-name="ae" unicode="&#xe6;" horiz-adv-x="2088" 
d="M61 332c0 112 44.1709 197.999 132.504 257.999s202.166 90 341.499 90h331c0 78 -16.333 132.333 -49 163s-84.334 46 -155.001 46c-92.667 0 -157.667 -22.667 -195 -68c-28.667 -35.333 -67 -53 -115 -53h-149c-18 0 -32.833 5.83301 -44.5 17.5
s-17.5 26.167 -17.5 43.5c0 191.333 168 287 504 287c170.667 0 303.667 -42.333 399 -127c102.667 84.667 236 127 400 127c184 0 327.333 -47.833 430 -143.5s154 -232.834 154 -411.501v-57c0 -18 -5.83301 -32.833 -17.5 -44.5s-26.5 -17.5 -44.5 -17.5h-754
c6.66699 -82 30.167 -141.667 70.5 -179s102.166 -56 185.499 -56c94 0 159.667 22.333 197 67c28.667 35.333 67 53.333 115 54h149c18 0 32.833 -5.83301 44.5 -17.5s17.5 -26.5 17.5 -44.5c0 -191.333 -175.667 -286.666 -527 -285.999
c-170.667 0 -308.334 50.333 -413.001 151c-98 -101.333 -263.333 -151.666 -496 -150.999c-148.667 0 -268.167 30.333 -358.5 91s-135.5 147.667 -135.5 261zM408.004 331.999c0 -36.667 14 -66.667 42 -90s67.667 -35 119 -35c128.667 0 227.667 30 297 90v143
c0 1.33301 -0.333008 3.5 -1 6.5s-1 5.16699 -1 6.5h-305c-46.667 0 -83.5 -11.333 -110.5 -34s-40.5 -51.667 -40.5 -87zM1212 652.999h462.999c-6.66699 157.333 -83.667 236 -231 236c-139.333 0 -216.666 -71 -231.999 -213v-23z" />
    <glyph glyph-name="ccedilla" unicode="&#xe7;" horiz-adv-x="1271" 
d="M61 547c0 187.333 51.667 329.002 155 425.002s249.666 144 438.999 144c178.667 0 317.667 -29.333 417 -88s149 -145.334 149 -260.001c0 -18 -5.83301 -32.667 -17.5 -44s-26.5 -17 -44.5 -17h-149c-45.333 0 -83.666 24.333 -114.999 73
c-39.333 62.667 -111 94 -215 94c-95.333 0 -162.833 -25.5 -202.5 -76.5s-59.5 -134.5 -59.5 -250.5c0 -114.667 20.5 -197.667 61.5 -249s111.167 -77 210.5 -77c104 0 175.667 31.333 215 94c31.333 49.333 69.666 74 114.999 74h149c18 0 32.833 -5.83301 44.5 -17.5
s17.5 -26.167 17.5 -43.5c0 -106.667 -42.667 -189 -128 -247s-207.333 -91 -366 -99v-62c148.667 -12 223.334 -75.333 224.001 -190c0 -144.667 -108.667 -217 -326 -217h-84c-27.333 0 -41 13.667 -41 41v84c0 27.333 13.667 40.666 41 39.999h84
c88.667 0 133 17.333 133 52c0 35.333 -45 53 -135 53h-60c-27.333 0 -41 13.667 -41 41v168c-314 45.333 -471 230.333 -471 555z" />
    <glyph glyph-name="egrave" unicode="&#xe8;" horiz-adv-x="1290" 
d="M61 546.5c0 183 52 324.499 156 424.499c104 96.667 246.667 145 428 145c184 0 326.667 -47 428 -141c104 -95.333 156 -233.333 156 -414v-57c0 -40.667 -20.667 -61.334 -62 -62.001h-753c13.333 -157.333 98.666 -235.666 255.999 -234.999
c94 0 159.333 22.333 196 67c28.667 35.333 67 53.333 115 54h149c40.667 0 61.334 -20.667 62.001 -62c0 -191.333 -182.333 -286.666 -547 -285.999c-184 0 -326.667 48.333 -428 145c-104 98 -156 238.5 -156 421.5zM389 1574c13.333 28 42 42 86 42h90
c61.333 0 105 -38.333 131 -115l49 -188c5.33301 -19.333 8.33301 -36 9 -50c0 -43.333 -24.667 -65 -74 -65h-47c-45.333 0 -86.333 31.333 -123 94l-109 189c-13.333 21.333 -20 41 -20 59c0 12 2.66699 23.333 8 34zM412 652.999h464.999
c-5.33301 157.333 -82.666 236 -231.999 236c-147.333 0 -225 -78.667 -233 -236z" />
    <glyph glyph-name="eacute" unicode="&#xe9;" horiz-adv-x="1290" 
d="M61 546.5c0 183 52 324.499 156 424.499c104 96.667 246.667 145 428 145c184 0 326.667 -47 428 -141c104 -95.333 156 -233.333 156 -414v-57c0 -40.667 -20.667 -61.334 -62 -62.001h-753c13.333 -157.333 98.666 -235.666 255.999 -234.999
c94 0 159.333 22.333 196 67c28.667 35.333 67 53.333 115 54h149c40.667 0 61.334 -20.667 62.001 -62c0 -191.333 -182.333 -286.666 -547 -285.999c-184 0 -326.667 48.333 -428 145c-104 98 -156 238.5 -156 421.5zM412 652.999h464.999
c-5.33301 157.333 -82.666 236 -231.999 236c-147.333 0 -225 -78.667 -233 -236zM587.999 1313l48.999 188.001c26 76.667 69.667 115 131 115h90c44 0 72.667 -14 86 -42c5.33301 -10.667 8 -22 8 -34c0 -18.667 -6.66699 -38.334 -20 -59.001l-109 -189
c-36.667 -62.667 -77.667 -94 -123 -94h-47c-49.333 0 -73.666 21.667 -72.999 65c0 14 2.66699 30.667 8 50z" />
    <glyph glyph-name="ecircumflex" unicode="&#xea;" horiz-adv-x="1290" 
d="M61 546.5c0 183 51.668 323.667 155.001 422s246.333 147.5 429 147.5c184 0 327.333 -47.833 430 -143.5s154 -232.834 154 -411.501v-57c0 -18 -5.83301 -32.833 -17.5 -44.5s-26.5 -17.5 -44.5 -17.5h-753c6.66699 -82 30.167 -141.667 70.5 -179
s102.166 -56 185.499 -56c94 0 159.333 22.333 196 67c28.667 35.333 67 53.333 115 54h149c18 0 32.833 -5.83301 44.5 -17.5s17.5 -26.5 17.5 -44.5c0 -191.333 -182.333 -286.666 -547 -285.999c-184 0 -327.333 48.667 -430 146s-154 237.5 -154 420.5zM266.001 1232
c-4 7.33301 -5.99707 14.333 -5.99707 21c0 12.667 6.33301 25 19 37l155 144c61.333 58.667 110.666 88 147.999 88h123c36.667 0 85.667 -29.333 147 -88l158 -144c12 -12 18 -24.333 18 -37c0 -7.33301 -2 -14.333 -6 -21c-10.667 -20 -28.334 -30 -53.001 -30h-146
c-38 0 -86.333 28 -145 84l-35 31l-33 -31c-58.667 -56 -107 -84 -145 -84h-146c-24.667 0 -42.334 10 -53.001 30zM412.004 653h465.001c-6.66699 157.333 -83.834 236 -231.501 236s-225.5 -78.667 -233.5 -236z" />
    <glyph glyph-name="edieresis" unicode="&#xeb;" horiz-adv-x="1290" 
d="M61 546.5c0 183 51.668 323.667 155.001 422s246.333 147.5 429 147.5c184 0 327.333 -47.833 430 -143.5s154 -232.834 154 -411.501v-57c0 -18 -5.83301 -32.833 -17.5 -44.5s-26.5 -17.5 -44.5 -17.5h-753c6.66699 -82 30.167 -141.667 70.5 -179
s102.166 -56 185.499 -56c94 0 159.333 22.333 196 67c28.667 35.333 67 53.333 115 54h149c18 0 32.833 -5.83301 44.5 -17.5s17.5 -26.5 17.5 -44.5c0 -191.333 -182.333 -286.666 -547 -285.999c-184 0 -327.333 48.667 -430 146s-154 237.5 -154 420.5zM231.001 1341v39
c0 35.333 10.333 63.333 31 84s48.667 31 84 31h96c35.333 0 63.333 -10.167 84 -30.5s31 -48.5 31 -84.5v-39c0 -35.333 -10.167 -63.166 -30.5 -83.499s-48.5 -30.5 -84.5 -30.5h-96c-35.333 0 -63.333 10.167 -84 30.5s-31 48.166 -31 83.499zM412.001 653h465.001
c-6.66699 157.333 -83.834 236 -231.501 236s-225.5 -78.667 -233.5 -236zM733.002 1341v39c0 35.333 10.333 63.333 31 84s48.667 31 84 31h96c35.333 0 63.333 -10.167 84 -30.5s31 -48.5 31 -84.5v-39c0 -35.333 -10.333 -63.166 -31 -83.499s-48.667 -30.5 -84 -30.5
h-96c-35.333 0 -63.333 10.167 -84 30.5s-31 48.166 -31 83.499z" />
    <glyph glyph-name="igrave" unicode="&#xec;" horiz-adv-x="595" 
d="M39 1574c13.333 28 42 42 86 42h90c61.333 0 105 -38.333 131 -115l49 -188c5.33301 -19.333 8 -36 8 -50c0 -43.333 -24.333 -65 -73 -65h-47c-45.333 0 -86.333 31.333 -123 94l-109 189c-13.333 21.333 -20 41 -20 59c0 12 2.66699 23.333 8 34zM127 61v949
c0 40.667 20.333 61 61 61h224c40.667 0 61 -20.333 61 -61v-949c0 -40.667 -20.333 -61 -61 -61h-224c-40.667 -0 -61 20.333 -61 61z" />
    <glyph glyph-name="iacute" unicode="&#xed;" horiz-adv-x="595" 
d="M123 61v949c0 40.667 20.333 61 61 61h224c40.667 0 61 -20.333 61 -61v-949c0 -40.667 -20.333 -61 -61 -61h-224c-40.667 -0 -61 20.333 -61 61zM211 1313l49 188.001c26 76.667 69.667 115 131 115h90c44 0 72.667 -14 86 -42c5.33301 -10.667 8 -22 8 -34
c0 -18.667 -6.66699 -38.334 -20 -59.001l-109 -189c-36.667 -62.667 -77.334 -94 -122.001 -94h-48c-49.333 0 -73.666 21.667 -72.999 65c0 14 2.66699 30.667 8 50z" />
    <glyph glyph-name="icircumflex" unicode="&#xee;" horiz-adv-x="645" 
d="M-55 1232c-4 7.33301 -5.99707 14.333 -5.99707 21c0 12.667 6 25 18 37l156 144c61.333 58.667 110.333 88 147 88h123c36.667 0 85.667 -29.333 147 -88l158 -144c12 -12 18 -24.333 18 -37c0 -7.33301 -2 -14.333 -6 -21c-10.667 -20 -28.334 -30 -53.001 -30h-145
c-38 0 -86.667 28 -146 84l-34 31l-33 -31c-58.667 -56 -107.334 -84 -146.001 -84h-145c-24.667 0 -42.334 10 -53.001 30zM150.003 61v949c0 18 5.66699 32.667 17 44s26 17 44 17h223c18 0 32.833 -5.83301 44.5 -17.5s17.5 -26.167 17.5 -43.5v-949
c0 -18 -5.83301 -32.667 -17.5 -44s-26.5 -17 -44.5 -17h-223c-18 0 -32.667 5.66699 -44 17s-17 26 -17 44z" />
    <glyph glyph-name="idieresis" unicode="&#xef;" horiz-adv-x="663" 
d="M-82 1300v39c0 35.333 10.333 63.333 31 84s48.667 31 84 31h96c35.333 0 63.333 -10.167 84 -30.5s31 -48.5 31 -84.5v-39c0 -35.333 -10.333 -63.166 -31 -83.499s-48.667 -30.5 -84 -30.5h-96c-35.333 0 -63.333 10.167 -84 30.5s-31 48.166 -31 83.499zM158 61v949
c0 18 5.83301 32.667 17.5 44s26.167 17 43.5 17h223c18 0 32.833 -5.83301 44.5 -17.5s17.5 -26.167 17.5 -43.5v-949c0 -18 -5.83301 -32.667 -17.5 -44s-26.5 -17 -44.5 -17h-223c-18 0 -32.667 5.66699 -44 17s-17 26 -17 44zM420 1300v39
c0 35.333 10.167 63.333 30.5 84s48.5 31 84.5 31h96c35.333 0 63.166 -10.167 83.499 -30.5s30.5 -48.5 30.5 -84.5v-39c0 -35.333 -10.167 -63.166 -30.5 -83.499s-48.166 -30.5 -83.499 -30.5h-96c-35.333 0 -63.333 10.167 -84 30.5s-31 48.166 -31 83.499z" />
    <glyph glyph-name="eth" unicode="&#xf0;" horiz-adv-x="1327" 
d="M61 471c0 154 48.8359 274.167 146.503 360.5s222.5 129.5 374.5 129.5c184 0 313 -50.667 387 -152c-16.667 173.333 -103.334 306.333 -260.001 399l-91 -145c-13.333 -21.333 -29.333 -32 -48 -32c-11.333 0 -24 3.66699 -38 11l-47 31
c-15.333 9.33301 -24.833 22.333 -28.5 39s-0.833984 32.334 8.49902 47.001l74 121c-74 20.667 -149.333 33.667 -226 39c-18 1.33301 -28.167 7.83301 -30.5 19.5s-0.833008 23.5 4.5 35.5l14 84c4.66699 18.667 19 28 43 28c4.66699 0 9.33398 -0.333008 14.001 -1
c102.667 -6.66699 197 -21 283 -43l86 139c9.33301 15.333 22 24.666 38 27.999c4 0.666992 8 1 12 1c11.333 0 22.666 -3.66699 33.999 -11l49 -30c15.333 -9.33301 25 -22.333 29 -39s1.33301 -31.667 -8 -45l-66 -107c146 -68 257.667 -167.167 335 -297.5
s116 -285.833 116 -466.5v-41c0 -173.333 -52.667 -315.5 -158 -426.5s-253.333 -166.5 -444 -166.5c-196.667 0 -346.334 42.167 -449.001 126.5s-154 205.833 -154 364.5zM408.003 471c0 -84.667 22.167 -149.834 66.5 -195.501s107.333 -68.5 189 -68.5
s144.834 22.833 189.501 68.5s67 110.834 67 195.501c0 83.333 -22.333 147.833 -67 193.5s-107.834 68.5 -189.501 68.5s-144.667 -22.833 -189 -68.5s-66.5 -110.167 -66.5 -193.5z" />
    <glyph glyph-name="ntilde" unicode="&#xf1;" 
d="M123 61l-0.00195312 973c0 18 5.83301 32.833 17.5 44.5s26.167 17.5 43.5 17.5h224c18 0 32.667 -5.83301 44 -17.5s17 -26.5 17 -44.5v-63c114.667 96.667 231.334 145 350.001 145c140.667 0 251.667 -39.5 333 -118.5s122 -199.833 122 -362.5v-574
c0 -18 -5.83301 -32.667 -17.5 -44s-26.5 -17 -44.5 -17h-223c-18 -0 -32.667 5.83301 -44 17.5s-17 26.167 -17 43.5v574c0 160 -63.667 239.667 -191 239c-83.333 0 -172.666 -47.667 -267.999 -143v-670c0 -18 -5.83301 -32.667 -17.5 -44s-26.167 -17 -43.5 -17h-224
c-18 0 -32.667 5.66699 -44 17s-17 26 -17 44zM355.998 1249c0 87.333 21.5 153.666 64.5 198.999s93.167 68 150.5 68c39.333 0 84.333 -13.667 135 -41s87.667 -41 111 -41c24.667 0 44.5 11.833 59.5 35.5s32.167 35.5 51.5 35.5h82c20.667 0 30.667 -10 30 -30
c0 -87.333 -21.167 -153.666 -63.5 -198.999s-92.166 -68 -149.499 -68c-40.667 0 -85.5 13.667 -134.5 41s-85.833 41 -110.5 41s-44.834 -11.833 -60.501 -35.5s-33.167 -35.5 -52.5 -35.5h-82c-20.667 -0.666992 -31 9.33301 -31 30z" />
    <glyph glyph-name="ograve" unicode="&#xf2;" horiz-adv-x="1331" 
d="M61 548.5c0 187 52 328.333 156 424s253.5 143.5 448.5 143.5s344.5 -47.833 448.5 -143.5s156 -237 156 -424s-52 -328.5 -156 -424.5s-253.5 -144 -448.5 -144s-344.5 48 -448.5 144s-156 237.5 -156 424.5zM408 549c0 -118.667 20.667 -205.334 62 -260.001
s106.5 -82 195.5 -82s154.333 27.333 196 82s62.5 141.334 62.5 260.001s-20.833 205 -62.5 259s-107 81 -196 81s-154.167 -27 -195.5 -81s-62 -140.333 -62 -259zM410 1574c13.333 28 42 42 86 42h90c61.333 0 105 -38.333 131 -115l49 -188c5.33301 -19.333 8 -36 8 -50
c0 -43.333 -24.667 -65 -74 -65h-47c-45.333 0 -86.333 31.333 -123 94l-108 189c-13.333 21.333 -20 41 -20 59c0 12 2.66699 23.333 8 34z" />
    <glyph glyph-name="oacute" unicode="&#xf3;" horiz-adv-x="1331" 
d="M61 549c0 378 201.498 567 604.498 567s604.5 -189 604.5 -567c0 -187.333 -52.667 -329.333 -158 -426c-101.333 -95.333 -250.166 -143 -446.499 -143s-345.166 47.667 -446.499 143c-105.333 96.667 -158 238.667 -158 426zM407.998 549c0 -228 86 -342 258 -342
s258 114 258 342c0 226.667 -86 340 -258 340s-258 -113.333 -258 -340zM587.998 1333l48.999 189c26 76.667 69.667 114.667 131 114h90c44 0 72.667 -14 86 -42c5.33301 -10.667 8 -21.667 8 -33c0 -18.667 -6.66699 -38.667 -20 -60l-109 -188
c-36.667 -62.667 -77.667 -94 -123 -94h-47c-49.333 0 -73.666 21.333 -72.999 64c0 14 2.66699 30.667 8 50z" />
    <glyph glyph-name="ocircumflex" unicode="&#xf4;" horiz-adv-x="1331" 
d="M61 548.5c0 187 52 328.333 156 424s253.5 143.5 448.5 143.5s344.5 -47.833 448.5 -143.5s156 -237 156 -424s-52 -328.5 -156 -424.5s-253.5 -144 -448.5 -144s-344.5 48 -448.5 144s-156 237.5 -156 424.5zM297 1273c-4 7.33301 -5.99902 14.333 -5.99902 21
c0 12.667 6 25 18 37l156 144c61.333 58.667 110.333 88 147 88h123c36.667 0 86 -29.333 148 -88l157 -144c12 -12 18.333 -24.333 19 -37c0 -7.33301 -2 -14.333 -6 -21c-10.667 -20 -28.667 -30 -54 -30h-145c-38 0 -86.333 28 -145 84l-35 31l-33 -31
c-58.667 -56 -107 -84 -145 -84h-146c-24.667 0 -42.334 10 -53.001 30zM408.001 549c0 -118.667 20.667 -205.334 62 -260.001s106.5 -82 195.5 -82s154.333 27.333 196 82s62.5 141.334 62.5 260.001s-20.833 205 -62.5 259s-107 81 -196 81s-154.167 -27 -195.5 -81
s-62 -140.333 -62 -259z" />
    <glyph glyph-name="otilde" unicode="&#xf5;" horiz-adv-x="1331" 
d="M61 548.5c0 187 52 328.333 156 424s253.5 143.5 448.5 143.5s344.5 -47.833 448.5 -143.5s156 -237 156 -424s-52 -328.5 -156 -424.5s-253.5 -144 -448.5 -144s-344.5 48 -448.5 144s-156 237.5 -156 424.5zM303 1249c0 87.333 21.498 153.666 64.498 198.999
s93.167 68 150.5 68c39.333 0 84.333 -13.667 135 -41s87.667 -41 111 -41c24.667 0 44.5 11.833 59.5 35.5s31.833 35.5 50.5 35.5h82c20.667 0 31 -10 31 -30c0 -87.333 -21.167 -153.666 -63.5 -198.999s-92.166 -68 -149.499 -68c-40.667 0 -85.667 13.667 -135 41
s-86.166 41 -110.499 41s-44.5 -11.833 -60.5 -35.5s-33.333 -35.5 -52 -35.5h-82c-20.667 -0.666992 -31 9.33301 -31 30zM407.998 549c0 -118.667 20.667 -205.334 62 -260.001s106.5 -82 195.5 -82s154.333 27.333 196 82s62.5 141.334 62.5 260.001
s-20.833 205 -62.5 259s-107 81 -196 81s-154.167 -27 -195.5 -81s-62 -140.333 -62 -259z" />
    <glyph glyph-name="odieresis" unicode="&#xf6;" horiz-adv-x="1331" 
d="M61 549c0 378 201.498 567 604.498 567s604.5 -189 604.5 -567c0 -187.333 -52.667 -329.333 -158 -426c-101.333 -95.333 -250.166 -143 -446.499 -143s-345.166 47.667 -446.499 143c-105.333 96.667 -158 238.667 -158 426zM267.998 1346v38
c0 76.667 38.333 115 115 115h96c76.667 0 115 -38.333 115 -115v-38c0 -76.667 -38.333 -115 -115 -115h-96c-76.667 0 -115 38.333 -115 115zM407.998 549c0 -228 86 -342 258 -342s258 114 258 342c0 226.667 -86 340 -258 340s-258 -113.333 -258 -340zM769.998 1346v38
c0 76.667 38.333 115 115 115h96c76.667 0 115 -38.333 115 -115v-38c0 -76.667 -38.333 -115 -115 -115h-96c-76.667 0 -115 38.333 -115 115z" />
    <glyph glyph-name="divide" unicode="&#xf7;" horiz-adv-x="1265" 
d="M41 569v119c0 18 5.83301 32.833 17.5 44.5s26.167 17.5 43.5 17.5h1061c18 0 32.833 -5.83301 44.5 -17.5s17.5 -26.5 17.5 -44.5v-119c0 -18 -5.83301 -32.667 -17.5 -44s-26.5 -17 -44.5 -17h-1061c-18 0 -32.667 5.66699 -44 17s-17 26 -17 44zM430 186
l0.000976562 63.999c0 44 11.667 77.5 35 100.5s56.666 34.5 99.999 34.5h123c44 0 77.5 -11.667 100.5 -35s34.5 -56.666 34.5 -99.999v-64c0 -42 -11.5 -75 -34.5 -99s-56.5 -36 -100.5 -36h-123c-44 0 -77.5 12 -100.5 36s-34.5 57 -34.5 99zM430.001 1008
l0.000976562 63.001c0 42 11.667 75 35 99s56.666 36 99.999 36h123c44 0 77.5 -11.833 100.5 -35.5s34.5 -56.834 34.5 -99.501v-63c0 -44 -11.5 -77.667 -34.5 -101s-56.5 -35 -100.5 -35h-123c-44 0 -77.5 11.667 -100.5 35s-34.5 57 -34.5 101z" />
    <glyph glyph-name="oslash" unicode="&#xf8;" horiz-adv-x="1355" 
d="M65 32c-1.33301 4.66699 -2.33301 9.33301 -3 14c0 16 8 32 24 48l86 92c-65.333 91.333 -98 212.333 -98 363c0 187.333 51.833 328.666 155.5 423.999s253.167 143 448.5 143c102.667 0 201.667 -26 297 -78c27.333 38 71.666 57.333 132.999 58h127
c31.333 0 50 -10.667 56 -32c1.33301 -4.66699 2 -9.66699 2 -15c0 -16 -7.66699 -32 -23 -48l-88 -94c66.667 -91.333 100 -210.666 100 -357.999c0 -187.333 -51.833 -329 -155.5 -425s-253.167 -144 -448.5 -144c-102.667 0 -201.667 25.667 -297 77
c-27.333 -38 -71.666 -57 -132.999 -57h-127c-31.333 0 -50 10.667 -56 32zM420 548.999c0 -26 1.33398 -56.667 4.00098 -92l381 405c-34 18 -76.333 27 -127 27c-88.667 0 -153.834 -27 -195.501 -81s-62.5 -140.333 -62.5 -259zM551.001 230.999
c34 -16.667 76.332 -24.668 126.999 -24.001c88.667 0 153.834 27.333 195.501 82s62.5 141.334 62.5 260.001c0 31.333 -2 61.333 -6 90z" />
    <glyph glyph-name="ugrave" unicode="&#xf9;" 
d="M123 461l-0.000976562 572.998c0 40.667 20.333 61.334 61 62.001h224c40.667 0 61 -20.667 61 -62v-573c0 -160 63.333 -240 190 -240c83.333 0 173 48 269 144v669c0 40.667 20.333 61.334 61 62.001h223c40.667 0 61.334 -20.667 62.001 -62v-973
c0 -40.667 -20.667 -61 -62 -61h-223c-40.667 -0 -61 20.333 -61 61v64c-116 -96.667 -232.667 -145 -350 -145c-142 0 -251.333 37.333 -328 112c-84.667 84.667 -127 207.667 -127 369zM429.999 1574c13.333 28 42 42 86 42h90c61.333 0 105 -38.333 131 -115l49 -188
c5.33301 -19.333 8.33301 -36 9 -50c0 -43.333 -24.667 -65 -74 -65h-47c-45.333 0 -86.333 31.333 -123 94l-109 189c-13.333 21.333 -20 41 -20 59c0 12 2.66699 23.333 8 34z" />
    <glyph glyph-name="uacute" unicode="&#xfa;" 
d="M123 461l-0.000976562 572.998c0 40.667 20.333 61.334 61 62.001h224c40.667 0 61 -20.667 61 -62v-573c0 -160 63.333 -240 190 -240c83.333 0 173 48 269 144v669c0 40.667 20.333 61.334 61 62.001h223c40.667 0 61.334 -20.667 62.001 -62v-973
c0 -40.667 -20.667 -61 -62 -61h-223c-40.667 -0 -61 20.333 -61 61v64c-116 -96.667 -232.667 -145 -350 -145c-142 0 -251.333 37.333 -328 112c-84.667 84.667 -127 207.667 -127 369zM607.999 1313l49.001 188.001c26 76.667 69.667 115 131 115h91
c44 0 72.667 -14 86 -42c5.33301 -10.667 7.66602 -22 6.99902 -34c0 -18.667 -6.66699 -38.334 -20 -59.001l-108 -189c-36.667 -62.667 -77.667 -94 -123 -94h-47c-49.333 0 -74 21.667 -74 65c0 14 2.66699 30.667 8 50z" />
    <glyph glyph-name="ucircumflex" unicode="&#xfb;" 
d="M123 461l0.000976562 573c0 18 5.83301 32.833 17.5 44.5s26.167 17.5 43.5 17.5h224c18 0 32.667 -5.83301 44 -17.5s17 -26.5 17 -44.5v-573c0 -160 63.333 -240 190 -240c83.333 0 173 48 269 144v669c0 18 5.83301 32.833 17.5 44.5s26.167 17.5 43.5 17.5h223
c18 0 32.833 -5.83301 44.5 -17.5s17.5 -26.5 17.5 -44.5v-973c0 -18 -5.83301 -32.667 -17.5 -44s-26.5 -17 -44.5 -17h-223c-18 -0 -32.667 5.83301 -44 17.5s-17 26.167 -17 43.5v64c-114.667 -96.667 -231.334 -145 -350.001 -145c-140.667 0 -251.667 39.5 -333 118.5
s-122 199.833 -122 362.5zM319.001 1273c-4 7.33301 -5.66406 14.333 -4.99707 21c0 12.667 6 25 18 37l155 144c61.333 58.667 110.666 88 147.999 88h123c36.667 0 85.667 -29.333 147 -88l158 -144c12 -12 18 -24.333 18 -37c0 -7.33301 -2 -14.333 -6 -21
c-10.667 -20 -28.334 -30 -53.001 -30h-145c-38 0 -86.667 28 -146 84l-35 31l-32 -31c-58.667 -56 -107.334 -84 -146.001 -84h-145c-25.333 0 -43.333 10 -54 30z" />
    <glyph glyph-name="udieresis" unicode="&#xfc;" 
d="M123 461l-0.000976562 572.998c0 40.667 20.333 61.334 61 62.001h224c40.667 0 61 -20.667 61 -62v-573c0 -160 63.333 -240 190 -240c83.333 0 173 48 269 144v669c0 40.667 20.333 61.334 61 62.001h223c40.667 0 61.334 -20.667 62.001 -62v-973
c0 -40.667 -20.667 -61 -62 -61h-223c-40.667 -0 -61 20.333 -61 61v64c-116 -96.667 -232.667 -145 -350 -145c-142 0 -251.333 37.333 -328 112c-84.667 84.667 -127 207.667 -127 369zM300.999 1374v39c0 76.667 38.333 115 115 115h96c76.667 0 115 -38.333 115 -115
v-39c0 -76.667 -38.333 -114.667 -115 -114h-96c-76.667 -0.666992 -115 37.333 -115 114zM802.999 1374v39c0.666992 76.667 39 115 115 115h96c76.667 0 114.667 -38.333 114 -115v-39c0 -76.667 -38 -114.667 -114 -114h-96c-76 -0.666992 -114.333 37.333 -115 114z" />
    <glyph glyph-name="yacute" unicode="&#xfd;" horiz-adv-x="1294" 
d="M35 1036c-2.66699 6 -4.00098 11.6631 -4.00098 16.9961c0 8.66699 3.33301 16.667 10 24c10.667 12 24.334 18.333 41.001 19h209c46.667 0 76.667 -22.667 90 -68l131 -424c57.333 -184 130.333 -276 219 -276l199 700c10.667 45.333 38.667 68 84 68h211
c16.667 0 29.667 -6.33301 39 -19c6.66699 -8.66699 10 -18 10 -28c0 -4 -0.666992 -8.33301 -2 -13l-262 -934c-46.667 -165.333 -104 -282.666 -172 -351.999c-69.333 -72.667 -162.333 -108.667 -279 -108c-105.333 0 -192 6.66699 -260 20
c-40.667 6.66699 -61 27.334 -61 62.001v110c0 40.667 20.333 61.334 61 62.001h37c19.333 0 40.333 -3 63 -9c26 -5.33301 48.667 -8 68 -8c94 0 159.667 69 197 207c-112 0 -204.333 32 -277 96c-79.333 70.667 -147 194.334 -203 371.001zM583.999 1333l49 189
c26 76.667 69.667 114.667 131 114h90c44 0 72.667 -14 86 -42c5.33301 -10.667 8 -21.667 8 -33c0 -18.667 -6.66699 -38.667 -20 -60l-109 -188c-36.667 -62.667 -77.667 -94 -123 -94h-47c-49.333 0 -74 21.333 -74 64c0.666992 14 3.66699 30.667 9 50z" />
    <glyph glyph-name="thorn" unicode="&#xfe;" horiz-adv-x="1355" 
d="M123 -276v1648c0 18 5.83301 32.833 17.5 44.5s26.167 17.5 43.5 17.5h224c18 0 32.667 -5.83301 44 -17.5s17 -26.5 17 -44.5v-307c108 34 204.333 51 289 51c164 0 294.333 -48.5 391 -145.5s145 -237.667 145 -422s-48.333 -325.166 -145 -422.499
s-227 -146 -391 -146c-84.667 0 -181 17 -289 51v-307c0 -18 -5.83301 -32.833 -17.5 -44.5s-26.167 -17.5 -43.5 -17.5h-224c-18 0 -32.667 5.83301 -44 17.5s-17 26.5 -17 44.5zM469 261.999c86 -27.333 158.333 -41 217 -41c91.333 0 156.166 26 194.499 78
s57.5 135.333 57.5 250s-19.167 197.5 -57.5 248.5s-103.166 76.5 -194.499 76.5c-58.667 0 -131 -13.333 -217 -40v-572z" />
    <glyph glyph-name="ydieresis" unicode="&#xff;" horiz-adv-x="1294" 
d="M35 1036c-2 5.33301 -3.00195 10.332 -3.00195 14.999c0 9.33301 3.33301 18 10 26c10 12 23.333 18.333 40 19h209c19.333 0 37.833 -6.5 55.5 -19.5s29.167 -29.167 34.5 -48.5l131 -424c32.667 -104 65.834 -176 99.501 -216s73.5 -60 119.5 -60l199 700
c5.33301 19.333 15.833 35.5 31.5 48.5s33.167 19.5 52.5 19.5h211c16.667 0 29.667 -6.33301 39 -19c6.66699 -8.66699 10 -18 10 -28c0 -4 -0.666992 -8.33301 -2 -13l-262 -934c-46.667 -165.333 -104.5 -283.333 -173.5 -354s-161.5 -106 -277.5 -106
c-101.333 0 -188 6.66699 -260 20c-18 2.66699 -32.667 9.83398 -44 21.501s-17 25.167 -17 40.5v110c0 18 5.66699 32.833 17 44.5s26 17.5 44 17.5h37c15.333 0 36.833 -2.83301 64.5 -8.5s49.834 -8.5 66.501 -8.5c94 0 159.667 69 197 207
c-113.333 0 -208 34.167 -284 102.5s-141.333 189.833 -196 364.5zM253.998 1300v39c0 35.333 10.167 63.333 30.5 84s48.5 31 84.5 31h96c35.333 0 63.333 -10.167 84 -30.5s31 -48.5 31 -84.5v-39c0 -35.333 -10.333 -63.166 -31 -83.499s-48.667 -30.5 -84 -30.5h-96
c-35.333 0 -63.333 10.167 -84 30.5s-31 48.166 -31 83.499zM755.998 1300v39c0 35.333 10.167 63.333 30.5 84s48.166 31 83.499 31h97c35.333 0 63.166 -10.167 83.499 -30.5s30.5 -48.5 30.5 -84.5v-39c0 -35.333 -10.167 -63.166 -30.5 -83.499
s-48.166 -30.5 -83.499 -30.5h-97c-35.333 0 -63.166 10.167 -83.499 30.5s-30.5 48.166 -30.5 83.499z" />
    <glyph glyph-name="Ccaron" unicode="&#x10c;" horiz-adv-x="1673" 
d="M61 716.5c0 247 61.833 429.667 185.5 548s309.167 177.5 556.5 177.5h223c151.333 0 285.166 -39.333 401.499 -118s174.5 -186.334 174.5 -323.001c0 -39.333 -11.667 -67.5 -35 -84.5s-46 -25.5 -68 -25.5h-119c-61.333 0 -109 36.667 -143 110
c-49.333 105.333 -131.333 158 -246 158h-178c-146 0 -245 -31.333 -297 -94s-78 -178.667 -78 -348s26 -285.5 78 -348.5s151 -94.5 297 -94.5h199c114.667 0 196.334 52.667 245.001 158c34 74 82 111 144 111h119c12 0 24.833 -2.5 38.5 -7.5s27.667 -16.667 42 -35
s21.5 -41.166 21.5 -68.499c0 -136.667 -58 -244.167 -174 -322.5s-249.667 -117.5 -401 -117.5h-244c-247.333 0 -432.833 59 -556.5 177s-185.5 300.5 -185.5 547.5zM479 1808c10.667 20.667 28.332 31 52.999 31h146c38 0 86.333 -28 145 -84l33 -31l35 31
c58.667 56 107 84 145 84h146c24.667 0 42.334 -10.333 53.001 -31c4 -7.33301 6 -14.333 6 -21c0 -12.667 -6 -24.667 -18 -36l-158 -143c-61.333 -58.667 -110.333 -88 -147 -88h-123c-36.667 0 -86 29.333 -148 88l-155 143c-12 11.333 -18.333 23.333 -19 36
c0 6.66699 2 13.667 6 21z" />
    <glyph glyph-name="ccaron" unicode="&#x10d;" horiz-adv-x="1271" 
d="M61 547c0 187.333 51.668 329.002 155.001 425.002s249.666 144 438.999 144c178.667 0 317.667 -29.333 417 -88s149 -145.334 149 -260.001c0 -18 -5.83301 -32.667 -17.5 -44s-26.5 -17 -44.5 -17h-149c-45.333 0 -83.666 24.333 -114.999 73
c-39.333 62.667 -111 94 -215 94c-95.333 0 -162.833 -25.5 -202.5 -76.5s-59.5 -134.5 -59.5 -250.5c0 -114.667 20.5 -197.667 61.5 -249s111.167 -77 210.5 -77c104 0 175.667 31.333 215 94c31.333 49.333 69.666 74 114.999 74h149c18 0 32.833 -5.83301 44.5 -17.5
s17.5 -26.167 17.5 -43.5c0 -114.667 -49.5 -201.334 -148.5 -260.001s-237.833 -88 -416.5 -88c-195.333 0 -345 48 -449 144s-156 237 -156 423zM317.001 1492c10.667 20 28.666 30 53.999 30h145c38 0 86.667 -28 146 -84l32 -31l35 31c58.667 56 107 84 145 84h146
c24.667 0 42.334 -10 53.001 -30c4 -7.33301 6 -14.333 6 -21c0 -12.667 -6 -25 -18 -37l-158 -144c-61.333 -58.667 -110.333 -88 -147 -88h-123c-36.667 0 -86 29.333 -148 88l-155 144c-12 12 -18.333 24.333 -19 37c0 6.66699 2 13.667 6 21z" />
    <glyph glyph-name="Dcaron" unicode="&#x10e;" horiz-adv-x="1687" 
d="M143 92v1245c0 27.333 9.33301 50.333 28 69s41 28 67 28h559c289.333 0 499.833 -57.833 631.5 -173.5s197.5 -297 197.5 -544s-65.833 -428.167 -197.5 -543.5s-342.167 -173 -631.5 -173h-559c-26 -0 -48.333 8.83301 -67 26.5s-28 39.5 -28 65.5zM465 1829
c10.667 20.667 28.332 31.001 52.999 31.001h146c38 0 86.333 -28 145 -84l33 -31l35 31c58.667 56 107 84 145 84h145c24.667 0 42.5 -10.333 53.5 -31s6.83301 -39.667 -12.5 -57l-157 -144c-61.333 -58.667 -110.666 -88 -147.999 -88h-123
c-36.667 0 -85.667 29.333 -147 88l-156 144c-12 11.333 -18 23 -18 35c0 7.33301 2 14.666 6 21.999zM519.998 283.001l266 0.000976562c178.667 0 300.5 32.667 365.5 98s97.5 177.166 97.5 335.499s-32.333 270.333 -97 336s-186.667 98.5 -366 98.5h-266v-868z" />
    <glyph glyph-name="dcaron" unicode="&#x10f;" horiz-adv-x="1556" 
d="M61 547c0 184 49.999 325.998 149.999 425.998c94 95.333 223 143 387 143c86 0 182.333 -17 289 -51v307c0 40.667 20.333 61.334 61 62.001h223c40.667 0 61.334 -20.667 62.001 -62v-1311c0 -40.667 -20.667 -61 -62 -61h-192c-40.667 0 -61 20.333 -61 61v31
c-104 -75.333 -221 -112.666 -351 -111.999c-150 0 -270.667 47.667 -362 143c-96 100 -144 241.333 -144 424zM417.999 546.998c0 -113.333 18.334 -195.999 55.001 -247.999c35.333 -52 94 -78 176 -78c61.333 0 140.666 30 237.999 90v523
c-88.667 27.333 -161 40.666 -217 39.999c-90 0 -155 -25.667 -195 -77c-38 -50.667 -57 -134 -57 -250zM1339 980.999l4 337.999c0 30 9.33301 56.667 28 80s41.667 35 69 35h80c35.333 0 62.333 -10.333 81 -31c14 -16 21 -36 21 -60
c0 -7.33301 -0.666992 -14.666 -2 -21.999l-70 -360c-10.667 -49.333 -44 -74 -100 -74h-29c-28.667 0 -49.5 7.16699 -62.5 21.5s-19.5 38.5 -19.5 72.5z" />
    <glyph glyph-name="Ecaron" unicode="&#x11a;" horiz-adv-x="1525" 
d="M143 96v1245c0 26 9.33301 48 28 66s41 27 67 27h1153c26 0 48.167 -9.33301 66.5 -28s27.5 -41 27.5 -67v-94c0 -26 -9.16699 -48.167 -27.5 -66.5s-40.5 -27.5 -66.5 -27.5h-871v-291h750c26 0 48.167 -9.16699 66.5 -27.5s27.5 -40.5 27.5 -66.5v-94
c0 -26 -9.16699 -48.167 -27.5 -66.5s-40.5 -27.5 -66.5 -27.5h-750v-295h869c26 0 47.833 -9 65.5 -27s26.5 -40 26.5 -66v-96c0 -26 -9.33301 -48.167 -28 -66.5s-41 -27.5 -67 -27.5h-1148c-26 0 -48.333 9.16699 -67 27.5s-28 41.166 -28 68.499zM426 1808
c10.667 20.667 28.332 31 52.999 31h146c38 0 86.333 -28 145 -84l33 -31l35 31c58.667 56 107 84 145 84h145c24.667 0 42.667 -10.333 54 -31c4 -7.33301 6 -14.333 6 -21c0 -12.667 -6.33301 -24.667 -19 -36l-157 -143c-61.333 -58.667 -110.666 -88 -147.999 -88h-123
c-36.667 0 -85.667 29.333 -147 88l-156 143c-12 11.333 -18 23.333 -18 36c0 6.66699 2 13.667 6 21z" />
    <glyph glyph-name="ecaron" unicode="&#x11b;" horiz-adv-x="1290" 
d="M61 546.5c0 183 51.668 323.667 155.001 422s246.333 147.5 429 147.5c184 0 327.333 -47.833 430 -143.5s154 -232.834 154 -411.501v-57c0 -18 -5.83301 -32.833 -17.5 -44.5s-26.5 -17.5 -44.5 -17.5h-753c6.66699 -82 30.167 -141.667 70.5 -179
s102.166 -56 185.499 -56c94 0 159.333 22.333 196 67c28.667 35.333 67 53.333 115 54h149c18 0 32.833 -5.83301 44.5 -17.5s17.5 -26.5 17.5 -44.5c0 -191.333 -182.333 -286.666 -547 -285.999c-184 0 -327.333 48.667 -430 146s-154 237.5 -154 420.5zM299.001 1492
c10.667 20 28.332 30 52.999 30h146c38 0 86.333 -28 145 -84l33 -31l35 31c58.667 56 107 84 145 84h145c24.667 0 42.667 -10 54 -30c4 -7.33301 6 -14.333 6 -21c0 -12.667 -6.33301 -25 -19 -37l-157 -144c-61.333 -58.667 -110.666 -88 -147.999 -88h-123
c-36.667 0 -85.667 29.333 -147 88l-156 144c-12 12 -18 24.333 -18 37c0 6.66699 2 13.667 6 21zM411.999 653h465.001c-6.66699 157.333 -83.834 236 -231.501 236s-225.5 -78.667 -233.5 -236z" />
    <glyph glyph-name="hbar" unicode="&#x127;" horiz-adv-x="1492" 
d="M20 1116l-0.000976562 108.999c0 18 5.83301 32.667 17.5 44s26.5 17 44.5 17h137v86c0 18 5.83301 32.833 17.5 44.5s26.5 17.5 44.5 17.5h223c18 0 32.667 -5.83301 44 -17.5s17 -26.5 17 -44.5v-86h158c18 0 32.667 -5.83301 44 -17.5s17 -26.167 17 -43.5v-109
c0 -18 -5.66699 -32.667 -17 -44s-26 -17 -44 -17h-158v-228c114.667 96.667 231.334 145.334 350.001 146.001c140.667 0 251.667 -39.667 333 -119s122 -200 122 -362v-431c0 -18 -5.83301 -32.667 -17.5 -44s-26.167 -17 -43.5 -17h-224c-18 -0 -32.667 5.83301 -44 17.5
s-17 26.167 -17 43.5v431c0 160 -63.333 239.667 -190 239c-83.333 0 -173 -47.667 -269 -143v-527c0 -18 -5.83301 -32.667 -17.5 -44s-26.167 -17 -43.5 -17h-223c-18 -0 -32.833 5.83301 -44.5 17.5s-17.5 26.167 -17.5 43.5v994h-137c-18 0 -32.833 5.66699 -44.5 17
s-17.5 26 -17.5 44z" />
    <glyph glyph-name="Itilde" unicode="&#x128;" horiz-adv-x="663" 
d="M-10 1587c0 87.333 21.501 153.5 64.501 198.5s93.167 67.5 150.5 67.5c40.667 0 85.667 -13.5 135 -40.5s86.166 -40.5 110.499 -40.5s44 11.833 59 35.5s32.167 35.5 51.5 35.5h82c20.667 0 31 -10.333 31 -31c0 -87.333 -21.167 -153.5 -63.5 -198.5
s-92.166 -67.5 -149.499 -67.5c-39.333 0 -84.333 13.667 -135 41s-87.667 41 -111 41c-24.667 0 -44.834 -12 -60.501 -36s-33.167 -36 -52.5 -36h-82c-20 0 -30 10.333 -30 31zM143.001 92l0.000976562 1247c0 26 9.33301 48.333 28 67s41 28 67 28h186
c27.333 0 50.166 -9.33301 68.499 -28s27.5 -41 27.5 -67v-1245c0 -26 -9.5 -48.167 -28.5 -66.5s-41.5 -27.5 -67.5 -27.5h-186c-26 -0 -48.333 8.83301 -67 26.5s-28 39.5 -28 65.5z" />
    <glyph glyph-name="itilde" unicode="&#x129;" horiz-adv-x="643" 
d="M-20 1229c0 87.333 21.499 153.5 64.499 198.5s93.167 67.5 150.5 67.5c39.333 0 84.333 -13.667 135 -41s87.334 -41 110.001 -41c24.667 0 44.5 12 59.5 36s32.167 36 51.5 36h82c20.667 0 31 -10.333 31 -31c0 -87.333 -21.167 -153.5 -63.5 -198.5
s-92.166 -67.5 -149.499 -67.5c-40.667 0 -85.667 13.667 -135 41s-86.333 41 -111 41s-44.834 -12 -60.501 -36s-33.167 -36 -52.5 -36h-82c-20 0 -30 10.333 -30 31zM146.999 61v949c0 18 5.83301 32.667 17.5 44s26.5 17 44.5 17h223c18 0 32.833 -5.83301 44.5 -17.5
s17.5 -26.167 17.5 -43.5v-949c0 -18 -5.83301 -32.667 -17.5 -44s-26.5 -17 -44.5 -17h-223c-18 0 -32.833 5.66699 -44.5 17s-17.5 26 -17.5 44z" />
    <glyph glyph-name="dotlessi" unicode="&#x131;" horiz-adv-x="632" 
d="M143 61v973c0 18 5.83301 32.833 17.5 44.5s26.5 17.5 44.5 17.5h223c18 0 32.667 -5.83301 44 -17.5s17 -26.5 17 -44.5v-973c0 -18 -5.66699 -32.667 -17 -44s-26 -17 -44 -17h-223c-18 0 -32.833 5.66699 -44.5 17s-17.5 26 -17.5 44z" />
    <glyph glyph-name="ij" unicode="&#x133;" horiz-adv-x="1216" 
d="M123 1305v34c0 35.333 10.167 63.333 30.5 84s48.5 31 84.5 31h124c35.333 0 63.333 -10.167 84 -30.5s31 -48.5 31 -84.5v-34c0 -35.333 -10.167 -63.333 -30.5 -84s-48.5 -31 -84.5 -31h-124c-35.333 0 -63.333 10.333 -84 31s-31 48.667 -31 84zM127 61v949
c0 18 5.83301 32.667 17.5 44s26.167 17 43.5 17h224c18 0 32.667 -5.83301 44 -17.5s17 -26.167 17 -43.5v-949c0 -18 -5.83301 -32.667 -17.5 -44s-26.167 -17 -43.5 -17h-224c-18 0 -32.667 5.66699 -44 17s-17 26 -17 44zM395 -168c0 18 5.83398 32.833 17.501 44.5
s26.5 17.5 44.5 17.5h30c12 0 28.667 -2.5 50 -7.5s39 -7.5 53 -7.5c36.667 0 68 18.5 94 55.5s39 96.5 39 178.5v897c0 18 5.83301 32.667 17.5 44s26.167 17 43.5 17h224c18 0 32.667 -5.83301 44 -17.5s17 -26.167 17 -43.5v-897c0 -314 -129 -471 -387 -471
c-91.333 0 -166.333 6.66699 -225 20c-40.667 9.33301 -61.334 30 -62.001 62v108zM719.001 1305v34c0 35.333 10.167 63.333 30.5 84s48.5 31 84.5 31h124c35.333 0 63.333 -10.167 84 -30.5s31 -48.5 31 -84.5v-34c0 -35.333 -10.167 -63.333 -30.5 -84
s-48.5 -31 -84.5 -31h-124c-35.333 0 -63.333 10.333 -84 31s-31 48.667 -31 84z" />
    <glyph glyph-name="Jcircumflex" unicode="&#x134;" horiz-adv-x="1132" 
d="M0 94l-0.00195312 113c0 26 8.83301 48.167 26.5 66.5s40.167 27.5 67.5 27.5h33c18 0 45.333 -3 82 -9s65.334 -9 86.001 -9h72c92.667 0 159.834 19 201.501 57s62.5 102 62.5 192v807c0 26 9.16699 48.333 27.5 67s40.5 28 66.5 28h186
c27.333 0 50.333 -9.33301 69 -28s28 -41 28 -67v-804c0 -170.667 -56.667 -302.5 -170 -395.5s-267 -139.5 -461 -139.5h-283c-26 0 -48.167 9.16699 -66.5 27.5s-27.5 40.5 -27.5 66.5zM431.998 1588c-4 7.33301 -5.99707 14.666 -5.99707 21.999c0 12.667 6 25 18 37
l156 143c61.333 58.667 110.666 88 147.999 88h122c36.667 0 86 -29.333 148 -88l158 -143c12 -12 18 -24.333 18 -37c0 -7.33301 -2 -14.666 -6 -21.999c-10.667 -20 -28.334 -29.667 -53.001 -29h-146c-38 0 -86.333 27.667 -145 83l-35 31l-33 -31
c-58.667 -56 -107 -83.667 -145 -83h-146c-24.667 -0.666992 -42.334 9 -53.001 29z" />
    <glyph glyph-name="jcircumflex" unicode="&#x135;" horiz-adv-x="651" 
d="M-164 -168c0 18 5.83398 32.833 17.501 44.5s26.5 17.5 44.5 17.5h30c12 0 28.667 -2.5 50 -7.5s39 -7.5 53 -7.5c36.667 0 68 18.5 94 55.5s39 96.5 39 178.5v897c0 18 5.83301 32.667 17.5 44s26.167 17 43.5 17h224c18 0 32.667 -5.83301 44 -17.5
s17 -26.167 17 -43.5v-897c0 -314 -129 -471 -387 -471c-91.333 0 -166.333 6.66699 -225 20c-40.667 9.33301 -61.334 30 -62.001 62v108zM-48.999 1211c-4 7.33301 -5.99902 14.666 -5.99902 21.999c0 12.667 6 25 18 37l156 143c61.333 58.667 110.333 88 147 88h123
c36.667 0 86 -29.333 148 -88l157 -143c12 -12 18.333 -24.333 19 -37c0 -7.33301 -2 -14.666 -6 -21.999c-10.667 -20 -28.667 -29.667 -54 -29h-145c-38 0 -86.667 28 -146 84l-34 30l-33 -30c-58 -56 -106.333 -84 -145 -84h-146c-24.667 -0.666992 -42.334 9 -53.001 29
z" />
    <glyph glyph-name="kcommaaccent" unicode="&#x137;" horiz-adv-x="1249" 
d="M123 61v1311c0 18 5.83301 32.833 17.5 44.5s26.167 17.5 43.5 17.5h224c18 0 32.667 -5.83301 44 -17.5s17 -26.5 17 -44.5v-710c116 0 195.333 45 238 135l96 204c13.333 28.667 33 51.667 59 69s54 26 84 26h189c33.333 0 50 -13 50 -39
c0 -14.667 -5.33301 -33.334 -16 -56.001l-129 -272c-22 -45.333 -52 -84.333 -90 -117s-79 -53.667 -123 -63c82 -24.667 153 -84.667 213 -180l170 -275c11.333 -19.333 17.333 -36 18 -50c0 -6 -1 -11.667 -3 -17c-6.66699 -18 -23 -27 -49 -27h-189
c-64 -0 -115 31.333 -153 94l-127 207c-54.667 88.667 -134 133 -238 133v-373c0 -18 -5.83301 -32.667 -17.5 -44s-26.167 -17 -43.5 -17h-224c-18 0 -32.667 5.66699 -44 17s-17 26 -17 44zM524 -370.999l4 276.999c0 30 9.33301 56.5 28 79.5s41.667 34.5 69 34.5h80
c35.333 0 62 -10 80 -30c14 -16 21.333 -36 22 -60c0 -7.33301 -0.666992 -14.666 -2 -21.999l-70 -299c-10.667 -49.333 -44 -74 -100 -74h-29c-28.667 0 -49.5 7.16699 -62.5 21.5s-19.5 38.5 -19.5 72.5z" />
    <glyph glyph-name="kgreenlandic" unicode="&#x138;" horiz-adv-x="1249" 
d="M123 61v973.001c0 18 5.83301 32.833 17.5 44.5s26.167 17.5 43.5 17.5h224c18 0 32.667 -5.83301 44 -17.5s17 -26.5 17 -44.5v-372c116 0 195.333 45 238 135l96 204c13.333 28.667 33 51.667 59 69s54 26 84 26h189c33.333 0 50 -13 50 -39
c0 -14.667 -5.33301 -33.334 -16 -56.001l-129 -272c-22 -45.333 -52 -84.333 -90 -117s-79 -53.667 -123 -63c82 -24.667 153 -84.667 213 -180l170 -275c11.333 -19.333 17.333 -36 18 -50c0 -6 -1 -11.667 -3 -17c-6.66699 -18 -23 -27 -49 -27h-189
c-64 -0 -115 31.333 -153 94l-127 207c-54.667 88.667 -134 133 -238 133v-373c0 -18 -5.83301 -32.667 -17.5 -44s-26.167 -17 -43.5 -17h-224c-18 0 -32.667 5.66699 -44 17s-17 26 -17 44z" />
    <glyph glyph-name="Lacute" unicode="&#x139;" horiz-adv-x="1505" 
d="M143 92v1245c0 27.333 9 50 27 68c19.333 19.333 42 29 68 29h188c26 0 48.667 -9.66699 68 -29c18 -18 26.667 -40.667 26 -68v-1054h871c26 0 47.667 -9 65 -27c19.333 -19.333 29 -42 29 -68v-94c0 -26 -9.66699 -48.333 -29 -67c-18 -18 -39.667 -27 -65 -27h-1153
c-26 0 -48 9 -66 27c-19.333 18.667 -29 40.334 -29 65.001zM240 1661l49 188.001c26 76.667 69.667 115 131 115h90c44 0 72.667 -14 86 -42c5.33301 -10.667 8 -22 8 -34c0 -18.667 -6.66699 -38.334 -20 -59.001l-109 -189c-36.667 -62.667 -77.667 -94 -123 -94h-47
c-49.333 0 -74 21.667 -74 65c0.666992 14 3.66699 30.667 9 50z" />
    <glyph glyph-name="lacute" unicode="&#x13a;" horiz-adv-x="591" 
d="M123 61v1311c0 40.667 20.333 61.334 61 62.001h224c40.667 0 61 -20.667 61 -62v-1311c0 -40.667 -20.333 -61 -61 -61h-224c-40.667 -0 -61 20.333 -61 61zM219 1681l49 189c26 76.667 69.667 115 131 115h90c44 0 72.667 -14 86 -42c5.33301 -10.667 8 -22 8 -34
c0 -18.667 -6.66699 -38.667 -20 -60l-108 -188c-36.667 -62.667 -77.667 -94 -123 -94h-47c-49.333 0 -74 21.333 -74 64c0 14 2.66699 30.667 8 50z" />
    <glyph glyph-name="Lcaron" unicode="&#x13d;" horiz-adv-x="1505" 
d="M143 92v1245c0 27.333 9 50 27 68c19.333 19.333 42 29 68 29h188c26 0 48.667 -9.66699 68 -29c18 -18 26.667 -40.667 26 -68v-1054h871c26 0 47.667 -9 65 -27c19.333 -19.333 29 -42 29 -68v-94c0 -26 -9.66699 -48.333 -29 -67c-18 -18 -39.667 -27 -65 -27h-1153
c-26 0 -48 9 -66 27c-19.333 18.667 -29 40.334 -29 65.001zM631 980.999l4.00195 337.999c0 30 9.16699 56.667 27.5 80s41.166 35 68.499 35h80c35.333 0 62.333 -10.333 81 -31c14 -16 21 -36 21 -60c0 -7.33301 -0.666992 -14.666 -2 -21.999l-69 -360
c-10.667 -49.333 -44.334 -74 -101.001 -74h-28c-28.667 0 -49.5 7.16699 -62.5 21.5s-19.5 38.5 -19.5 72.5z" />
    <glyph glyph-name="lcaron" unicode="&#x13e;" horiz-adv-x="798" 
d="M123 61v1311c0 40.667 20.333 61.334 61 62.001h224c40.667 0 61 -20.667 61 -62v-1311c0 -40.667 -20.333 -61 -61 -61h-224c-40.667 -0 -61 20.333 -61 61zM582 980.999l4.00195 337.999c0 30 9.16699 56.667 27.5 80s41.166 35 68.499 35h80
c35.333 0 62.333 -10.333 81 -31c14 -16 21 -36 21 -60c0 -7.33301 -0.666992 -14.666 -2 -21.999l-69 -360c-10.667 -49.333 -44.334 -74 -101.001 -74h-28c-28.667 0 -49.5 7.16699 -62.5 21.5s-19.5 38.5 -19.5 72.5z" />
    <glyph glyph-name="ldot" unicode="&#x140;" horiz-adv-x="962" 
d="M123 61v1311c0 18 5.83301 32.833 17.5 44.5s26.167 17.5 43.5 17.5h224c18 0 32.667 -5.83301 44 -17.5s17 -26.5 17 -44.5v-1311c0 -18 -5.83301 -32.667 -17.5 -44s-26.167 -17 -43.5 -17h-224c-18 0 -32.667 5.66699 -44 17s-17 26 -17 44zM575 649v39
c0 76.667 38.333 115 115 115h96c76.667 0 115 -38.333 115 -115v-39c0 -76.667 -38.333 -114.667 -115 -114h-96c-76.667 -0.666992 -115 37.333 -115 114z" />
    <glyph glyph-name="Lslash" unicode="&#x141;" horiz-adv-x="1566" 
d="M0 487v159.998c-0 35.333 20.333 62.666 61 81.999l144 70v538c0 27.333 9.16699 50.333 27.5 69s40.5 28 66.5 28h188c26 0 48.333 -9.33301 67 -28s28 -41.667 28 -69v-356l153 76c15.333 6.66699 29.5 5.83398 42.5 -2.49902s19.5 -21.166 19.5 -38.499v-160
c0 -35.333 -20.667 -62.666 -62 -81.999l-153 -76v-415h870c26 0 48.167 -9.33301 66.5 -28s27.5 -41 27.5 -67v-94c0 -26 -9.16699 -48.167 -27.5 -66.5s-40.5 -27.5 -66.5 -27.5h-1153c-26 -0 -48.167 8.83301 -66.5 26.5s-27.5 39.5 -27.5 65.5v424l-144 -70
c-15.333 -6.66699 -29.333 -6 -42 2s-19 21 -19 39z" />
    <glyph glyph-name="lslash" unicode="&#x142;" horiz-adv-x="776" 
d="M0 498v158.998c-0 35.333 20.333 62.666 61 81.999l144 70v563c0 18 5.83301 32.833 17.5 44.5s26.167 17.5 43.5 17.5h223c18 0 32.833 -5.83301 44.5 -17.5s17.5 -26.5 17.5 -44.5v-395l164 80c15.333 6.66699 29.333 5.83398 42 -2.49902s19 -21.166 19 -38.499v-160
c0 -35.333 -20.333 -62.666 -61 -81.999l-164 -80v-633c0 -18 -5.83301 -32.667 -17.5 -44s-26.5 -17 -44.5 -17h-223c-18 -0 -32.667 5.83301 -44 17.5s-17 26.167 -17 43.5v465l-144 -69c-15.333 -6.66699 -29.333 -6 -42 2s-19 21 -19 39z" />
    <glyph glyph-name="Nacute" unicode="&#x143;" horiz-adv-x="1775" 
d="M143 94v1245c0 26 9 48.333 27 67s40 28 66 28h294c23.333 0 48 -9.33301 74 -28s47.333 -41 64 -67l604 -929v931c0 26 9.16699 48 27.5 66s40.5 27 66.5 27h172c26 0 48.167 -9 66.5 -27s27.5 -40.667 27.5 -68v-1245c0 -26 -9.16699 -48.167 -27.5 -66.5
s-40.5 -27.5 -66.5 -27.5h-332c-26 0 -52.667 9.16699 -80 27.5s-49 40.5 -65 66.5l-553 858v-858c0 -26 -9.16699 -48.167 -27.5 -66.5s-40.5 -27.5 -66.5 -27.5h-176c-26 0 -48.333 9.16699 -67 27.5s-28 40.5 -28 66.5zM827 1610l50 188.001
c26 76.667 69.667 115 131 115h90c44 0 72.667 -14 86 -42c5.33301 -10.667 8 -22 8 -34c0 -18.667 -7 -38.334 -21 -59.001l-108 -189c-36.667 -62.667 -77.667 -94 -123 -94h-47c-49.333 0 -74 21.667 -74 65c0 14 2.66699 30.667 8 50z" />
    <glyph glyph-name="nacute" unicode="&#x144;" 
d="M123 61l-0.00195312 973c0 18 5.83301 32.833 17.5 44.5s26.167 17.5 43.5 17.5h224c18 0 32.667 -5.83301 44 -17.5s17 -26.5 17 -44.5v-63c114.667 96.667 231.334 145 350.001 145c140.667 0 251.667 -39.5 333 -118.5s122 -199.833 122 -362.5v-574
c0 -18 -5.83301 -32.667 -17.5 -44s-26.5 -17 -44.5 -17h-223c-18 -0 -32.667 5.83301 -44 17.5s-17 26.167 -17 43.5v574c0 160 -63.667 239.667 -191 239c-83.333 0 -172.666 -47.667 -267.999 -143v-670c0 -18 -5.83301 -32.667 -17.5 -44s-26.167 -17 -43.5 -17h-224
c-18 0 -32.667 5.66699 -44 17s-17 26 -17 44zM638.998 1313l49.001 188.001c26 76.667 69.667 115 131 115h90c44 0 72.667 -14 86 -42c5.33301 -10.667 8 -22 8 -34c0 -18.667 -6.66699 -38.334 -20 -59.001l-109 -189c-36.667 -62.667 -77.334 -94 -122.001 -94h-47
c-49.333 0 -74 21.667 -74 65c0 14 2.66699 30.667 8 50z" />
    <glyph glyph-name="Ncaron" unicode="&#x147;" horiz-adv-x="1775" 
d="M143 94v1245c0 26 9 48.333 27 67s40 28 66 28h294c23.333 0 48 -9.33301 74 -28s47.333 -41 64 -67l604 -929v931c0 26 9.16699 48 27.5 66s40.5 27 66.5 27h172c26 0 48.167 -9 66.5 -27s27.5 -40.667 27.5 -68v-1245c0 -26 -9.16699 -48.167 -27.5 -66.5
s-40.5 -27.5 -66.5 -27.5h-332c-26 0 -52.667 9.16699 -80 27.5s-49 40.5 -65 66.5l-553 858v-858c0 -26 -9.16699 -48.167 -27.5 -66.5s-40.5 -27.5 -66.5 -27.5h-176c-26 0 -48.333 9.16699 -67 27.5s-28 40.5 -28 66.5zM530 1788
c10.667 20.667 28.666 31.001 53.999 31.001h145c38 0 86.333 -28 145 -84l33 -31l35 31c58.667 56 107 84 145 84h146c24.667 0 42.334 -10.333 53.001 -31c4 -7.33301 6 -14.666 6 -21.999c0 -12.667 -6 -24.334 -18 -35.001l-158 -144
c-61.333 -58.667 -110.333 -88 -147 -88h-123c-36.667 0 -86 29.333 -148 88l-155 144c-12 11.333 -18.333 23 -19 35c0 7.33301 2 14.666 6 21.999z" />
    <glyph glyph-name="ncaron" unicode="&#x148;" 
d="M123 61l-0.00195312 973c0 18 5.83301 32.833 17.5 44.5s26.167 17.5 43.5 17.5h224c18 0 32.667 -5.83301 44 -17.5s17 -26.5 17 -44.5v-63c114.667 96.667 231.334 145 350.001 145c140.667 0 251.667 -39.5 333 -118.5s122 -199.833 122 -362.5v-574
c0 -18 -5.83301 -32.667 -17.5 -44s-26.5 -17 -44.5 -17h-223c-18 -0 -32.667 5.83301 -44 17.5s-17 26.167 -17 43.5v574c0 160 -63.667 239.667 -191 239c-83.333 0 -172.666 -47.667 -267.999 -143v-670c0 -18 -5.83301 -32.667 -17.5 -44s-26.167 -17 -43.5 -17h-224
c-18 0 -32.667 5.66699 -44 17s-17 26 -17 44zM339.998 1471c10.667 20 28.332 30 52.999 30h146c38 0 86.333 -28 145 -84l33 -31l35 31c58.667 56 107 84 145 84h145c24.667 0 42.667 -10 54 -30c4 -7.33301 6 -14.333 6 -21c0 -12.667 -6.33301 -25 -19 -37l-157 -143
c-61.333 -58.667 -110.666 -88 -147.999 -88h-123c-36.667 0 -85.667 29.333 -147 88l-156 143c-12 12 -18 24.333 -18 37c0 6.66699 2 13.667 6 21z" />
    <glyph glyph-name="OE" unicode="&#x152;" horiz-adv-x="2488" 
d="M61 716.5c0 247 66 428.333 198 544s342.667 173.5 632 173.5h1462c26 0 48.167 -9.33301 66.5 -28s27.5 -41 27.5 -67v-94c0 -26 -9.16699 -48.167 -27.5 -66.5s-40.5 -27.5 -66.5 -27.5h-870v-291h749c26 0 48.333 -9.16699 67 -27.5s28 -40.5 28 -66.5v-94
c0 -26 -9.33301 -48.167 -28 -66.5s-41 -27.5 -67 -27.5h-749v-295h868c26 0 47.833 -9 65.5 -27s26.5 -40 26.5 -66v-96c0 -26 -9.16699 -48.167 -27.5 -66.5s-40.5 -27.5 -66.5 -27.5h-1458c-289.333 0 -500 57.667 -632 173s-198 296.5 -198 543.5zM438 716.5
c0 -158.333 32.5 -270.167 97.5 -335.5s186.833 -98 365.5 -98h205v868h-205c-178.667 0 -300.5 -32.833 -365.5 -98.5s-97.5 -177.667 -97.5 -336z" />
    <glyph glyph-name="oe" unicode="&#x153;" horiz-adv-x="2150" 
d="M61 548.5c0 187 52.001 328.333 156.001 424s253.667 143.5 449 143.5c187.333 0 330.666 -56.667 429.999 -170c96.667 113.333 233 170 409 170c184 0 327.333 -47.833 430 -143.5s154 -232.834 154 -411.501v-57c0 -18 -5.83301 -32.833 -17.5 -44.5
s-26.167 -17.5 -43.5 -17.5h-754c6.66699 -82 30.167 -141.667 70.5 -179s102.166 -56 185.499 -56c94 0 159.333 22.333 196 67c28.667 35.333 67 53.333 115 54h150c18 0 32.667 -5.83301 44 -17.5s17 -26.5 17 -44.5c0 -191.333 -182.333 -286.666 -547 -285.999
c-177.333 0 -313.666 55.667 -408.999 167c-100 -112 -243.333 -167.667 -430 -167c-195.333 0 -345 48 -449 144s-156 237.5 -156 424.5zM408.001 549c0 -118.667 20.667 -205.334 62 -260.001s106.5 -82 195.5 -82s154.333 27.333 196 82s62.5 141.334 62.5 260.001
s-20.833 205 -62.5 259s-107 81 -196 81s-154.167 -27 -195.5 -81s-62 -140.333 -62 -259zM1272 653h465.001c-6.66699 157.333 -83.834 236 -231.501 236s-225.5 -78.667 -233.5 -236z" />
    <glyph glyph-name="Racute" unicode="&#x154;" horiz-adv-x="1654" 
d="M143 94v1245c0 27.333 9 50 27 68s40 27 66 27h825c151.333 0 275.666 -40.333 372.999 -121c100 -83.333 149.667 -194.666 149 -333.999c0 -194 -125.667 -315.667 -377 -365c70.667 -27.333 146.667 -104.333 228 -231l182 -289c11.333 -18 17 -34.667 17 -50
c0 -6 -1 -11.667 -3 -17c-5.33301 -18 -21.666 -27 -48.999 -27h-240c-64 -0 -115 31.333 -153 94l-170 266c-69.333 109.333 -154 164 -254 164h-244v-430c0 -26 -8.66699 -47.667 -26 -65c-19.333 -19.333 -42 -29 -68 -29h-188c-24.667 0 -46.667 9.5 -66 28.5
s-29 40.833 -29 65.5zM520 806.999h426c68 0 126 12.333 174 37c57.333 30 86 75 86 135s-28.667 105 -86 135c-48 24.667 -106 37 -174 37h-426v-344zM711 1661l49 188.001c26 76.667 69.667 115 131 115h90c44 0 72.667 -14 86 -42c5.33301 -10.667 8 -22 8 -34
c0 -18.667 -6.66699 -38.334 -20 -59.001l-109 -189c-36.667 -62.667 -77.667 -94 -123 -94h-47c-49.333 0 -74 21.667 -74 65c0.666992 14 3.66699 30.667 9 50z" />
    <glyph glyph-name="racute" unicode="&#x155;" horiz-adv-x="995" 
d="M123 61l-0.000976562 972.999c0 40.667 20.333 61.334 61 62.001h224c40.667 0 61 -20.667 61 -62v-63c134 96.667 282 145 444 145c40.667 0 61.334 -20.333 62.001 -61v-152c0 -40.667 -20.667 -61 -62 -61l-186 6c-90 0 -176 -49.333 -258 -148v-639
c0 -40.667 -20.333 -61 -61 -61h-224c-40.667 -0 -61 20.333 -61 61zM443.999 1333l50 189c26 76.667 69.667 114.667 131 114h90c44 0 72.667 -14 86 -42c5.33301 -10.667 8 -21.667 8 -33c0 -18.667 -7 -38.667 -21 -60l-108 -188c-36.667 -62.667 -77.667 -94 -123 -94
h-47c-49.333 0 -74 21.333 -74 64c0 14 2.66699 30.667 8 50z" />
    <glyph glyph-name="Rcommaaccent" unicode="&#x156;" horiz-adv-x="1654" 
d="M143 94v1245c0 26 9 48.333 27 67s40 28 66 28h825c152.667 0 277.834 -41 375.501 -123s146.5 -192.667 146.5 -332c0 -194 -125.667 -315.667 -377 -365c39.333 -15.333 76.166 -40.666 110.499 -75.999s73.5 -87 117.5 -155l182 -289c11.333 -19.333 17 -36 17 -50
c0 -6 -1 -11.667 -3 -17c-6.66699 -18 -23 -27 -49 -27h-240c-26 0 -54 9.16699 -84 27.5s-53 40.5 -69 66.5l-170 266c-69.333 109.333 -154 164 -254 164h-244v-430c0 -26 -9.16699 -48.167 -27.5 -66.5s-40.5 -27.5 -66.5 -27.5h-188c-26 0 -48.333 9.16699 -67 27.5
s-28 40.5 -28 66.5zM520 806.999h426c68 0 128.333 13.667 181 41s79 71 79 131s-26.167 103.667 -78.5 131s-112.833 41 -181.5 41h-426v-344zM705 -371.001l4.00195 276.999c0 30 9.16699 56.5 27.5 79.5s41.166 34.5 68.499 34.5h80c35.333 0 62.333 -10 81 -30
c14 -16 21 -36 21 -60c0 -7.33301 -0.666992 -14.666 -2 -21.999l-70 -299c-10.667 -49.333 -44 -74 -100 -74h-29c-28.667 0 -49.334 7.16699 -62.001 21.5s-19 38.5 -19 72.5z" />
    <glyph glyph-name="rcommaaccent" unicode="&#x157;" horiz-adv-x="995" 
d="M123 61v973c0 18 5.83301 32.833 17.5 44.5s26.167 17.5 43.5 17.5h224c18 0 32.667 -5.83301 44 -17.5s17 -26.5 17 -44.5v-63c68 49.333 133.5 85.833 196.5 109.5s145.5 35.5 247.5 35.5c18 0 32.833 -5.83301 44.5 -17.5s17.5 -26.167 17.5 -43.5v-152
c0 -18 -5.83301 -32.667 -17.5 -44s-26.5 -17 -44.5 -17h-32c-15.333 0 -40.333 1 -75 3s-61 3 -79 3c-90 0 -176 -49.333 -258 -148v-639c0 -18 -5.83301 -32.667 -17.5 -44s-26.167 -17 -43.5 -17h-224c-18 0 -32.667 5.66699 -44 17s-17 26 -17 44zM145 -473
l5.00098 275.999c0 30 9.16699 56.667 27.5 80s41.166 35 68.499 35h80c35.333 0 62.333 -10.333 81 -31c14 -16 21 -35.667 21 -59c0 -7.33301 -0.666992 -15 -2 -23l-70 -299c-10.667 -49.333 -44 -73.666 -100 -72.999h-29c-28.667 0 -49.5 7.16699 -62.5 21.5
s-19.5 38.5 -19.5 72.5z" />
    <glyph glyph-name="Rcaron" unicode="&#x158;" horiz-adv-x="1654" 
d="M143 94v1245c0 26 9 48.333 27 67s40 28 66 28h825c152.667 0 277.834 -41 375.501 -123s146.5 -192.667 146.5 -332c0 -194 -125.667 -315.667 -377 -365c39.333 -15.333 76.166 -40.666 110.499 -75.999s73.5 -87 117.5 -155l182 -289c11.333 -19.333 17 -36 17 -50
c0 -6 -1 -11.667 -3 -17c-6.66699 -18 -23 -27 -49 -27h-240c-26 0 -54 9.16699 -84 27.5s-53 40.5 -69 66.5l-170 266c-69.333 109.333 -154 164 -254 164h-244v-430c0 -26 -9.16699 -48.167 -27.5 -66.5s-40.5 -27.5 -66.5 -27.5h-188c-26 0 -48.333 9.16699 -67 27.5
s-28 40.5 -28 66.5zM469 1808c10.667 20.667 28.332 31 52.999 31h146c38 0 86.333 -28 145 -84l33 -31l35 31c58.667 56 107 84 145 84h145c24.667 0 42.667 -10.333 54 -31c4 -7.33301 6 -14.333 6 -21c0 -12.667 -6.33301 -24.667 -19 -36l-157 -143
c-61.333 -58.667 -110.666 -88 -147.999 -88h-123c-36.667 0 -85.667 29.333 -147 88l-156 143c-12 11.333 -18 23.333 -18 36c0 6.66699 2 13.667 6 21zM519.998 806.999h426c68 0 128.333 13.667 181 41s79 71 79 131s-26.167 103.667 -78.5 131s-112.833 41 -181.5 41
h-426v-344z" />
    <glyph glyph-name="rcaron" unicode="&#x159;" horiz-adv-x="995" 
d="M123 61v973c0 18 5.83301 32.833 17.5 44.5s26.167 17.5 43.5 17.5h224c18 0 32.667 -5.83301 44 -17.5s17 -26.5 17 -44.5v-63c68 49.333 133.5 85.833 196.5 109.5s145.5 35.5 247.5 35.5c18 0 32.833 -5.83301 44.5 -17.5s17.5 -26.167 17.5 -43.5v-152
c0 -18 -5.83301 -32.667 -17.5 -44s-26.5 -17 -44.5 -17h-32c-15.333 0 -40.333 1 -75 3s-61 3 -79 3c-90 0 -176 -49.333 -258 -148v-639c0 -18 -5.83301 -32.667 -17.5 -44s-26.167 -17 -43.5 -17h-224c-18 0 -32.667 5.66699 -44 17s-17 26 -17 44zM180 1512
c10.667 20 28.3311 30 52.998 30h146c38 0 86.333 -28 145 -84l33 -31l35 31c58.667 56 107 84 145 84h146c24.667 0 42.334 -10 53.001 -30c4 -7.33301 6 -14.333 6 -21c0 -12.667 -6 -25 -18 -37l-158 -143c-61.333 -58.667 -110.666 -88 -147.999 -88h-122
c-36.667 0 -86 29.333 -148 88l-155 143c-12 12 -18.333 24.333 -19 37c0 6.66699 2 13.667 6 21z" />
    <glyph glyph-name="Scaron" unicode="&#x160;" horiz-adv-x="1595" 
d="M61 367c0 39.333 11.6631 67.4971 34.9961 84.4971s46 25.5 68 25.5h119c60 0 105 -31.333 135 -94c32.667 -68 103.667 -102 213 -102l350 -7c117.333 0 176 38.333 176 115c0 31.333 -19.833 58.333 -59.5 81s-91.5 41.5 -155.5 56.5s-134.667 30 -212 45
s-154.166 33.833 -230.499 56.5s-146.5 49.334 -210.5 80.001s-115.833 72.834 -155.5 126.501s-59.5 116.834 -59.5 189.501c0 134 47.667 237.167 143 309.5s259.333 108.5 492 108.5l254 -6c136.667 0 259.834 -35.167 369.501 -105.5s164.5 -158.166 164.5 -263.499
c0 -39.333 -11.667 -67.666 -35 -84.999s-45.666 -26 -66.999 -26h-119c-60 0 -105 31.667 -135 95c-32.667 68 -103.667 102 -213 102l-301 6c-117.333 0 -176 -38.333 -176 -115c0 -42 37.167 -76.333 111.5 -103s164.333 -50.167 270 -70.5
s211.834 -44.833 318.501 -73.5s197.167 -75.834 271.5 -141.501s111.5 -147.5 111.5 -245.5c0 -134 -47.833 -237.167 -143.5 -309.5s-259.5 -108.5 -491.5 -108.5l-303 6c-136.667 0 -260 35.167 -370 105.5s-165 158.166 -165 263.499zM433.996 1840
c10.667 20 28.3311 30 52.998 30h146c38 0 86.333 -28 145 -84l33 -31l35 31c58.667 56 107 84 145 84h146c24.667 0 42.334 -10 53.001 -30c4 -7.33301 6 -14.333 6 -21c0 -12.667 -6 -25 -18 -37l-158 -144c-61.333 -58.667 -110.666 -88 -147.999 -88h-122
c-36.667 0 -86 29.333 -148 88l-156 144c-12 12 -18 24.333 -18 37c0 6.66699 2 13.667 6 21z" />
    <glyph glyph-name="scaron" unicode="&#x161;" horiz-adv-x="1224" 
d="M61 793c0 216 173.669 323.666 521.002 322.999c365.333 0 548 -95.667 548 -287c0 -18 -5.66699 -32.667 -17 -44s-26 -17 -44 -17h-149c-48 0 -86.333 17.667 -115 53c-36.667 45.333 -103 68 -199 68c-132.667 0 -198.667 -32 -198 -96c0 -30 25.833 -55 77.5 -75
s114.667 -37.5 189 -52.5s148.5 -34.167 222.5 -57.5s136.833 -60.5 188.5 -111.5s77.5 -115.5 77.5 -193.5c0 -216 -183.667 -323.667 -551 -323c-366 0 -549 95.333 -549 286c0 18 5.83301 32.833 17.5 44.5s26.5 17.5 44.5 17.5h149c48 0 86.333 -18 115 -54
c36.667 -45.333 103 -67.666 199 -66.999c152.667 0 229 32 229 96c0 30 -25.833 55 -77.5 75s-114.834 37.833 -189.501 53.5s-148.834 35 -222.501 58s-136.5 60.167 -188.5 111.5s-78 115.333 -78 192zM231.002 1492c10.667 20 28.666 30 53.999 30h145
c38 0 86.333 -28 145 -84l33 -31l35 31c58.667 56 107 84 145 84h146c24.667 0 42.334 -10 53.001 -30c4 -7.33301 6 -14.333 6 -21c0 -12.667 -6 -25 -18 -37l-158 -144c-61.333 -58.667 -110.333 -88 -147 -88h-123c-36.667 0 -86 29.333 -148 88l-155 144
c-12 12 -18.333 24.333 -19 37c0 6.66699 2 13.667 6 21z" />
    <glyph glyph-name="Tcaron" unicode="&#x164;" horiz-adv-x="1499" 
d="M20 1245v94c0 27.333 9 50 27 68s40.667 27 68 27h1269c27.333 0 50 -9 68 -27s27 -40.667 27 -68v-94c0 -27.333 -9 -49.833 -27 -67.5s-40.667 -26.5 -68 -26.5h-446v-1059c0 -26 -9.16699 -47.833 -27.5 -65.5s-40.5 -26.5 -66.5 -26.5h-189
c-26 -0 -48.167 8.83301 -66.5 26.5s-27.5 39.5 -27.5 65.5v1059h-446c-27.333 0 -50 8.83301 -68 26.5s-27 40.167 -27 67.5zM383 1799c10.667 20 28.332 30 52.999 30h146c38 0 86.333 -28 145 -84l33 -31l35 31c58.667 56 107 84 145 84h145c24.667 0 42.667 -10 54 -30
c4 -7.33301 6 -14.333 6 -21c0 -12.667 -6.33301 -25 -19 -37l-157 -144c-61.333 -58.667 -110.666 -88 -147.999 -88h-123c-36.667 0 -85.667 29.333 -147 88l-156 144c-12 12 -18 24.333 -18 37c0 6.66699 2 13.667 6 21z" />
    <glyph glyph-name="tcaron" unicode="&#x165;" horiz-adv-x="921" 
d="M123 430l-0.000976562 941.998c0 40.667 20.333 61.334 61 62.001h224c40.667 0 61 -20.667 61 -62v-334h279c40.667 0 61 -20.333 61 -61v-119c0 -40.667 -20.333 -61 -61 -61h-279v-367c0 -142 58.667 -213 176 -213c19.333 0 43.333 2 72 6c30 4 51.667 6 65 6h37
c40.667 0 61.334 -20.333 62.001 -61v-107c0 -35.333 -20.667 -55.666 -62 -60.999c-64 -13.333 -152.667 -20 -266 -20c-286.667 -0.666992 -430 149.333 -430 450zM601.999 1227l3.99902 337.998c0 30 9.33301 56.5 28 79.5s41.334 34.5 68.001 34.5h80
c35.333 0 62.333 -10 81 -30c14 -16 21.333 -36 22 -60c0 -7.33301 -0.666992 -14.666 -2 -21.999l-70 -361c-10.667 -49.333 -44 -73.666 -100 -72.999h-29c-28.667 0 -49.5 7.16699 -62.5 21.5s-19.5 38.5 -19.5 72.5z" />
    <glyph glyph-name="Uring" unicode="&#x16e;" horiz-adv-x="1687" 
d="M123 567v771.999c0 26 9.66699 48.667 29 68c18 18 40.333 27 67 27h187c26 0 47.667 -9 65 -27c19.333 -19.333 29 -42 29 -68v-774c0 -194 88 -291 264 -291h160c176 0 264 97 264 291v774c0 26 9.66699 48.667 29 68c18 18 39.667 27 65 27h186c27.333 0 50 -9 68 -27
c19.333 -19.333 29 -42 29 -68v-772c0 -181.333 -52.667 -322.666 -158 -423.999c-109.333 -101.333 -267 -151.666 -473 -150.999h-180c-204.667 0 -361.667 50.333 -471 151c-106.667 101.333 -160 242.666 -160 423.999zM578 1692c0 84.667 27 150 81 196
c50.667 46.667 117 70 199 70c80.667 0 146.334 -23.333 197.001 -70c54.667 -46.667 82 -112 82 -196c0 -82 -27.333 -147.667 -82 -197c-50.667 -46.667 -116.334 -70 -197.001 -70c-82 0 -148.333 23.333 -199 70c-54 49.333 -81 115 -81 197zM750 1692
c0 -88.667 36 -133 108 -133c70.667 0 106.167 44.333 106.5 133s-35.167 133 -106.5 133c-72 0 -108 -44.333 -108 -133z" />
    <glyph glyph-name="uring" unicode="&#x16f;" 
d="M123 461l-0.000976562 572.998c0 40.667 20.333 61.334 61 62.001h224c40.667 0 61 -20.667 61 -62v-573c0 -160 63.333 -240 190 -240c83.333 0 173 48 269 144v669c0 40.667 20.333 61.334 61 62.001h223c40.667 0 61.334 -20.667 62.001 -62v-973
c0 -40.667 -20.667 -61 -62 -61h-223c-40.667 -0 -61 20.333 -61 61v64c-116 -96.667 -232.667 -145 -350 -145c-142 0 -251.333 37.333 -328 112c-84.667 84.667 -127 207.667 -127 369zM435.999 1386c0 84.667 27.333 150.334 82 197.001c50.667 46.667 117 70 199 70
c80.667 0 146 -23.333 196 -70c54.667 -46.667 82 -112.334 82 -197.001c0 -82 -27.333 -147.333 -82 -196c-50.667 -46.667 -116 -70 -196 -70c-82 0 -148.333 23.333 -199 70c-54.667 48.667 -82 114 -82 196zM607.999 1386.5c0 -89 36.333 -133.5 109 -133.5
c70.667 0 106 44.5 106 133.5s-35.333 133.5 -106 133.5c-72.667 0 -109 -44.5 -109 -133.5z" />
    <glyph glyph-name="Ydieresis" unicode="&#x178;" horiz-adv-x="1519" 
d="M23 1404c6.66699 20 23 29.999 49 29.999h190c75.333 0 133.333 -31.667 174 -95l324 -499l323 499c40.667 62.667 98.667 94.334 174 95.001h191c26 0 42.333 -10 49 -30c2 -6 3 -12 3 -18c0 -14.667 -5.66699 -30.334 -17 -47.001l-535 -827v-420
c0 -26 -9.16699 -47.833 -27.5 -65.5s-40.5 -26.5 -66.5 -26.5h-188c-26 0 -48.333 8.83301 -67 26.5s-28 39.5 -28 65.5v420l-534 827c-11.333 16.667 -17 32.334 -17 47.001c0 6 1 12 3 18zM346 1618v39c0 35.333 10.333 63.333 31 84s48.667 31 84 31h96
c35.333 0 63.333 -10.333 84 -31s31 -48.667 31 -84v-39c0 -35.333 -10.333 -63.333 -31 -84s-48.667 -31 -84 -31h-96c-35.333 0 -63.333 10.333 -84 31s-31 48.667 -31 84zM848 1618v39c0 35.333 10.167 63.333 30.5 84s48.5 31 84.5 31h96
c35.333 0 63.333 -10.333 84 -31s31 -48.667 31 -84v-39c0 -35.333 -10.333 -63.333 -31 -84s-48.667 -31 -84 -31h-96c-35.333 0 -63.333 10.333 -84 31s-31 48.667 -31 84z" />
    <glyph glyph-name="Zcaron" unicode="&#x17d;" horiz-adv-x="1468" 
d="M51 1245v93.999c0 27.333 9.16699 50 27.5 68s40.5 27 66.5 27h1168c26 0 48.167 -9 66.5 -27s27.5 -40.667 27.5 -68v-112c0 -27.333 -5.83301 -53.666 -17.5 -78.999s-22.5 -43.333 -32.5 -54l-44 -45l-787 -766h797c27.333 0 49.833 -9 67.5 -27
s26.5 -40.667 26.5 -68v-94c0 -27.333 -8.83301 -49.833 -26.5 -67.5s-40.167 -26.5 -67.5 -26.5h-1161c-26 -0 -48.167 8.83301 -66.5 26.5s-27.5 40.167 -27.5 67.5v111c0 64 31.333 127.333 94 190l762 756h-779c-26 0 -48.167 8.83301 -66.5 26.5
s-27.5 40.167 -27.5 67.5zM352 1873c10.667 20 28.666 30 53.999 30h145c38 0 86.333 -28 145 -84l33 -31l35 31c58.667 56 107 84 145 84h146c24.667 0 42.334 -10 53.001 -30c4 -7.33301 6 -14.666 6 -21.999c0 -12.667 -6 -24.667 -18 -36l-158 -144
c-61.333 -58.667 -110.333 -88 -147 -88h-123c-36.667 0 -86 29.333 -148 88l-155 144c-12 12 -18.333 24 -19 36c0 7.33301 2 14.666 6 21.999z" />
    <glyph glyph-name="zcaron" unicode="&#x17e;" horiz-adv-x="1144" 
d="M51 915v119c0 18 5.83301 32.833 17.5 44.5s26.5 17.5 44.5 17.5h911c18 0 32.667 -5.83301 44 -17.5s17 -26.5 17 -44.5v-96c0 -49.333 -23.667 -97.666 -71 -144.999l-545 -551h563c18 0 32.833 -5.83301 44.5 -17.5s17.5 -26.5 17.5 -44.5v-119
c0 -18 -5.83301 -32.667 -17.5 -44s-26.5 -17 -44.5 -17h-919c-18 0 -32.833 5.83301 -44.5 17.5s-17.5 26.167 -17.5 43.5v97c0 49.333 24 97.666 72 144.999l526 551h-536c-18 0 -32.833 5.66699 -44.5 17s-17.5 26 -17.5 44zM195 1512c10.667 20 28.3311 30 52.998 30
h145c38 0 86.667 -28 146 -84l32 -31l35 31c58.667 56 107.334 84 146.001 84h145c24.667 0 42.334 -10 53.001 -30c4 -7.33301 6 -14.333 6 -21c0 -12.667 -6 -25 -18 -37l-158 -143c-61.333 -58.667 -110.333 -88 -147 -88h-123c-36.667 0 -86 29.333 -148 88l-155 143
c-12 12 -18 24.333 -18 37c0 6.66699 2 13.667 6 21z" />
    <glyph glyph-name="florin" unicode="&#x192;" horiz-adv-x="1214" 
d="M-203 -276l19 108c2.66699 18 10.834 32.833 24.501 44.5s29.167 17.5 46.5 17.5h31c12 0 28.333 -2.5 49 -7.5s37.667 -7.5 51 -7.5c35.333 0 69.5 18.5 102.5 55.5s56.167 96.5 69.5 178.5l148 829c31.333 186 96.5 317.833 195.5 395.5s254.833 116.5 467.5 116.5
c109.333 0 197 -6.66699 263 -20c16.667 -2.66699 29.667 -9.83398 39 -21.501s13.333 -25.167 12 -40.5l-21 -110c-2.66699 -18 -10.834 -32.833 -24.501 -44.5s-29.167 -17.5 -46.5 -17.5h-37c-15.333 0 -37.333 2.83301 -66 8.5s-51.667 8.5 -69 8.5
c-132.667 0 -222.167 -17.833 -268.5 -53.5s-79.166 -109.5 -98.499 -221.5l-4 -16h362c18 0 31.833 -5.83301 41.5 -17.5s13.167 -26.5 10.5 -44.5l-21 -119c-2.66699 -18 -11.167 -32.667 -25.5 -44s-30.5 -17 -48.5 -17h-362l-100 -571c-54.667 -314 -211 -471 -469 -471
c-91.333 0 -165.333 6.66699 -222 20c-34 8 -50.667 24 -50 48c-0.666992 4.66699 -0.333984 9.33398 0.999023 14.001z" />
    <glyph glyph-name="circumflex" unicode="&#x2c6;" horiz-adv-x="811" 
d="M25 1601c-4 7.33301 -5.99707 14.333 -5.99707 21c0 12.667 6 25 18 37l156 143c61.333 58.667 110.333 88 147 88h123c36.667 0 85.667 -29.333 147 -88l158 -143c12 -12 18 -24.333 18 -37c0 -7.33301 -2 -14.333 -6 -21c-10.667 -20 -28.334 -30 -53.001 -30h-145
c-38 0 -86.667 28 -146 84l-35 31l-32 -31c-58.667 -56 -107.334 -84 -146.001 -84h-145c-24.667 0 -42.334 10 -53.001 30z" />
    <glyph glyph-name="caron" unicode="&#x2c7;" horiz-adv-x="811" 
d="M25 1861c10.667 20 28.3311 29.667 52.998 29h145c38 0 86.667 -28 146 -84l32 -30l35 30c58.667 56 107.334 84 146.001 84h145c24.667 0 42.334 -9.66699 53.001 -29c4 -7.33301 6 -14.666 6 -21.999c0 -12.667 -6 -25 -18 -37l-158 -143
c-61.333 -58.667 -110.333 -88 -147 -88h-123c-36.667 0 -85.667 29.333 -147 88l-156 143c-12 12 -18 24.333 -18 37c0 7.33301 2 14.666 6 21.999z" />
    <glyph glyph-name="tilde" unicode="&#x2dc;" horiz-adv-x="765" 
d="M41 1270c0 87.333 21.501 153.5 64.501 198.5s93.167 67.5 150.5 67.5c39.333 0 84.333 -13.667 135 -41s87.667 -41 111 -41c24.667 0 44.5 12 59.5 36s31.833 36 50.5 36h82c20.667 0 31 -10.333 31 -31c0 -87.333 -21.167 -153.5 -63.5 -198.5
s-92.166 -67.5 -149.499 -67.5c-40.667 0 -85.667 13.667 -135 41s-86.333 41 -111 41s-44.834 -12 -60.501 -36s-32.834 -36 -51.501 -36h-82c-20.667 0 -31 10.333 -31 31z" />
    <glyph glyph-name="afii10023" unicode="&#x401;" horiz-adv-x="1525" 
d="M143 96v1245c0 26 9.33301 48 28 66s41 27 67 27h1153c26 0 48.167 -9.33301 66.5 -28s27.5 -41 27.5 -67v-94c0 -26 -9.16699 -48.167 -27.5 -66.5s-40.5 -27.5 -66.5 -27.5h-871v-291h750c26 0 48.167 -9.16699 66.5 -27.5s27.5 -40.5 27.5 -66.5v-94
c0 -26 -9.16699 -48.167 -27.5 -66.5s-40.5 -27.5 -66.5 -27.5h-750v-295h869c26 0 47.833 -9 65.5 -27s26.5 -40 26.5 -66v-96c0 -26 -9.33301 -48.167 -28 -66.5s-41 -27.5 -67 -27.5h-1148c-26 0 -48.333 9.16699 -67 27.5s-28 41.166 -28 68.499zM395 1655v39
c0 35.333 10.333 63.166 31 83.499s48.667 30.5 84 30.5h96c35.333 0 63.333 -10.167 84 -30.5s31 -48.166 31 -83.499v-39c0 -35.333 -10.333 -63.333 -31 -84s-48.667 -31 -84 -31h-96c-35.333 0 -63.333 10.333 -84 31s-31 48.667 -31 84zM897 1655v39
c0 35.333 10.167 63.166 30.5 83.499s48.5 30.5 84.5 30.5h96c35.333 0 63.333 -10.167 84 -30.5s31 -48.166 31 -83.499v-39c0 -35.333 -10.333 -63.333 -31 -84s-48.667 -31 -84 -31h-96c-35.333 0 -63.333 10.333 -84 31s-31 48.667 -31 84z" />
    <glyph glyph-name="afii10051" unicode="&#x402;" horiz-adv-x="1570" 
d="M20 1217l-0.000976562 154.998c0 18 5.83301 32.833 17.5 44.5s26.5 17.5 44.5 17.5h639c18 0 32.667 -5.83301 44 -17.5s17 -26.5 17 -44.5v-155c0 -18 -5.66699 -32.833 -17 -44.5s-26 -17.5 -44 -17.5h-131v-295c96.667 83.333 216.667 125 360 125
c172 0 311.667 -43.667 419 -131s161 -218.333 161 -393v-51c0 -286.667 -138.667 -430 -416 -430c-109.333 0 -184.333 3.33301 -225 10c-18 2.66699 -32.833 9.83398 -44.5 21.501s-17.5 24.834 -17.5 39.501v129c0 18 5.83301 32.833 17.5 44.5s26.5 17.5 44.5 17.5h31
c12 0 28.5 -2.5 49.5 -7.5s38.5 -7.5 52.5 -7.5c34 0 64.333 15.833 91 47.5s40 76.834 40 135.501v51c0 161.333 -86 241.666 -258 240.999c-121.333 0 -223 -47.667 -305 -143v-465c0 -26 -9.16699 -48.167 -27.5 -66.5s-40.5 -27.5 -66.5 -27.5h-187
c-27.333 0 -50.166 9.16699 -68.499 27.5s-27.5 40.5 -27.5 66.5v1061h-131c-18 0 -32.833 5.83301 -44.5 17.5s-17.5 26.5 -17.5 44.5z" />
    <glyph glyph-name="afii10052" unicode="&#x403;" horiz-adv-x="1318" 
d="M143 92v1247c0 27.333 9 50 27 68s40.667 27 68 27h966c27.333 0 49.833 -9 67.5 -27s26.5 -40.667 26.5 -68v-94c0 -27.333 -8.83301 -49.833 -26.5 -67.5s-40.167 -26.5 -67.5 -26.5h-684v-1059c0 -26 -9.16699 -47.833 -27.5 -65.5s-40.5 -26.5 -66.5 -26.5h-188
c-26 -0 -48.333 8.83301 -67 26.5s-28 39.5 -28 65.5zM584 1651l80.001 264c9.33301 31.333 28.666 58.333 57.999 81s60.333 34 93 34h82c54.667 0 93.667 -14.667 117 -44c11.333 -14 17 -30.333 17 -49c0 -19.333 -6.33301 -40.333 -19 -63l-140 -244
c-44 -76.667 -96.333 -114.667 -157 -114h-39c-68 0 -102 26.333 -102 79c0 16 3.33301 34.667 10 56z" />
    <glyph glyph-name="afii10053" unicode="&#x404;" horiz-adv-x="1673" 
d="M61 716.5c0 247 61.832 429.665 185.499 547.998s309.167 177.5 556.5 177.5h223c95.333 0 186 -15.667 272 -47s158.167 -79.833 216.5 -145.5s87.5 -141.5 87.5 -227.5c0 -39.333 -11.667 -67.666 -35 -84.999s-46 -26 -68 -26h-119c-60 0 -107.667 37 -143 111
c-45.333 91.333 -127.333 137 -246 137h-178c-126.667 0 -218 -22.833 -274 -68.5s-87.667 -124.5 -95 -236.5h537c26 0 48.167 -9.16699 66.5 -27.5s27.5 -40.5 27.5 -66.5v-84c0 -26 -9.16699 -48.167 -27.5 -66.5s-40.5 -27.5 -66.5 -27.5h-537
c5.33301 -113.333 36.5 -193 93.5 -239s148.833 -69 275.5 -69h199c118.667 0 200.334 46 245.001 138c35.333 74 83.333 110.667 144 110h119c12 0 24.833 -2.33301 38.5 -7s27.667 -16.167 42 -34.5s21.5 -41.166 21.5 -68.499c0 -86 -29 -161.833 -87 -227.5
s-130 -114.167 -216 -145.5s-176.667 -47 -272 -47h-244c-247.333 0 -432.833 59 -556.5 177s-185.5 300.5 -185.5 547.5z" />
    <glyph glyph-name="afii10054" unicode="&#x405;" horiz-adv-x="1595" 
d="M61 367c0 39.333 11.6631 67.4971 34.9961 84.4971s46 25.5 68 25.5h119c60 0 105 -31.333 135 -94c32.667 -68 103.667 -102 213 -102l350 -7c117.333 0 176 38.333 176 115c0 31.333 -19.833 58.333 -59.5 81s-91.5 41.5 -155.5 56.5s-134.667 30 -212 45
s-154.166 33.833 -230.499 56.5s-146.5 49.334 -210.5 80.001s-115.833 72.834 -155.5 126.501s-59.5 116.834 -59.5 189.501c0 134 47.667 237.167 143 309.5s259.333 108.5 492 108.5l254 -6c136.667 0 259.834 -35.167 369.501 -105.5s164.5 -158.166 164.5 -263.499
c0 -39.333 -11.667 -67.666 -35 -84.999s-45.666 -26 -66.999 -26h-119c-60 0 -105 31.667 -135 95c-32.667 68 -103.667 102 -213 102l-301 6c-117.333 0 -176 -38.333 -176 -115c0 -42 37.167 -76.333 111.5 -103s164.333 -50.167 270 -70.5
s211.834 -44.833 318.501 -73.5s197.167 -75.834 271.5 -141.501s111.5 -147.5 111.5 -245.5c0 -134 -47.833 -237.167 -143.5 -309.5s-259.5 -108.5 -491.5 -108.5l-303 6c-136.667 0 -260 35.167 -370 105.5s-165 158.166 -165 263.499z" />
    <glyph glyph-name="afii10055" unicode="&#x406;" horiz-adv-x="663" 
d="M143 92l0.000976562 1247c0 26 9.33301 48.333 28 67s41 28 67 28h186c27.333 0 50.166 -9.33301 68.499 -28s27.5 -41 27.5 -67v-1245c0 -26 -9.5 -48.167 -28.5 -66.5s-41.5 -27.5 -67.5 -27.5h-186c-26 -0 -48.333 8.83301 -67 26.5s-28 39.5 -28 65.5z" />
    <glyph glyph-name="afii10056" unicode="&#x407;" horiz-adv-x="663" 
d="M-41 1655v39c0 35.333 10.167 63.166 30.5 83.499s48.5 30.5 84.5 30.5h80c35.333 0 63.166 -10.167 83.499 -30.5s30.5 -48.166 30.5 -83.499v-39c0 -35.333 -10.167 -63.333 -30.5 -84s-48.166 -31 -83.499 -31h-80c-35.333 0 -63.333 10.333 -84 31s-31 48.667 -31 84
zM143 92l0.000976562 1247c0 26 9.33301 48.333 28 67s41 28 67 28h186c27.333 0 50.166 -9.33301 68.499 -28s27.5 -41 27.5 -67v-1245c0 -26 -9.5 -48.167 -28.5 -66.5s-41.5 -27.5 -67.5 -27.5h-186c-26 -0 -48.333 8.83301 -67 26.5s-28 39.5 -28 65.5zM395.001 1655v39
c0 35.333 10.333 63.166 31 83.499s48.667 30.5 84 30.5h80c35.333 0 63.333 -10.167 84 -30.5s31 -48.166 31 -83.499v-39c0 -35.333 -10.333 -63.333 -31 -84s-48.667 -31 -84 -31h-80c-35.333 0 -63.333 10.333 -84 31s-31 48.667 -31 84z" />
    <glyph glyph-name="afii10057" unicode="&#x408;" horiz-adv-x="1130" 
d="M0 94l-0.00195312 113c0 26 8.83301 48.167 26.5 66.5s40.167 27.5 67.5 27.5h33c18 0 45.333 -3 82 -9s65.334 -9 86.001 -9h72c92.667 0 159.834 19 201.501 57s62.5 102 62.5 192v807c0 26 9.16699 48.333 27.5 67s40.5 28 66.5 28h186
c27.333 0 50.333 -9.33301 69 -28s28 -41 28 -67v-804c0 -170.667 -56.667 -302.5 -170 -395.5s-267 -139.5 -461 -139.5h-283c-26 0 -48.167 9.16699 -66.5 27.5s-27.5 40.5 -27.5 66.5z" />
    <glyph glyph-name="afii10058" unicode="&#x409;" horiz-adv-x="2529" 
d="M25 84l254.002 959.999c68 259.333 289 389.333 663 390h469c23.333 0 43.166 -9.66699 59.499 -29s24.5 -41.333 24.5 -66v-393h449c157.333 0 287.333 -41.667 390 -125s154 -199.333 154 -348s-51.5 -264.667 -154.5 -348s-232.833 -125 -389.5 -125h-732
c-26 0 -48.167 9.16699 -66.5 27.5s-27.5 40.5 -27.5 66.5v1057h-213c-64 0 -119.833 -18.167 -167.5 -54.5s-79.834 -85.166 -96.501 -146.499l-229 -856c-6.66699 -27.333 -21.667 -49.833 -45 -67.5s-48 -26.5 -74 -26.5h-203c-23.333 0 -41.333 8.66699 -54 26
c-9.33301 12 -14 25 -14 39c0.666992 6 1.66699 12.333 3 19zM1495 282.999h449c112 0 167.833 63.5 167.5 190.5s-56.166 190.5 -167.5 190.5h-449v-381z" />
    <glyph glyph-name="afii10059" unicode="&#x40a;" horiz-adv-x="2555" 
d="M143 94v1245c0 26 9.33301 48.333 28 67s41.667 28 69 28h186c26 0 48.167 -9.33301 66.5 -28s27.5 -41 27.5 -67v-430h623v430c0 26 9.16699 48.333 27.5 67s40.5 28 66.5 28h186c27.333 0 50.333 -9.33301 69 -28s28 -41 28 -67v-430h450
c155.333 0 285 -40.5 389 -121.5s156 -191.833 156 -332.5s-51.833 -251.667 -155.5 -333s-233.5 -122 -389.5 -122h-733c-26 -0 -48.167 8.83301 -66.5 26.5s-27.5 39.5 -27.5 65.5v535h-623v-535c0 -26 -9.16699 -47.833 -27.5 -65.5s-40.5 -26.5 -66.5 -26.5h-186
c-26 0 -48.667 9.16699 -68 27.5s-29 40.5 -29 66.5zM1520 283h450c56 0 98 15.333 126 46s42 72.667 42 126s-14 95.333 -42 126s-70 46 -126 46h-450v-344z" />
    <glyph glyph-name="afii10060" unicode="&#x40b;" horiz-adv-x="1591" 
d="M20 1217l-0.000976562 155.001c0 18 5.83301 32.833 17.5 44.5s26.5 17.5 44.5 17.5h639c18 0 32.667 -5.83301 44 -17.5s17 -26.5 17 -44.5v-155c0 -18 -5.66699 -32.833 -17 -44.5s-26 -17.5 -44 -17.5h-131v-295c96.667 83.333 216.667 125 360 125
c172 0 311.667 -43.667 419 -131s161 -218.333 161 -393v-367c0 -26 -9.5 -48.167 -28.5 -66.5s-41.5 -27.5 -67.5 -27.5h-187c-26 0 -48.167 9.16699 -66.5 27.5s-27.5 40.5 -27.5 66.5v367c0 161.333 -86 241.666 -258 240.999c-121.333 0 -223 -47.667 -305 -143v-465
c0 -26 -9.16699 -48.167 -27.5 -66.5s-40.5 -27.5 -66.5 -27.5h-187c-27.333 0 -50.166 9.16699 -68.499 27.5s-27.5 40.5 -27.5 66.5v1061h-131c-18 0 -32.833 5.83301 -44.5 17.5s-17.5 26.5 -17.5 44.5z" />
    <glyph glyph-name="afii10061" unicode="&#x40c;" horiz-adv-x="1628" 
d="M143 96l0.000976562 1243c0 26 9.33301 48.667 28 68s41 29 67 29h188c26 0 48.167 -9.66699 66.5 -29s27.5 -42 27.5 -68v-479h215c58.667 0 110.167 16 154.5 48s86.5 83.667 126.5 155l155 276c35.333 64 83.333 96.333 144 97h231c26 0 41.333 -9.33301 46 -28
c1.33301 -4.66699 2 -9.33398 2 -14.001c0 -15.333 -5.66699 -33.666 -17 -54.999l-217 -393c-31.333 -57.333 -66.5 -104.666 -105.5 -141.999s-89.833 -63.666 -152.5 -78.999c44 -9.33301 89.167 -37 135.5 -83s87.166 -96 122.499 -150l250 -398
c11.333 -19.333 17 -36 17 -50c0 -6 -1 -11.667 -3 -17c-6.66699 -18 -23 -27 -49 -27h-229c-26 0 -54 9.16699 -84 27.5s-53.333 40.5 -70 66.5l-176 279c-42 68 -84.333 119.167 -127 153.5s-94 51.5 -154 51.5h-215v-486c0 -26 -9.16699 -47.833 -27.5 -65.5
s-40.5 -26.5 -66.5 -26.5h-188c-26 0 -48.333 9.5 -67 28.5s-28 41.5 -28 67.5zM717.001 1610l80.001 264c9.33301 31.333 28.666 58.333 57.999 81s60.333 34 93 34h82c54.667 0 93.667 -14.667 117 -44c11.333 -14 17 -30.333 17 -49c0 -19.333 -6.33301 -40.333 -19 -63
l-139 -244c-44 -76.667 -96.667 -114.667 -158 -114h-39c-68 0 -102 26.333 -102 79c0 16 3.33301 34.667 10 56z" />
    <glyph glyph-name="afii10062" unicode="&#x40e;" horiz-adv-x="1595" 
d="M29 1339c-5.33301 12.667 -8.16699 24.668 -8.5 36.001s2.5 21.666 8.5 30.999c10.667 18.667 29 28 55 28h211c64 0 108.333 -30.333 133 -91l115 -278c34 -80.667 76.667 -140.834 128 -180.501s119 -59.5 203 -59.5h123l181 516
c9.33301 28.667 25.666 51.334 48.999 68.001s48.666 25 75.999 25h202c26 0 45.333 -9 58 -27c7.33301 -10.667 11 -22.667 11 -36c0 -8.66699 -1.66699 -18 -5 -28l-326 -933c-45.333 -131.333 -113.666 -232.5 -204.999 -303.5s-219 -106.5 -383 -106.5h-241
c-26 0 -48.333 9.16699 -67 27.5s-28 40.5 -28 66.5v113c0 26 9 48.167 27 66.5s40.667 27.5 68 27.5h32c18 0 45.5 -3 82.5 -9s65.5 -9 85.5 -9h21c132.667 0 223.334 86.667 272.001 260h-86c-168 0 -299 34.167 -393 102.5s-174.667 179.5 -242 333.5zM497.999 1802
c0 34 18.333 51.001 55 51.001h82c32.667 0 56 -17 70 -51c19.333 -48 62.333 -71.833 129 -71.5s109.667 24.166 129 71.499c13.333 34 36.333 51 69 51h82c36.667 0 55 -17 55 -51c0 -91.333 -30.667 -163.666 -92 -216.999s-142.5 -80 -243.5 -80
s-182.167 26.667 -243.5 80s-92 125.666 -92 216.999z" />
    <glyph glyph-name="afii10145" unicode="&#x40f;" horiz-adv-x="1771" 
d="M143 94v1245c0 26 9.33301 48.333 28 67s41 28 67 28h188c26 0 48.167 -9.33301 66.5 -28s27.5 -41 27.5 -67v-1056h731v1056c0 26 9.33301 48.333 28 67s41 28 67 28h186c26 0 48.5 -9.33301 67.5 -28s28.5 -41 28.5 -67v-1245c0 -26 -9.16699 -48.167 -27.5 -66.5
s-40.5 -27.5 -66.5 -27.5h-479v-274c0 -26 -9.66699 -48.333 -29 -67s-42 -28 -68 -28h-147c-26 0 -48.167 9.33301 -66.5 28s-27.5 41 -27.5 67v274h-481c-26 0 -48 9.16699 -66 27.5s-27 40.5 -27 66.5z" />
    <glyph glyph-name="afii10017" unicode="&#x410;" horiz-adv-x="1708" 
d="M25 92l251 952.001c68 259.333 289.333 389.333 664 390h539c24.667 0 45.167 -9.33301 61.5 -28s24.5 -40.334 24.5 -65.001v-1249c0 -26 -9.33301 -47.833 -28 -65.5s-41 -26.5 -67 -26.5h-188c-27.333 -0 -49.833 8.83301 -67.5 26.5s-26.5 40.167 -26.5 67.5v252
h-711l-67 -252c-6.66699 -27.333 -21.667 -49.833 -45 -67.5s-48 -26.5 -74 -26.5h-197c-26 0 -45.667 9 -59 27c-9.33301 12 -14 25.667 -14 41c0.666992 7.33301 2 15.333 4 24zM551 629.001l637.001 -0.000976562v522h-285c-64 0 -119.833 -18.167 -167.5 -54.5
s-79.834 -85.166 -96.501 -146.499z" />
    <glyph glyph-name="afii10018" unicode="&#x411;" horiz-adv-x="1619" 
d="M143 92v1247c0 27.333 9 50 27 68s40.667 27 68 27h1126c26 0 48.167 -9.33301 66.5 -28s27.5 -41 27.5 -67v-94c0 -26 -8.83301 -48.167 -26.5 -66.5s-39.5 -27.5 -65.5 -27.5h-846v-242h494c162.667 0 294.167 -38.167 394.5 -114.5s150.5 -189.666 150.5 -339.999
s-50.333 -263.666 -151 -339.999s-232 -114.5 -394 -114.5h-781c-26 -0 -47.5 8.83301 -64.5 26.5s-25.5 39.5 -25.5 65.5zM520 282.998h494c112 0 168 57.333 168 172s-56 172 -168 172h-494v-344z" />
    <glyph glyph-name="afii10019" unicode="&#x412;" horiz-adv-x="1689" 
d="M143 1339c0 26 9.33301 48.333 28 67s41 28 67 28h813c91.333 0 174.5 -12.667 249.5 -38s138.833 -69.833 191.5 -133.5s79 -142.5 79 -236.5c0 -102.667 -45 -190.667 -135 -264c128.667 -68 192.667 -178.667 192 -332c0 -136.667 -51.167 -242.5 -153.5 -317.5
s-227.833 -112.5 -376.5 -112.5h-860c-26 0 -48.333 9.16699 -67 27.5s-28 40.5 -28 66.5v1245zM520 270h571.999c52 0 91.5 15.333 118.5 46s40.5 72.667 40.5 126s-13.667 95.333 -41 126s-66.666 46 -117.999 46h-572v-344zM519.999 877h535c42 0 75.667 12.5 101 37.5
s38 60 38 105s-12.667 80.167 -38 105.5s-59 38 -101 38h-535v-286z" />
    <glyph glyph-name="afii10020" unicode="&#x413;" horiz-adv-x="1318" 
d="M143 92v1247c0 27.333 9 50 27 68s40.667 27 68 27h966c27.333 0 49.833 -9 67.5 -27s26.5 -40.667 26.5 -68v-94c0 -27.333 -8.83301 -49.833 -26.5 -67.5s-40.167 -26.5 -67.5 -26.5h-684v-1059c0 -26 -9.16699 -47.833 -27.5 -65.5s-40.5 -26.5 -66.5 -26.5h-188
c-26 -0 -48.333 8.83301 -67 26.5s-28 39.5 -28 65.5z" />
    <glyph glyph-name="afii10021" unicode="&#x414;" horiz-adv-x="1785" 
d="M0 94v96c0 26 9.16699 48 27.5 66s40.5 27 66.5 27h78l186 757c64 262 280.667 393.333 650 394h540c26 0 48.167 -9 66.5 -27s27.5 -40 27.5 -66v-1249c0 -26 -9.16699 -47.833 -27.5 -65.5s-40.5 -26.5 -66.5 -26.5h-1454c-26 0 -48.167 9.16699 -66.5 27.5
s-27.5 40.5 -27.5 66.5zM557 283h709.001v868h-299c-62.667 0 -114.834 -17.333 -156.501 -52s-70.167 -83 -85.5 -145z" />
    <glyph glyph-name="afii10022" unicode="&#x415;" horiz-adv-x="1525" 
d="M143 96v1245c0 26 9.33301 48 28 66s41 27 67 27h1153c26 0 48.167 -9.33301 66.5 -28s27.5 -41 27.5 -67v-94c0 -26 -9.16699 -48.167 -27.5 -66.5s-40.5 -27.5 -66.5 -27.5h-871v-291h750c26 0 48.167 -9.16699 66.5 -27.5s27.5 -40.5 27.5 -66.5v-94
c0 -26 -9.16699 -48.167 -27.5 -66.5s-40.5 -27.5 -66.5 -27.5h-750v-295h869c26 0 47.833 -9 65.5 -27s26.5 -40 26.5 -66v-96c0 -26 -9.33301 -48.167 -28 -66.5s-41 -27.5 -67 -27.5h-1148c-26 0 -48.333 9.16699 -67 27.5s-28 41.166 -28 68.499z" />
    <glyph glyph-name="afii10024" unicode="&#x416;" horiz-adv-x="2252" 
d="M4 27c-2 5.33301 -2.99902 10.9971 -2.99902 16.9971c0 14.667 5.66699 31.334 17 50.001l250 398c35.333 54.667 76.333 104.834 123 150.501s91.667 73.167 135 82.5c-62.667 15.333 -113.5 41.666 -152.5 78.999s-74.167 84.666 -105.5 141.999l-217 393
c-11.333 20.667 -17 39 -17 55c0 4.66699 0.666992 9.33398 2 14.001c4.66699 18.667 20 28 46 28h231c60 0 108 -32.333 144 -97l155 -276c39.333 -70.667 81.333 -122.167 126 -154.5s96.334 -48.5 155.001 -48.5h45v479c0 26 9.16699 48.667 27.5 68s40.5 29 66.5 29h189
c26 0 48.167 -9.66699 66.5 -29s27.5 -42 27.5 -68v-479h45c58.667 0 110.167 16 154.5 48s86.166 83.667 125.499 155l156 276c35.333 64 83 96.333 143 97h232c26 0 41.333 -9.33301 46 -28c1.33301 -4.66699 2 -9.33398 2 -14.001
c0 -15.333 -5.66699 -33.666 -17 -54.999l-217 -393c-31.333 -57.333 -66.5 -104.666 -105.5 -141.999s-90.167 -63.666 -153.5 -78.999c44 -9.33301 89.167 -37 135.5 -83s87.5 -96 123.5 -150l249 -398c11.333 -19.333 17.333 -36 18 -50c0 -6 -1 -11.667 -3 -17
c-6.66699 -18 -23 -27 -49 -27h-230c-26 0 -54 9.16699 -84 27.5s-53 40.5 -69 66.5l-177 279c-42 68 -84.167 119.167 -126.5 153.5s-93.5 51.5 -153.5 51.5h-45v-486c0 -26 -9.16699 -47.833 -27.5 -65.5s-40.5 -26.5 -66.5 -26.5h-189c-26 -0 -48.167 8.83301 -66.5 26.5
s-27.5 39.5 -27.5 65.5v486h-45c-60 0 -111.167 -17.167 -153.5 -51.5s-84.833 -85.5 -127.5 -153.5l-176 -279c-16.667 -26 -39.834 -48.167 -69.501 -66.5s-57.5 -27.5 -83.5 -27.5h-230c-26 0 -42.333 9 -49 27z" />
    <glyph glyph-name="afii10025" unicode="&#x417;" horiz-adv-x="1599" 
d="M51 391c0 39.333 11.666 67.665 34.999 84.998s46 26 68 26h118c61.333 0 109.333 -37 144 -111c16.667 -35.333 44.667 -63.666 84 -84.999s83 -32 131 -32h313c72.667 0 127 11.667 163 35s54 63 54 119s-18 95.667 -54 119s-90.333 35 -163 35h-258
c-26 0 -48.167 9.16699 -66.5 27.5s-27.5 40.5 -27.5 66.5v82c0 24.667 8.83301 46.5 26.5 65.5s38.834 28.5 63.501 28.5h225c80.667 0 139.834 12 177.501 36s56.5 63.167 56.5 117.5s-18.833 93.5 -56.5 117.5s-96.834 36 -177.501 36h-243
c-108 0 -182.667 -41 -224 -123c-30 -62.667 -75 -94 -135 -94h-119c-12 0 -24.833 2.33301 -38.5 7s-27.667 16.334 -42 35.001s-21.5 41.667 -21.5 69c0 113.333 57.333 206.5 172 279.5s239 109.5 373 109.5h307c388 0 582 -146 582 -438c0 -121.333 -46 -217 -138 -287
c105.333 -65.333 158 -161.666 158 -288.999c0 -154 -48.167 -265.167 -144.5 -333.5s-234.5 -102.5 -414.5 -102.5h-383c-135.333 0 -260 37.167 -374 111.5s-171 170.166 -171 287.499z" />
    <glyph glyph-name="afii10026" unicode="&#x418;" horiz-adv-x="1744" 
d="M143 94l-0.000976562 1245c0 27.333 9 50 27 68s40.667 27 68 27h176c26 0 48.167 -9 66.5 -27s27.5 -40 27.5 -66v-1001l569 999c15.333 26 36.333 48.333 63 67s51.334 28 74.001 28h295c26 0 48 -9.33301 66 -28s27 -41 27 -67v-1245
c0 -26 -9.33301 -48.167 -28 -66.5s-41 -27.5 -67 -27.5h-176c-26 0 -48.167 9.16699 -66.5 27.5s-27.5 40.5 -27.5 66.5v928l-522 -928c-15.333 -26 -37 -48.167 -65 -66.5s-55 -27.5 -81 -27.5h-331c-26 0 -48.333 9.16699 -67 27.5s-28 40.5 -28 66.5z" />
    <glyph glyph-name="afii10027" unicode="&#x419;" horiz-adv-x="1744" 
d="M143 94l-0.000976562 1245c0 27.333 9 50 27 68s40.667 27 68 27h176c26 0 48.167 -9 66.5 -27s27.5 -40 27.5 -66v-1001l569 999c15.333 26 36.333 48.333 63 67s51.334 28 74.001 28h295c26 0 48 -9.33301 66 -28s27 -41 27 -67v-1245
c0 -26 -9.33301 -48.167 -28 -66.5s-41 -27.5 -67 -27.5h-176c-26 0 -48.167 9.16699 -66.5 27.5s-27.5 40.5 -27.5 66.5v928l-522 -928c-15.333 -26 -37 -48.167 -65 -66.5s-55 -27.5 -81 -27.5h-331c-26 0 -48.333 9.16699 -67 27.5s-28 40.5 -28 66.5zM536.999 1843
c0 34 18.334 51.001 55.001 51.001h82c32.667 0 55.667 -17 69 -51c19.333 -48 62.5 -71.833 129.5 -71.5s109.833 24.166 128.5 71.499c13.333 34 36.666 51 69.999 51h82c36.667 0 55 -17 55 -51c0 -91.333 -30.667 -163.666 -92 -216.999s-142.5 -80 -243.5 -80
s-182.167 26.667 -243.5 80s-92 125.666 -92 216.999z" />
    <glyph glyph-name="afii10028" unicode="&#x41a;" horiz-adv-x="1628" 
d="M143 96l0.000976562 1243c0 26 9.33301 48.667 28 68s41 29 67 29h188c26 0 48.167 -9.66699 66.5 -29s27.5 -42 27.5 -68v-479h215c58.667 0 110.167 16 154.5 48s86.5 83.667 126.5 155l155 276c35.333 64 83.333 96.333 144 97h231c26 0 41.333 -9.33301 46 -28
c1.33301 -4.66699 2 -9.33398 2 -14.001c0 -15.333 -5.66699 -33.666 -17 -54.999l-217 -393c-31.333 -57.333 -66.5 -104.666 -105.5 -141.999s-89.833 -63.666 -152.5 -78.999c44 -9.33301 89.167 -37 135.5 -83s87.166 -96 122.499 -150l250 -398
c11.333 -19.333 17 -36 17 -50c0 -6 -1 -11.667 -3 -17c-6.66699 -18 -23 -27 -49 -27h-229c-26 0 -54 9.16699 -84 27.5s-53.333 40.5 -70 66.5l-176 279c-42 68 -84.333 119.167 -127 153.5s-94 51.5 -154 51.5h-215v-486c0 -26 -9.16699 -47.833 -27.5 -65.5
s-40.5 -26.5 -66.5 -26.5h-188c-26 0 -48.333 9.5 -67 28.5s-28 41.5 -28 67.5z" />
    <glyph glyph-name="afii10029" unicode="&#x41b;" horiz-adv-x="1669" 
d="M25 84l254.002 959.999c68 259.333 289 389.333 663 390h500c23.333 0 43.166 -9.66699 59.499 -29s24.5 -41.333 24.5 -66v-1245c0 -26 -8.83301 -48.167 -26.5 -66.5s-39.5 -27.5 -65.5 -27.5h-191c-26 0 -48.167 9.16699 -66.5 27.5s-27.5 40.5 -27.5 66.5v1057h-244
c-64 0 -119.833 -18.167 -167.5 -54.5s-79.834 -85.166 -96.501 -146.499l-229 -856c-6.66699 -27.333 -21.667 -49.833 -45 -67.5s-48 -26.5 -74 -26.5h-203c-23.333 0 -41.333 8.66699 -54 26c-9.33301 12 -14 25 -14 39c0.666992 6 1.66699 12.333 3 19z" />
    <glyph glyph-name="afii10030" unicode="&#x41c;" horiz-adv-x="2117" 
d="M143 96l-0.000976562 1241c0 27.333 9 50.333 27 69s40 28 66 28h407c26 0 50.667 -9.33301 74 -28s39 -41 47 -67l295 -854l295 854c8 26 23.667 48.333 47 67s48 28 74 28h407c26 0 47.833 -9.33301 65.5 -28s26.5 -41.667 26.5 -69v-1241
c0 -27.333 -9.16699 -50.166 -27.5 -68.499s-40.5 -27.5 -66.5 -27.5h-180c-26 0 -48.167 9.16699 -66.5 27.5s-27.5 41.166 -27.5 68.499v977l-353 -983c-9.33301 -24.667 -25.666 -45.834 -48.999 -63.501s-48 -26.5 -74 -26.5h-143c-26 0 -50.5 8.83301 -73.5 26.5
s-39.5 38.834 -49.5 63.501l-352 983v-977c0 -27.333 -9.16699 -50.166 -27.5 -68.499s-40.5 -27.5 -66.5 -27.5h-180c-26 0 -48.333 9.16699 -67 27.5s-28 41.166 -28 68.499z" />
    <glyph glyph-name="afii10031" unicode="&#x41d;" horiz-adv-x="1728" 
d="M143 94l0.000976562 1245c0 26 9.33301 48.333 28 67s41.667 28 69 28h186c26 0 48.167 -9.33301 66.5 -28s27.5 -41 27.5 -67v-450h688v450c0 26 9.33301 48.333 28 67s41 28 67 28h186c27.333 0 50.166 -9.33301 68.499 -28s27.5 -41 27.5 -67v-1245
c0 -26 -9.5 -48.167 -28.5 -66.5s-41.5 -27.5 -67.5 -27.5h-186c-26 -0 -48.333 8.83301 -67 26.5s-28 39.5 -28 65.5v514h-688v-514c0 -26 -9.16699 -47.833 -27.5 -65.5s-40.5 -26.5 -66.5 -26.5h-186c-26 0 -48.667 9.16699 -68 27.5s-29 40.5 -29 66.5z" />
    <glyph glyph-name="afii10032" unicode="&#x41e;" horiz-adv-x="1732" 
d="M61 717c0 259.333 68.333 448.666 205 567.999s336.834 179 600.501 179s463.667 -59.667 600 -179s204.5 -308.666 204.5 -567.999s-68.167 -448.833 -204.5 -568.5s-336.333 -179.5 -600 -179.5s-463.834 59.833 -600.501 179.5s-205 309.167 -205 568.5zM438 716.5
c0 -158.333 33.833 -277.333 101.5 -357s176.667 -119.5 327 -119.5s259.166 39.833 326.499 119.5s101 198.667 101 357s-33.667 277.5 -101 357.5s-176.166 120 -326.499 120s-259.333 -40 -327 -120s-101.5 -199.167 -101.5 -357.5z" />
    <glyph glyph-name="afii10033" unicode="&#x41f;" horiz-adv-x="1771" 
d="M143 94v1245c0 26 9 48.333 27 67s40 28 66 28h1298c26 0 48.167 -9.33301 66.5 -28s27.5 -41 27.5 -67v-1245c0 -26 -9.5 -48.167 -28.5 -66.5s-41.5 -27.5 -67.5 -27.5h-186c-26 0 -48.333 9.16699 -67 27.5s-28 40.5 -28 66.5v1057h-731v-1057
c0 -26 -9.16699 -48.167 -27.5 -66.5s-40.5 -27.5 -66.5 -27.5h-188c-26 0 -48.333 9.16699 -67 27.5s-28 40.5 -28 66.5z" />
    <glyph glyph-name="afii10034" unicode="&#x420;" horiz-adv-x="1644" 
d="M143 94v1245c0 26 9 48.333 27 67s40 28 66 28h763c402.667 0 604.167 -185.833 604.5 -557.5s-201.167 -557.5 -604.5 -557.5h-479v-225c0 -26 -9.16699 -48.167 -27.5 -66.5s-40.5 -27.5 -66.5 -27.5h-188c-26 0 -48.333 9.16699 -67 27.5s-28 40.5 -28 66.5zM520 602
l365 -0.00195312c112 0 197 18.833 255 56.5s87 110.334 87 218.001s-29 180.334 -87 218.001s-143 56.5 -255 56.5h-365v-549z" />
    <glyph glyph-name="afii10035" unicode="&#x421;" horiz-adv-x="1673" 
d="M61 716.5c0 247 61.833 429.667 185.5 548s309.167 177.5 556.5 177.5h223c151.333 0 285.166 -39.333 401.499 -118s174.5 -186.334 174.5 -323.001c0 -39.333 -11.667 -67.5 -35 -84.5s-46 -25.5 -68 -25.5h-119c-61.333 0 -109 36.667 -143 110
c-49.333 105.333 -131.333 158 -246 158h-178c-146 0 -245 -31.333 -297 -94s-78 -178.667 -78 -348s26 -285.5 78 -348.5s151 -94.5 297 -94.5h199c114.667 0 196.334 52.667 245.001 158c34 74 82 111 144 111h119c12 0 24.833 -2.5 38.5 -7.5s27.667 -16.667 42 -35
s21.5 -41.166 21.5 -68.499c0 -136.667 -58 -244.167 -174 -322.5s-249.667 -117.5 -401 -117.5h-244c-247.333 0 -432.833 59 -556.5 177s-185.5 300.5 -185.5 547.5z" />
    <glyph glyph-name="afii10036" unicode="&#x422;" horiz-adv-x="1499" 
d="M20 1245v94c0 27.333 9 50 27 68s40.667 27 68 27h1269c27.333 0 50 -9 68 -27s27 -40.667 27 -68v-94c0 -27.333 -9 -49.833 -27 -67.5s-40.667 -26.5 -68 -26.5h-446v-1059c0 -26 -9.16699 -47.833 -27.5 -65.5s-40.5 -26.5 -66.5 -26.5h-189
c-26 -0 -48.167 8.83301 -66.5 26.5s-27.5 39.5 -27.5 65.5v1059h-446c-27.333 0 -50 8.83301 -68 26.5s-27 40.167 -27 67.5z" />
    </font>
</defs>
</svg>
